<?xml version="1.0" encoding="utf-8"?>
<!-- Generator: Adobe Illustrator 15.1.0, SVG Export Plug-In . SVG Version: 6.00 Build 0)  -->
<!DOCTYPE svg PUBLIC "-//W3C//DTD SVG 1.1//EN" "http://www.w3.org/Graphics/SVG/1.1/DTD/svg11.dtd">
<svg version="1.1" id="Layer_1" xmlns="http://www.w3.org/2000/svg" xmlns:xlink="http://www.w3.org/1999/xlink" x="0px" y="0px"
	 width="768px" height="511px" viewBox="416 45.5 768 511" enable-background="new 416 45.5 768 511" xml:space="preserve">
<g>
	<g>
		<g>
			<path fill="#40C4FF" d="M501.759,372.342c-3.219,0.328-6.568,0.46-9.72-0.395c-3.087-0.854-6.24-2.102-8.801-4.335
				c-5.779-5.057-4.729-15.368-2.89-19.769c0.985-2.364,2.693-4.4,3.284-6.896c1.313-5.058-1.971-10.313-1.773-15.566
				c0.131-3.548,1.839-6.765,3.547-9.786c1.511-2.562,3.086-5.386,2.89-8.473c-0.065-1.38-0.525-2.759-0.92-4.072
				c-1.248-4.203-1.838-9.327,0.723-12.61c1.182-1.511,3.021-2.496,3.612-4.466c0.394-1.248,0.196-2.563,0.394-3.875
				c0.525-3.547,4.007-5.911,7.093-5.188c3.087,0.722,5.386,4.006,5.846,7.553c0.328,2.758-0.263,5.648,0.525,8.275
				c1.051,3.284,4.072,5.254,5.648,8.275c1.904,3.612,1.576,8.145,1.05,12.282c-0.525,4.137-1.248,8.604,0.197,12.479
				c1.248,3.547,4.204,6.437,4.204,10.246c0,3.743-2.824,6.831-3.021,10.574c-0.197,4.138,2.89,7.618,3.415,11.757
				c0.526,4.138-1.773,8.275-4.86,10.508C509.115,371.094,505.437,371.947,501.759,372.342z"/>
		</g>
		<g>
			<rect x="497.555" y="372.604" fill="#40C4FF" width="1.313" height="12.281"/>
		</g>
		<g>
			<rect x="497.555" y="305.218" fill="#FFFFFF" width="1.313" height="67.387"/>
		</g>
		<g>
			
				<rect x="500.177" y="313.013" transform="matrix(-0.7071 -0.7071 0.7071 -0.7071 630.9955 894.8801)" fill="#FFFFFF" width="1.313" height="7.487"/>
		</g>
		<g>
			
				<rect x="489.4" y="326.818" transform="matrix(-0.7071 -0.7071 0.7071 -0.7071 612.6822 908.741)" fill="#FFFFFF" width="10.312" height="1.313"/>
		</g>
		<g>
			
				<rect x="501.477" y="338.196" transform="matrix(-0.7067 -0.7075 0.7075 -0.7067 613.8178 941.9304)" fill="#FFFFFF" width="1.314" height="11.099"/>
		</g>
		<g>
			
				<rect x="487.696" y="356.521" transform="matrix(-0.7071 -0.7071 0.7071 -0.7071 590.3394 958.8923)" fill="#FFFFFF" width="12.15" height="1.313"/>
		</g>
		<g>
			<polygon fill="#FF5722" points="473.846,388.564 522.579,388.564 516.143,429.417 480.282,429.417 			"/>
		</g>
		<g>
			<rect x="467.343" y="379.434" fill="#FF5722" width="61.672" height="9.13"/>
		</g>
	</g>
	<g>
		<g>
			<polygon fill="#40C4FF" points="1082.095,242.035 1053.066,250.048 1074.477,228.899 			"/>
		</g>
		<g>
			<g>
				<path d="M1030.8,255.302c3.351-7.553,12.216-36.648,0-55.235s-24.958-4.926-24.169,7.225
					C1007.813,225.812,1027.451,262.79,1030.8,255.302z"/>
			</g>
			<g>
				<g>
					<path d="M1008.47,272.642c-3.612,5.844-16.092,25.22-18.324,29.095s13.661,32.708,13.661,32.708l5.845-3.48
						c0,0-9.982-21.741-10.639-24.894c-0.592-3.152,11.756-12.741,11.756-12.741L1008.47,272.642z"/>
				</g>
				<g>
					<path fill="#8D6E63" d="M1018.189,231.789c0.329-0.197,0.592-0.395,0.986-0.591
						C1018.847,231.329,1018.519,231.527,1018.189,231.789z"/>
				</g>
				<g>
					<path fill="#8D6E63" d="M1025.087,230.344c1.511,0.197,2.758,0.592,3.809,1.117
						C1027.845,230.869,1026.597,230.476,1025.087,230.344z"/>
				</g>
				<g>
					<path fill="#8D6E63" d="M1019.372,231.067c0.263-0.131,0.526-0.263,0.854-0.329
						C1019.963,230.804,1019.635,230.936,1019.372,231.067z"/>
				</g>
				<g>
					<path fill="#8D6E63" d="M1023.183,230.213c-0.461,0-0.921,0.066-1.314,0.131
						C1022.262,230.279,1022.722,230.213,1023.183,230.213L1023.183,230.213z"/>
				</g>
				<g>
					<path fill="#8D6E63" d="M1020.555,230.607c0.263-0.066,0.591-0.131,0.854-0.198
						C1021.146,230.476,1020.883,230.541,1020.555,230.607z"/>
				</g>
				<g>
					<path d="M1021.474,230.409c0.132,0,0.263-0.065,0.395-0.065C1021.671,230.344,1021.605,230.409,1021.474,230.409z"/>
				</g>
				<g>
					<path d="M1020.227,230.738c0.131-0.065,0.262-0.065,0.328-0.131C1020.488,230.673,1020.357,230.673,1020.227,230.738z"/>
				</g>
				<g>
					<path d="M1019.176,231.133c0.065-0.066,0.131-0.066,0.197-0.066C1019.307,231.133,1019.241,231.133,1019.176,231.133z"/>
				</g>
				<g>
					<path d="M1018.125,231.855l0.064-0.065C1018.189,231.789,1018.189,231.789,1018.125,231.855z"/>
				</g>
				<g>
					<path d="M1023.183,230.213L1023.183,230.213c0.722,0,1.313,0.066,1.97,0.131
						C1024.495,230.279,1023.839,230.213,1023.183,230.213z"/>
				</g>
				<g>
					<path d="M1023.839,266.138c8.866-0.327,14.58,1.183,17.536,8.867c2.955,7.619,0.854,55.367,0.854,55.367h-35.795l0.918-33.233
						C1007.288,286.434,999.537,267.059,1023.839,266.138z"/>
				</g>
				<g>
					<path fill="#FF7043" d="M1033.493,244.465c0.459-6.567-0.722-14.317-10.311-14.186c-12.874,0.197-8.933,21.412-5.715,26.731
						c3.612,5.846,1.642,9.853,1.642,9.853s1.248,2.035,5.452,2.364c3.086,0.263,5.977-2.824,5.977-2.824s-1.511-1.512-0.788-6.831
						C1030.472,253.528,1032.836,253.923,1033.493,244.465z"/>
				</g>
				<g>
					<path fill="#F4B400" d="M1006.435,330.373c0,0-3.482,28.176-2.103,50.441c0.854,14.121,4.926,38.554,2.824,41.64
						c-2.102,3.088-8.078,3.088-8.078,6.963h18.062c0.985-15.501,0.065-15.369-0.066-36.978c-0.065-6.239,2.036-27.322,3.219-33.759
						c0.46-2.496,4.071-2.496,4.532,0c1.247,6.765,2.561,27.717,2.691,30.409c0.198,5.123,6.963,29.424,4.139,33.496
						c-3.087,4.4-7.355,3.219-7.355,6.831h17.01c0,0-0.131-23.251-0.919-36.847c-1.116-18.98,2.824-34.152,1.971-62.197H1006.435z"
						/>
				</g>
				<g>
					<path d="M1023.183,230.213c-4.139,0.066-6.504,2.299-7.752,5.386c2.366,0.92,6.306,1.971,10.313,1.445l0.985,7.225
						c0,0,2.627-3.415,3.48-0.131c0.854,3.284-1.247,6.502-1.247,6.502l1.838,4.662c1.249-2.627,2.299-5.188,2.628-10.837
						C1033.888,237.832,1032.771,230.081,1023.183,230.213z"/>
				</g>
				<g>
					<path d="M1039.471,271.393c6.698,7.356,17.47,25.155,19.703,30.738c2.233,5.648-13.924,33.759-13.924,33.759l-6.962-3.875
						c0,0,10.442-23.842,11.033-26.994c0.592-3.152-7.946-10.509-7.946-10.509L1039.471,271.393z"/>
				</g>
				<g>
					<path d="M1007.156,422.454c-2.102,3.088-8.078,3.088-8.078,6.963h18.062c0.196-3.284,0.328-5.911,0.394-8.145h-9.983
						C1007.419,421.798,1007.288,422.192,1007.156,422.454z"/>
				</g>
				<g>
					<path d="M1032.049,421.272c-0.132,0.525-0.263,0.985-0.46,1.313c-3.087,4.4-7.356,3.219-7.356,6.831h17.012
						c0,0,0-3.284-0.066-8.145H1032.049z"/>
				</g>
			</g>
			<g>
				<rect x="989.16" y="285.054" fill="#40C4FF" width="71.261" height="71.262"/>
				<path fill="#40C4FF" d="M1059.436,356.25c0-0.524,0.461-0.984,0.985-0.984l0,0c0.526,0,0.986,0.46,0.986,0.984l0,0
					c0,0.525-0.46,0.985-0.986,0.985l0,0C1059.896,357.235,1059.436,356.842,1059.436,356.25z M1055.562,356.25
					c0-0.524,0.459-0.984,0.985-0.984l0,0c0.525,0,0.984,0.46,0.984,0.984l0,0c0,0.525-0.459,0.985-0.984,0.985l0,0
					C1056.021,357.235,1055.562,356.842,1055.562,356.25z M1051.687,356.25c0-0.524,0.459-0.984,0.984-0.984l0,0
					c0.526,0,0.985,0.46,0.985,0.984l0,0c0,0.525-0.459,0.985-0.985,0.985l0,0C1052.146,357.235,1051.687,356.842,1051.687,356.25z
					 M1047.877,356.25c0-0.524,0.46-0.984,0.985-0.984l0,0c0.525,0,0.984,0.46,0.984,0.984l0,0c0,0.525-0.459,0.985-0.984,0.985l0,0
					C1048.271,357.235,1047.877,356.842,1047.877,356.25z M1044.002,356.25c0-0.524,0.459-0.984,0.985-0.984l0,0
					c0.525,0,0.984,0.46,0.984,0.984l0,0c0,0.525-0.459,0.985-0.984,0.985l0,0C1044.396,357.235,1044.002,356.842,1044.002,356.25z
					 M1040.127,356.25c0-0.524,0.459-0.984,0.985-0.984l0,0c0.524,0,0.985,0.46,0.985,0.984l0,0c0,0.525-0.461,0.985-0.985,0.985
					l0,0C1040.521,357.235,1040.127,356.842,1040.127,356.25z M1036.251,356.25c0-0.524,0.46-0.984,0.985-0.984l0,0
					c0.526,0,0.986,0.46,0.986,0.984l0,0c0,0.525-0.46,0.985-0.986,0.985l0,0C1036.711,357.235,1036.251,356.842,1036.251,356.25z
					 M1032.377,356.25c0-0.524,0.459-0.984,0.985-0.984l0,0c0.525,0,0.984,0.46,0.984,0.984l0,0c0,0.525-0.395,0.985-0.984,0.985
					l0,0C1032.836,357.235,1032.377,356.842,1032.377,356.25z M1028.502,356.25c0-0.524,0.46-0.984,0.985-0.984l0,0
					c0.525,0,0.984,0.46,0.984,0.984l0,0c0,0.525-0.459,0.985-0.984,0.985l0,0C1028.962,357.235,1028.502,356.842,1028.502,356.25z
					 M1024.626,356.25c0-0.524,0.461-0.984,0.986-0.984l0,0c0.524,0,0.984,0.46,0.984,0.984l0,0c0,0.525-0.46,0.985-0.984,0.985l0,0
					C1025.087,357.235,1024.626,356.842,1024.626,356.25z M1020.817,356.25c0-0.524,0.46-0.984,0.985-0.984l0,0
					c0.525,0,0.984,0.46,0.984,0.984l0,0c0,0.525-0.459,0.985-0.984,0.985l0,0C1021.211,357.235,1020.817,356.842,1020.817,356.25z
					 M1016.942,356.25c0-0.524,0.46-0.984,0.985-0.984l0,0c0.525,0,0.985,0.46,0.985,0.984l0,0c0,0.525-0.46,0.985-0.985,0.985l0,0
					C1017.336,357.235,1016.942,356.842,1016.942,356.25z M1013.067,356.25c0-0.524,0.459-0.984,0.984-0.984l0,0
					c0.525,0,0.985,0.46,0.985,0.984l0,0c0,0.525-0.46,0.985-0.985,0.985l0,0C1013.461,357.235,1013.067,356.842,1013.067,356.25z
					 M1009.192,356.25c0-0.524,0.459-0.984,0.984-0.984l0,0c0.526,0,0.985,0.46,0.985,0.984l0,0c0,0.525-0.459,0.985-0.985,0.985
					l0,0C1009.651,357.235,1009.192,356.842,1009.192,356.25z M1005.317,356.25c0-0.524,0.459-0.984,0.985-0.984l0,0
					c0.525,0,0.985,0.46,0.985,0.984l0,0c0,0.525-0.46,0.985-0.985,0.985l0,0C1005.777,357.235,1005.317,356.842,1005.317,356.25z
					 M1001.441,356.25c0-0.524,0.461-0.984,0.986-0.984l0,0c0.525,0,0.984,0.46,0.984,0.984l0,0c0,0.525-0.459,0.985-0.984,0.985
					l0,0C1001.902,357.235,1001.441,356.842,1001.441,356.25z M997.567,356.25c0-0.524,0.459-0.984,0.985-0.984l0,0
					c0.525,0,0.984,0.46,0.984,0.984l0,0c0,0.525-0.459,0.985-0.984,0.985l0,0C998.026,357.235,997.567,356.842,997.567,356.25z
					 M993.757,356.25c0-0.524,0.461-0.984,0.985-0.984l0,0c0.526,0,0.986,0.46,0.986,0.984l0,0c0,0.525-0.46,0.985-0.986,0.985l0,0
					C994.151,357.235,993.757,356.842,993.757,356.25z M989.883,356.25c0-0.524,0.459-0.984,0.985-0.984l0,0
					c0.525,0,0.984,0.46,0.984,0.984l0,0c0,0.525-0.394,0.985-0.984,0.985l0,0C990.276,357.235,989.883,356.842,989.883,356.25z
					 M988.175,354.083c0-0.525,0.46-0.985,0.985-0.985l0,0c0.525,0,0.985,0.46,0.985,0.985l0,0c0,0.525-0.46,0.986-0.985,0.986l0,0
					C988.635,355.069,988.175,354.608,988.175,354.083z M1059.436,353.492c0-0.526,0.461-0.985,0.985-0.985l0,0
					c0.526,0,0.986,0.459,0.986,0.985l0,0c0,0.525-0.46,0.984-0.986,0.984l0,0C1059.896,354.412,1059.436,354.017,1059.436,353.492z
					 M988.175,350.208c0-0.525,0.46-0.985,0.985-0.985l0,0c0.525,0,0.985,0.46,0.985,0.985l0,0c0,0.525-0.46,0.984-0.985,0.984l0,0
					C988.635,351.192,988.175,350.733,988.175,350.208z M1059.436,349.617c0-0.526,0.461-0.985,0.985-0.985l0,0
					c0.526,0,0.986,0.459,0.986,0.985l0,0c0,0.525-0.46,0.984-0.986,0.984l0,0C1059.896,350.537,1059.436,350.142,1059.436,349.617z
					 M988.175,346.333c0-0.525,0.46-0.985,0.985-0.985l0,0c0.525,0,0.985,0.46,0.985,0.985l0,0c0,0.526-0.46,0.984-0.985,0.984l0,0
					C988.635,347.317,988.175,346.859,988.175,346.333z M1059.436,345.742c0-0.525,0.461-0.985,0.985-0.985l0,0
					c0.526,0,0.986,0.394,0.986,0.985l0,0c0,0.525-0.46,0.985-0.986,0.985l0,0C1059.896,346.727,1059.436,346.267,1059.436,345.742z
					 M988.175,342.458c0-0.525,0.46-0.984,0.985-0.984l0,0c0.525,0,0.985,0.459,0.985,0.984l0,0c0,0.525-0.46,0.985-0.985,0.985l0,0
					C988.635,343.443,988.175,343.049,988.175,342.458z M1059.436,341.866c0-0.524,0.461-0.985,0.985-0.985l0,0
					c0.526,0,0.986,0.461,0.986,0.985l0,0c0,0.525-0.46,0.986-0.986,0.986l0,0C1059.896,342.852,1059.436,342.391,1059.436,341.866z
					 M988.175,338.583c0-0.525,0.46-0.985,0.985-0.985l0,0c0.525,0,0.985,0.46,0.985,0.985l0,0c0,0.524-0.46,0.985-0.985,0.985l0,0
					C988.635,339.568,988.175,339.175,988.175,338.583z M1059.436,337.992c0-0.526,0.461-0.985,0.985-0.985l0,0
					c0.526,0,0.986,0.459,0.986,0.985l0,0c0,0.525-0.46,0.984-0.986,0.984l0,0C1059.896,338.976,1059.436,338.517,1059.436,337.992z
					 M988.175,334.773c0-0.525,0.46-0.985,0.985-0.985l0,0c0.525,0,0.985,0.394,0.985,0.985l0,0c0,0.525-0.46,0.985-0.985,0.985l0,0
					C988.635,335.693,988.175,335.299,988.175,334.773z M1059.436,334.117c0-0.525,0.461-0.985,0.985-0.985l0,0
					c0.526,0,0.986,0.46,0.986,0.985l0,0c0,0.525-0.46,0.984-0.986,0.984l0,0C1059.896,335.101,1059.436,334.642,1059.436,334.117z
					 M988.175,330.898c0-0.525,0.46-0.985,0.985-0.985l0,0c0.525,0,0.985,0.46,0.985,0.985l0,0c0,0.525-0.46,0.985-0.985,0.985l0,0
					C988.635,331.884,988.175,331.424,988.175,330.898z M1059.436,330.242c0-0.525,0.461-0.985,0.985-0.985l0,0
					c0.526,0,0.986,0.46,0.986,0.985l0,0c0,0.524-0.46,0.984-0.986,0.984l0,0C1059.896,331.226,1059.436,330.833,1059.436,330.242z
					 M988.175,327.023c0-0.525,0.46-0.985,0.985-0.985l0,0c0.525,0,0.985,0.46,0.985,0.985l0,0c0,0.525-0.46,0.985-0.985,0.985l0,0
					C988.635,328.009,988.175,327.549,988.175,327.023z M1059.436,326.432c0-0.525,0.461-0.985,0.985-0.985l0,0
					c0.526,0,0.986,0.46,0.986,0.985l0,0c0,0.525-0.46,0.984-0.986,0.984l0,0C1059.896,327.352,1059.436,326.958,1059.436,326.432z
					 M988.175,323.148c0-0.525,0.46-0.985,0.985-0.985l0,0c0.525,0,0.985,0.46,0.985,0.985l0,0c0,0.525-0.46,0.985-0.985,0.985l0,0
					C988.635,324.134,988.175,323.674,988.175,323.148z M1059.436,322.557c0-0.525,0.461-0.985,0.985-0.985l0,0
					c0.526,0,0.986,0.46,0.986,0.985l0,0c0,0.525-0.46,0.985-0.986,0.985l0,0C1059.896,323.476,1059.436,323.083,1059.436,322.557z
					 M988.175,319.274c0-0.526,0.46-0.986,0.985-0.986l0,0c0.525,0,0.985,0.46,0.985,0.986l0,0c0,0.524-0.46,0.984-0.985,0.984l0,0
					C988.635,320.259,988.175,319.799,988.175,319.274z M1059.436,318.681c0-0.524,0.461-0.984,0.985-0.984l0,0
					c0.526,0,0.986,0.394,0.986,0.984l0,0c0,0.525-0.46,0.986-0.986,0.986l0,0C1059.896,319.668,1059.436,319.207,1059.436,318.681z
					 M988.175,315.397c0-0.524,0.46-0.984,0.985-0.984l0,0c0.525,0,0.985,0.46,0.985,0.984l0,0c0,0.526-0.46,0.986-0.985,0.986l0,0
					C988.635,316.384,988.175,315.924,988.175,315.397z M1059.436,314.806c0-0.525,0.461-0.984,0.985-0.984l0,0
					c0.526,0,0.986,0.459,0.986,0.984l0,0c0,0.526-0.46,0.985-0.986,0.985l0,0C1059.896,315.792,1059.436,315.333,1059.436,314.806z
					 M988.175,311.522c0-0.525,0.46-0.984,0.985-0.984l0,0c0.525,0,0.985,0.459,0.985,0.984l0,0c0,0.526-0.46,0.985-0.985,0.985l0,0
					C988.635,312.508,988.175,312.114,988.175,311.522z M1059.436,310.932c0-0.525,0.461-0.985,0.985-0.985l0,0
					c0.526,0,0.986,0.46,0.986,0.985l0,0c0,0.525-0.46,0.984-0.986,0.984l0,0C1059.896,311.917,1059.436,311.458,1059.436,310.932z
					 M988.175,307.714c0-0.525,0.46-0.985,0.985-0.985l0,0c0.525,0,0.985,0.395,0.985,0.985l0,0c0,0.525-0.46,0.985-0.985,0.985l0,0
					C988.635,308.634,988.175,308.239,988.175,307.714z M1059.436,307.057c0-0.525,0.461-0.986,0.985-0.986l0,0
					c0.526,0,0.986,0.461,0.986,0.986l0,0c0,0.524-0.46,0.984-0.986,0.984l0,0C1059.896,308.042,1059.436,307.582,1059.436,307.057z
					 M988.175,303.839c0-0.525,0.46-0.984,0.985-0.984l0,0c0.525,0,0.985,0.459,0.985,0.984l0,0c0,0.525-0.46,0.985-0.985,0.985l0,0
					C988.635,304.759,988.175,304.364,988.175,303.839z M1059.436,303.181c0-0.524,0.461-0.984,0.985-0.984l0,0
					c0.526,0,0.986,0.46,0.986,0.984l0,0c0,0.525-0.46,0.985-0.986,0.985l0,0C1059.896,304.167,1059.436,303.773,1059.436,303.181z
					 M988.175,299.964c0-0.525,0.46-0.985,0.985-0.985l0,0c0.525,0,0.985,0.46,0.985,0.985l0,0c0,0.525-0.46,0.985-0.985,0.985l0,0
					C988.635,300.949,988.175,300.489,988.175,299.964z M1059.436,299.373c0-0.525,0.461-0.986,0.985-0.986l0,0
					c0.526,0,0.986,0.461,0.986,0.986l0,0c0,0.525-0.46,0.985-0.986,0.985l0,0C1059.896,300.292,1059.436,299.898,1059.436,299.373z
					 M988.175,296.089c0-0.525,0.46-0.985,0.985-0.985l0,0c0.525,0,0.985,0.46,0.985,0.985l0,0c0,0.525-0.46,0.985-0.985,0.985l0,0
					C988.635,297.074,988.175,296.614,988.175,296.089z M1059.436,295.497c0-0.525,0.461-0.984,0.985-0.984l0,0
					c0.526,0,0.986,0.459,0.986,0.984l0,0c0,0.526-0.46,0.986-0.986,0.986l0,0C1059.896,296.417,1059.436,296.023,1059.436,295.497z
					 M988.175,292.214c0-0.525,0.46-0.985,0.985-0.985l0,0c0.525,0,0.985,0.46,0.985,0.985l0,0c0,0.525-0.46,0.985-0.985,0.985l0,0
					C988.635,293.199,988.175,292.739,988.175,292.214z M1059.436,291.622c0-0.525,0.461-0.984,0.985-0.984l0,0
					c0.526,0,0.986,0.459,0.986,0.984l0,0c0,0.526-0.46,0.985-0.986,0.985l0,0C1059.896,292.607,1059.436,292.148,1059.436,291.622z
					 M988.175,288.339c0-0.525,0.46-0.985,0.985-0.985l0,0c0.525,0,0.985,0.46,0.985,0.985l0,0c0,0.525-0.46,0.984-0.985,0.984l0,0
					C988.635,289.323,988.175,288.864,988.175,288.339z M1059.436,287.748c0-0.525,0.461-0.985,0.985-0.985l0,0
					c0.526,0,0.986,0.46,0.986,0.985l0,0c0,0.525-0.46,0.985-0.986,0.985l0,0C1059.896,288.733,1059.436,288.273,1059.436,287.748z
					 M1058.32,285.054c0-0.525,0.459-0.985,0.984-0.985l0,0c0.525,0,0.985,0.395,0.985,0.985l0,0c0,0.525-0.394,0.984-0.985,0.984
					l0,0C1058.714,285.974,1058.32,285.58,1058.32,285.054z M1054.445,285.054c0-0.525,0.459-0.985,0.984-0.985l0,0
					c0.525,0,0.985,0.395,0.985,0.985l0,0c0,0.525-0.46,0.984-0.985,0.984l0,0C1054.839,285.974,1054.445,285.58,1054.445,285.054z
					 M1050.57,285.054c0-0.525,0.459-0.985,0.984-0.985l0,0c0.525,0,0.985,0.395,0.985,0.985l0,0c0,0.525-0.46,0.984-0.985,0.984
					l0,0C1051.029,285.974,1050.57,285.58,1050.57,285.054z M1046.694,285.054c0-0.525,0.46-0.985,0.985-0.985l0,0
					c0.525,0,0.985,0.395,0.985,0.985l0,0c0,0.525-0.46,0.984-0.985,0.984l0,0C1047.155,285.974,1046.694,285.58,1046.694,285.054z
					 M1042.819,285.054c0-0.525,0.46-0.985,0.985-0.985l0,0c0.526,0,0.984,0.395,0.984,0.985l0,0c0,0.525-0.393,0.984-0.984,0.984
					l0,0C1043.279,285.974,1042.819,285.58,1042.819,285.054z M1039.01,285.054c0-0.525,0.395-0.985,0.985-0.985l0,0
					c0.525,0,0.986,0.395,0.986,0.985l0,0c0,0.525-0.461,0.984-0.986,0.984l0,0C1039.404,285.974,1039.01,285.58,1039.01,285.054z
					 M1035.135,285.054c0-0.525,0.46-0.985,0.985-0.985l0,0c0.526,0,0.984,0.395,0.984,0.985l0,0c0,0.525-0.458,0.984-0.984,0.984
					l0,0C1035.529,285.974,1035.135,285.58,1035.135,285.054z M1031.261,285.054c0-0.525,0.459-0.985,0.984-0.985l0,0
					c0.526,0,0.985,0.395,0.985,0.985l0,0c0,0.525-0.459,0.984-0.985,0.984l0,0C1031.654,285.974,1031.261,285.58,1031.261,285.054z
					 M1027.385,285.054c0-0.525,0.46-0.985,0.985-0.985l0,0c0.525,0,0.985,0.395,0.985,0.985l0,0c0,0.525-0.46,0.984-0.985,0.984
					l0,0C1027.845,285.974,1027.385,285.58,1027.385,285.054z M1023.51,285.054c0-0.525,0.46-0.985,0.985-0.985l0,0
					c0.525,0,0.985,0.395,0.985,0.985l0,0c0,0.525-0.46,0.984-0.985,0.984l0,0C1023.97,285.974,1023.51,285.58,1023.51,285.054z
					 M1019.635,285.054c0-0.525,0.46-0.985,0.985-0.985l0,0c0.525,0,0.985,0.395,0.985,0.985l0,0c0,0.525-0.46,0.984-0.985,0.984
					l0,0C1020.095,285.974,1019.635,285.58,1019.635,285.054z M1015.76,285.054c0-0.525,0.46-0.985,0.985-0.985l0,0
					c0.526,0,0.985,0.395,0.985,0.985l0,0c0,0.525-0.395,0.984-0.985,0.984l0,0C1016.22,285.974,1015.76,285.58,1015.76,285.054z
					 M1011.885,285.054c0-0.525,0.394-0.985,0.986-0.985l0,0c0.524,0,0.984,0.395,0.984,0.985l0,0c0,0.525-0.46,0.984-0.984,0.984
					l0,0C1012.345,285.974,1011.885,285.58,1011.885,285.054z M1008.076,285.054c0-0.525,0.459-0.985,0.985-0.985l0,0
					c0.525,0,0.984,0.395,0.984,0.985l0,0c0,0.525-0.459,0.984-0.984,0.984l0,0C1008.47,285.974,1008.076,285.58,1008.076,285.054z
					 M1004.2,285.054c0-0.525,0.461-0.985,0.986-0.985l0,0c0.524,0,0.984,0.395,0.984,0.985l0,0c0,0.525-0.46,0.984-0.984,0.984l0,0
					C1004.594,285.974,1004.2,285.58,1004.2,285.054z M1000.325,285.054c0-0.525,0.46-0.985,0.985-0.985l0,0
					c0.525,0,0.985,0.395,0.985,0.985l0,0c0,0.525-0.46,0.984-0.985,0.984l0,0C1000.72,285.974,1000.325,285.58,1000.325,285.054z
					 M996.451,285.054c0-0.525,0.458-0.985,0.984-0.985l0,0c0.525,0,0.985,0.395,0.985,0.985l0,0c0,0.525-0.46,0.984-0.985,0.984
					l0,0C996.91,285.974,996.451,285.58,996.451,285.054z M992.576,285.054c0-0.525,0.459-0.985,0.984-0.985l0,0
					c0.526,0,0.985,0.395,0.985,0.985l0,0c0,0.525-0.459,0.984-0.985,0.984l0,0C993.035,285.974,992.576,285.58,992.576,285.054z
					 M988.7,285.054c0-0.525,0.46-0.985,0.985-0.985l0,0c0.525,0,0.985,0.395,0.985,0.985l0,0c0,0.525-0.46,0.984-0.985,0.984l0,0
					C989.16,285.974,988.7,285.58,988.7,285.054z"/>
			</g>
			<g>
				<path fill="#40C4FF" d="M1060.421,357.235H989.16c-0.525,0-0.985-0.46-0.985-0.985v-71.195c0-0.525,0.46-0.985,0.985-0.985
					h71.261c0.526,0,0.986,0.46,0.986,0.985v71.262C1061.407,356.842,1060.947,357.235,1060.421,357.235z M990.146,355.331h69.29
					v-69.356h-69.29V355.331z"/>
			</g>
			<g>
				<path fill="#40C4FF" d="M1114.737,357.17c-0.524,0-0.919-0.459-0.919-0.985l0,0c0-0.525,0.459-0.919,0.985-0.919l0,0
					c0.525,0.065,0.92,0.46,0.92,1.051l0,0C1115.789,356.775,1115.329,357.17,1114.737,357.17L1114.737,357.17
					C1114.804,357.17,1114.804,357.17,1114.737,357.17z M1117.693,356.25c0-0.524,0.395-0.984,0.92-1.051l0,0
					c0.525-0.065,0.985,0.395,0.985,0.92l0,0c0,0.525-0.395,0.985-0.921,0.985l0,0l0,0l0,0c0,0,0,0-0.064,0l0,0
					C1118.152,357.17,1117.759,356.775,1117.693,356.25z M1110.862,356.775c-0.525-0.064-0.854-0.591-0.788-1.116l0,0
					c0.065-0.525,0.592-0.919,1.117-0.788l0,0c0.524,0.066,0.854,0.592,0.787,1.116l0,0c-0.064,0.46-0.524,0.788-0.985,0.788l0,0
					C1110.929,356.775,1110.862,356.775,1110.862,356.775z M1121.568,355.987c-0.065-0.524,0.262-1.05,0.788-1.116l0,0
					c0.525-0.065,1.051,0.263,1.116,0.788l0,0c0.066,0.525-0.263,1.052-0.789,1.116l0,0c-0.064,0-0.131,0-0.131,0l0,0
					C1122.028,356.775,1121.634,356.447,1121.568,355.987z M1106.987,355.922c-0.525-0.131-0.788-0.656-0.656-1.182l0,0
					c0.131-0.526,0.656-0.788,1.183-0.657l0,0c0.525,0.131,0.787,0.657,0.656,1.183l0,0c-0.131,0.46-0.525,0.722-0.919,0.722l0,0
					C1107.119,355.987,1107.053,355.922,1106.987,355.922z M1125.378,355.265c-0.132-0.525,0.131-1.052,0.656-1.183l0,0
					c0.525-0.131,1.052,0.131,1.183,0.657l0,0c0.131,0.525-0.131,1.051-0.657,1.182l0,0l0,0l0,0c-0.065,0-0.197,0.065-0.262,0.065
					l0,0C1125.837,355.922,1125.443,355.659,1125.378,355.265z M1103.179,354.674c-0.526-0.197-0.723-0.788-0.526-1.247l0,0
					c0.198-0.526,0.788-0.723,1.248-0.526l0,0c0.525,0.197,0.723,0.723,0.525,1.248l0,0c-0.131,0.395-0.525,0.592-0.919,0.592l0,0
					C1103.44,354.74,1103.31,354.74,1103.179,354.674z M1129.056,354.083c-0.197-0.525,0.065-1.051,0.526-1.248l0,0
					c0.525-0.196,1.05,0.065,1.247,0.525l0,0c0.197,0.525-0.066,1.052-0.525,1.248l0,0c-0.132,0.065-0.264,0.065-0.328,0.065l0,0
					C1129.515,354.74,1129.188,354.476,1129.056,354.083z M1099.631,353.032c-0.459-0.263-0.656-0.854-0.394-1.314l0,0
					c0.263-0.459,0.854-0.656,1.314-0.394l0,0c0.459,0.263,0.656,0.854,0.394,1.314l0,0c-0.197,0.327-0.525,0.525-0.854,0.525l0,0
					C1099.895,353.097,1099.763,353.097,1099.631,353.032z M1132.603,352.572c-0.263-0.459-0.065-1.051,0.394-1.313l0,0
					c0.46-0.263,1.051-0.066,1.313,0.395l0,0c0.263,0.46,0.066,1.051-0.394,1.313l0,0c-0.132,0.066-0.264,0.132-0.46,0.132l0,0
					C1133.063,353.097,1132.734,352.9,1132.603,352.572z M1096.216,350.93c-0.459-0.263-0.524-0.919-0.263-1.313l0,0
					c0.329-0.459,0.92-0.526,1.314-0.263l0,0c0.459,0.263,0.525,0.919,0.262,1.313l0,0c-0.196,0.263-0.525,0.394-0.787,0.394l0,0
					C1096.545,351.128,1096.414,351.061,1096.216,350.93z M1135.951,350.668c-0.328-0.46-0.196-1.051,0.264-1.379l0,0
					c0.459-0.263,1.051-0.198,1.313,0.262l0,0c0.328,0.461,0.196,1.051-0.263,1.314l0,0c-0.197,0.131-0.329,0.131-0.525,0.131l0,0
					C1136.412,351.061,1136.083,350.93,1135.951,350.668z M1093.063,348.565L1093.063,348.565L1093.063,348.565
					c-0.394-0.328-0.459-0.984-0.131-1.379l0,0c0.329-0.395,0.985-0.459,1.38-0.131l0,0c0.393,0.329,0.459,0.919,0.131,1.379l0,0
					c-0.197,0.197-0.46,0.329-0.724,0.329l0,0C1093.458,348.829,1093.261,348.697,1093.063,348.565z M1139.039,348.434
					c-0.329-0.395-0.263-1.05,0.132-1.379l0,0c0.394-0.328,0.984-0.264,1.379,0.131l0,0c0.328,0.395,0.328,1.051-0.131,1.379l0,0
					c-0.198,0.132-0.395,0.264-0.593,0.264l0,0C1139.499,348.763,1139.235,348.632,1139.039,348.434z M1090.174,345.874
					c-0.395-0.395-0.328-0.986,0-1.38l0,0c0.394-0.394,0.985-0.329,1.379,0l0,0c0.394,0.394,0.329,0.985,0,1.38l0,0
					c-0.196,0.196-0.459,0.263-0.656,0.263l0,0C1090.634,346.136,1090.371,346.07,1090.174,345.874z M1141.929,345.807
					c-0.395-0.395-0.395-0.985,0-1.379l0,0c0.328-0.395,0.985-0.395,1.379-0.066l0,0c0.395,0.395,0.395,0.985,0,1.38l0,0
					c-0.197,0.196-0.46,0.263-0.722,0.263l0,0C1142.323,346.07,1142.126,346.005,1141.929,345.807z M1087.613,342.852
					c-0.329-0.395-0.264-1.051,0.196-1.379l0,0c0.395-0.329,1.052-0.264,1.379,0.196l0,0c0.329,0.394,0.263,1.051-0.197,1.379l0,0
					c-0.197,0.132-0.394,0.197-0.591,0.197l0,0C1088.072,343.246,1087.81,343.115,1087.613,342.852z M1144.49,342.983
					c-0.395-0.328-0.525-0.92-0.197-1.379l0,0c0.328-0.395,0.92-0.525,1.379-0.197l0,0c0.395,0.328,0.526,0.92,0.197,1.379l0,0
					c-0.197,0.263-0.46,0.395-0.787,0.395l0,0C1144.884,343.18,1144.688,343.115,1144.49,342.983z M1085.379,339.568
					c-0.263-0.461-0.131-1.051,0.329-1.314l0,0c0.459-0.262,1.051-0.131,1.313,0.329l0,0c0.264,0.46,0.132,1.051-0.328,1.313l0,0
					c-0.131,0.066-0.328,0.131-0.525,0.131l0,0C1085.905,340.027,1085.577,339.896,1085.379,339.568z M1146.724,339.831
					c-0.461-0.263-0.592-0.854-0.329-1.313l0,0c0.263-0.46,0.854-0.591,1.314-0.328l0,0c0.459,0.263,0.591,0.854,0.327,1.313l0,0
					c-0.196,0.329-0.524,0.461-0.854,0.461l0,0C1147.052,339.963,1146.92,339.963,1146.724,339.831z M1083.54,336.087
					c-0.262-0.46,0-1.05,0.46-1.248l0,0c0.46-0.263,1.051,0,1.248,0.46l0,0c0.262,0.46,0,1.051-0.46,1.313l0,0
					c-0.131,0.066-0.263,0.066-0.394,0.066l0,0C1084.065,336.612,1083.672,336.416,1083.54,336.087z M1148.629,336.48
					c-0.461-0.196-0.724-0.787-0.461-1.247l0,0c0.197-0.46,0.789-0.723,1.314-0.46l0,0c0.459,0.197,0.722,0.788,0.459,1.248l0,0
					c-0.131,0.328-0.526,0.591-0.854,0.591l0,0C1148.891,336.547,1148.76,336.547,1148.629,336.48z M1082.03,332.409
					c-0.197-0.525,0.131-1.051,0.591-1.248l0,0c0.525-0.196,1.051,0.065,1.247,0.592l0,0c0.198,0.525-0.064,1.05-0.59,1.247l0,0
					c-0.132,0-0.197,0.066-0.328,0.066l0,0C1082.556,333.066,1082.161,332.802,1082.03,332.409z M1150.204,332.934
					c-0.525-0.196-0.788-0.723-0.591-1.248l0,0c0.131-0.525,0.723-0.788,1.248-0.591l0,0c0.525,0.196,0.788,0.722,0.591,1.248l0,0
					c-0.132,0.395-0.525,0.656-0.92,0.656l0,0C1150.401,333,1150.271,333,1150.204,332.934z M1080.979,328.599L1080.979,328.599
					L1080.979,328.599c-0.131-0.525,0.198-1.051,0.723-1.183l0,0c0.525-0.131,1.051,0.197,1.183,0.723l0,0
					c0.131,0.525-0.197,1.051-0.723,1.183l0,0c-0.065,0-0.131,0-0.197,0l0,0C1081.504,329.322,1081.109,329.059,1080.979,328.599z
					 M1151.32,329.257c-0.525-0.131-0.854-0.657-0.722-1.183l0,0c0.131-0.525,0.657-0.854,1.183-0.722l0,0
					c0.524,0.131,0.854,0.59,0.722,1.182l0,0c-0.065,0.46-0.525,0.723-0.919,0.723l0,0
					C1151.452,329.257,1151.387,329.257,1151.32,329.257z M1080.322,324.659c-0.066-0.525,0.329-0.985,0.854-1.052l0,0
					c0.524-0.064,0.984,0.329,1.05,0.854l0,0c0.066,0.525-0.328,0.985-0.854,1.051l0,0c0,0-0.065,0-0.132,0l0,0
					C1080.781,325.512,1080.388,325.184,1080.322,324.659z M1152.043,325.447c-0.525-0.065-0.919-0.525-0.854-1.051l0,0
					c0.066-0.525,0.526-0.92,1.052-0.854l0,0c0.525,0.064,0.92,0.525,0.854,1.05l0,0c-0.065,0.525-0.459,0.854-0.984,0.854l0,0
					H1152.043z M1080.125,320.718c0-0.525,0.459-0.985,0.984-0.985l0,0c0.526,0,0.985,0.46,0.985,0.985l0,0
					c0,0.526-0.459,0.985-0.985,0.985l0,0C1080.584,321.703,1080.125,321.244,1080.125,320.718z M1151.387,320.653v-0.066l0,0
					v-0.065l0,0c0-0.525,0.395-0.985,0.984-0.985l0,0c0.526,0,0.985,0.394,0.985,0.985l0,0v0.065l0,0v0.066l0,0
					c0,0.525-0.394,0.984-0.985,0.984l0,0C1151.781,321.637,1151.387,321.178,1151.387,320.653z M1151.387,320.521L1151.387,320.521
					L1151.387,320.521L1151.387,320.521L1151.387,320.521L1151.387,320.521z M1081.177,317.828
					c-0.526-0.065-0.921-0.525-0.854-1.051l0,0c0.065-0.525,0.525-0.919,1.051-0.854l0,0c0.525,0.066,0.919,0.525,0.854,1.051l0,0
					c-0.065,0.525-0.46,0.854-0.985,0.854l0,0C1081.241,317.828,1081.241,317.828,1081.177,317.828z M1151.124,316.777
					L1151.124,316.777c-0.066-0.525,0.328-0.985,0.854-1.051l0,0c0.525-0.065,0.985,0.328,1.051,0.854l0,0
					c0.065,0.525-0.329,0.985-0.854,1.052l0,0c-0.064,0-0.064,0-0.131,0l0,0C1151.649,317.632,1151.188,317.237,1151.124,316.777z
					 M1081.701,314.019c-0.524-0.132-0.854-0.656-0.723-1.182l0,0l0,0l0,0c0.131-0.526,0.657-0.854,1.183-0.724l0,0
					c0.525,0.131,0.854,0.656,0.723,1.183l0,0c-0.132,0.459-0.526,0.788-0.92,0.788l0,0
					C1081.833,314.019,1081.767,314.019,1081.701,314.019z M1150.532,313.034L1150.532,313.034
					c-0.131-0.525,0.198-1.051,0.724-1.182l0,0c0.525-0.132,1.05,0.196,1.182,0.722l0,0c0.131,0.525-0.197,1.051-0.723,1.182l0,0
					c-0.065,0-0.131,0-0.197,0l0,0C1151.058,313.822,1150.664,313.494,1150.532,313.034z M1082.621,310.275
					c-0.526-0.196-0.788-0.723-0.591-1.248l0,0c0.196-0.525,0.722-0.788,1.248-0.59l0,0c0.525,0.196,0.787,0.722,0.59,1.247l0,0
					c-0.131,0.395-0.524,0.657-0.918,0.657l0,0C1082.818,310.342,1082.687,310.275,1082.621,310.275z M1149.547,309.422
					c-0.196-0.525,0.132-1.052,0.592-1.248l0,0c0.525-0.197,1.05,0.065,1.248,0.591l0,0c0.197,0.525-0.066,1.052-0.592,1.248l0,0
					c-0.131,0.066-0.196,0.066-0.328,0.066l0,0C1150.008,310.079,1149.679,309.881,1149.547,309.422z M1083.935,306.663
					c-0.46-0.197-0.723-0.788-0.46-1.248l0,0l0,0l0,0c0.197-0.46,0.788-0.723,1.313-0.46l0,0c0.46,0.198,0.722,0.788,0.46,1.248l0,0
					c-0.132,0.329-0.525,0.592-0.854,0.592l0,0C1084.197,306.728,1084.065,306.728,1083.935,306.663z M1148.103,306.007
					c-0.197-0.46,0-1.052,0.46-1.314l0,0c0.459-0.196,1.051,0,1.313,0.461l0,0c0.196,0.459,0,1.05-0.461,1.313l0,0
					c-0.131,0.066-0.262,0.066-0.394,0.066l0,0C1148.629,306.532,1148.3,306.335,1148.103,306.007z M1085.642,303.181
					c-0.459-0.263-0.591-0.853-0.328-1.313l0,0c0.264-0.461,0.854-0.592,1.313-0.329l0,0c0.46,0.263,0.592,0.854,0.329,1.314l0,0
					c-0.197,0.327-0.525,0.459-0.854,0.459l0,0C1085.971,303.312,1085.773,303.248,1085.642,303.181z M1146.33,302.657
					c-0.264-0.46-0.132-1.051,0.327-1.314l0,0c0.46-0.263,1.052-0.131,1.314,0.328l0,0c0.263,0.461,0.131,1.052-0.329,1.314l0,0
					c-0.131,0.131-0.328,0.131-0.525,0.131l0,0C1146.855,303.116,1146.526,302.985,1146.33,302.657z M1087.744,299.898
					c-0.46-0.328-0.526-0.92-0.198-1.38l0,0c0.329-0.394,0.92-0.525,1.38-0.196l0,0c0.461,0.328,0.525,0.92,0.197,1.379l0,0
					c-0.197,0.263-0.46,0.395-0.788,0.395l0,0C1088.072,300.095,1087.875,300.029,1087.744,299.898z M1144.228,299.57
					L1144.228,299.57c-0.328-0.395-0.263-1.052,0.197-1.38l0,0c0.459-0.328,1.051-0.263,1.379,0.196l0,0
					c0.328,0.461,0.263,1.052-0.196,1.38l0,0c-0.198,0.132-0.395,0.197-0.593,0.197l0,0
					C1144.688,299.964,1144.425,299.832,1144.228,299.57z M1090.108,296.943c-0.395-0.395-0.395-0.985-0.066-1.38l0,0
					c0.395-0.394,0.986-0.394,1.38-0.066l0,0c0.394,0.395,0.394,0.986,0.066,1.38l0,0c-0.197,0.197-0.46,0.328-0.723,0.328l0,0
					C1090.567,297.205,1090.305,297.074,1090.108,296.943z M1141.798,296.745c-0.395-0.394-0.329-0.985,0-1.379l0,0
					c0.394-0.395,0.984-0.328,1.379,0.065l0,0c0.395,0.395,0.328,0.985,0,1.38l0,0c-0.198,0.196-0.46,0.263-0.657,0.263l0,0
					C1142.257,297.008,1141.994,296.943,1141.798,296.745z M1092.867,294.184c-0.328-0.395-0.328-1.052,0.131-1.38l0,0
					c0.395-0.329,0.985-0.262,1.379,0.132l0,0c0.328,0.394,0.328,0.985-0.131,1.38l0,0c-0.197,0.131-0.395,0.262-0.657,0.262l0,0
					C1093.326,294.512,1093.063,294.381,1092.867,294.184z M1139.039,294.184c-0.394-0.329-0.46-0.92-0.131-1.38l0,0
					c0.328-0.394,0.985-0.46,1.379-0.131l0,0l0,0l0,0c0.394,0.328,0.46,0.985,0.132,1.379l0,0c-0.198,0.196-0.461,0.328-0.724,0.328
					l0,0C1139.499,294.381,1139.235,294.316,1139.039,294.184z M1095.822,291.754c-0.328-0.459-0.197-1.051,0.263-1.313l0,0
					c0.46-0.328,1.051-0.197,1.313,0.263l0,0c0.328,0.461,0.197,1.051-0.263,1.314l0,0c-0.196,0.131-0.328,0.196-0.525,0.196l0,0
					C1096.348,292.148,1096.02,292.017,1095.822,291.754z M1136.083,291.885L1136.083,291.885c-0.459-0.328-0.591-0.92-0.263-1.38
					l0,0c0.329-0.459,0.92-0.525,1.314-0.263l0,0l0,0l0,0c0.459,0.263,0.59,0.92,0.263,1.314l0,0
					c-0.198,0.262-0.525,0.393-0.788,0.393l0,0C1136.412,292.082,1136.215,292.017,1136.083,291.885z M1099.105,289.652
					c-0.262-0.46-0.064-1.051,0.395-1.313l0,0c0.46-0.263,1.052-0.065,1.313,0.395l0,0c0.264,0.459,0.065,1.051-0.394,1.313l0,0
					c-0.132,0.065-0.328,0.131-0.46,0.131l0,0C1099.631,290.177,1099.237,289.98,1099.105,289.652z M1132.865,289.98
					L1132.865,289.98c-0.46-0.263-0.656-0.854-0.395-1.313l0,0c0.264-0.46,0.854-0.656,1.313-0.394l0,0
					c0.46,0.263,0.657,0.854,0.395,1.313l0,0c-0.197,0.329-0.526,0.525-0.854,0.525l0,0
					C1133.128,290.047,1132.996,290.047,1132.865,289.98z M1102.521,287.944c-0.197-0.525,0.065-1.051,0.525-1.248l0,0
					c0.525-0.196,1.051,0.066,1.248,0.525l0,0c0.197,0.526-0.065,1.052-0.525,1.248l0,0c-0.131,0.066-0.263,0.066-0.329,0.066l0,0
					C1103.047,288.536,1102.719,288.339,1102.521,287.944z M1129.45,288.405L1129.45,288.405c-0.526-0.197-0.724-0.724-0.526-1.249
					l0,0c0.197-0.524,0.789-0.722,1.248-0.524l0,0c0.525,0.196,0.722,0.787,0.525,1.248l0,0c-0.131,0.394-0.525,0.59-0.919,0.59l0,0
					C1129.646,288.469,1129.582,288.469,1129.45,288.405z M1106.134,286.632c-0.131-0.525,0.131-1.052,0.657-1.183l0,0l0,0l0,0
					c0.524-0.132,1.05,0.132,1.182,0.657l0,0c0.132,0.525-0.132,1.05-0.657,1.181l0,0c-0.064,0-0.196,0.066-0.263,0.066l0,0
					C1106.66,287.287,1106.266,287.025,1106.134,286.632z M1125.903,287.221c-0.525-0.131-0.788-0.656-0.657-1.183l0,0
					c0.132-0.524,0.657-0.787,1.184-0.655l0,0l0,0l0,0c0.524,0.131,0.787,0.655,0.656,1.182l0,0c-0.132,0.46-0.526,0.722-0.92,0.722
					l0,0C1126.034,287.221,1125.969,287.221,1125.903,287.221z M1109.878,285.645c-0.065-0.524,0.262-1.051,0.788-1.116l0,0
					c0.525-0.065,1.05,0.263,1.116,0.788l0,0c0.065,0.525-0.263,1.051-0.789,1.117l0,0c-0.064,0-0.131,0-0.131,0l0,0
					C1110.403,286.5,1109.943,286.106,1109.878,285.645z M1122.226,286.434c-0.526-0.066-0.854-0.592-0.789-1.117l0,0
					c0.066-0.525,0.592-0.92,1.116-0.788l0,0c0.526,0.065,0.92,0.592,0.788,1.116l0,0c-0.064,0.461-0.459,0.789-0.984,0.789l0,0
					C1122.291,286.434,1122.291,286.434,1122.226,286.434z M1113.688,285.121c0-0.525,0.394-0.986,0.919-1.052l0,0
					c0.525,0,0.985,0.395,0.985,0.92l0,0c0,0.525-0.395,0.985-0.92,1.05l0,0h-0.065l0,0
					C1114.146,286.039,1113.752,285.645,1113.688,285.121z M1118.481,286.039c-0.525,0-0.92-0.459-0.92-1.05l0,0
					c0-0.525,0.46-0.92,1.052-0.92l0,0l0,0l0,0c0.525,0,0.918,0.46,0.918,0.985l0,0
					C1119.467,285.645,1119.072,286.039,1118.481,286.039L1118.481,286.039C1118.547,286.039,1118.481,286.039,1118.481,286.039z"/>
			</g>
			<g>
				<g>
					<path fill="#40C4FF" d="M970.441,357.235c-0.263,0-0.525-0.131-0.656-0.262c-0.197-0.198-0.263-0.461-0.263-0.657
						c0-0.263,0.131-0.525,0.263-0.657c0.328-0.394,0.985-0.394,1.379,0c0.197,0.197,0.262,0.395,0.262,0.657
						s-0.064,0.525-0.262,0.657C970.968,357.104,970.704,357.235,970.441,357.235z"/>
				</g>
				<g>
					<path fill="#40C4FF" d="M965.582,356.25c0-0.524,0.459-0.984,0.984-0.984l0,0c0.526,0,0.985,0.46,0.985,0.984l0,0
						c0,0.525-0.459,0.985-0.985,0.985l0,0C965.976,357.235,965.582,356.842,965.582,356.25z M961.641,356.25
						c0-0.524,0.46-0.984,0.985-0.984l0,0c0.525,0,0.985,0.46,0.985,0.984l0,0c0,0.525-0.46,0.985-0.985,0.985l0,0
						C962.101,357.235,961.641,356.842,961.641,356.25z M957.766,356.25c0-0.524,0.395-0.984,0.985-0.984l0,0
						c0.525,0,0.985,0.46,0.985,0.984l0,0c0,0.525-0.46,0.985-0.985,0.985l0,0C958.16,357.235,957.766,356.842,957.766,356.25z
						 M953.825,356.25c0-0.524,0.459-0.984,0.984-0.984l0,0c0.525,0,0.985,0.46,0.985,0.984l0,0c0,0.525-0.46,0.985-0.985,0.985l0,0
						C954.22,357.235,953.825,356.842,953.825,356.25z M949.884,356.25c0-0.524,0.461-0.984,0.985-0.984l0,0
						c0.525,0,0.985,0.46,0.985,0.984l0,0c0,0.525-0.46,0.985-0.985,0.985l0,0C950.345,357.235,949.884,356.842,949.884,356.25z
						 M945.943,356.25c0-0.524,0.46-0.984,0.985-0.984l0,0c0.525,0,0.985,0.46,0.985,0.984l0,0c0,0.525-0.46,0.985-0.985,0.985l0,0
						C946.403,357.235,945.943,356.842,945.943,356.25z M942.068,356.25c0-0.524,0.46-0.984,0.986-0.984l0,0
						c0.524,0,0.984,0.46,0.984,0.984l0,0c0,0.525-0.46,0.985-0.984,0.985l0,0C942.463,357.235,942.068,356.842,942.068,356.25z
						 M938.129,356.25c0-0.524,0.458-0.984,0.984-0.984l0,0c0.525,0,0.985,0.46,0.985,0.984l0,0c0,0.525-0.46,0.985-0.985,0.985l0,0
						C938.521,357.235,938.129,356.842,938.129,356.25z M934.188,356.25c0-0.524,0.394-0.984,0.985-0.984l0,0
						c0.525,0,0.984,0.46,0.984,0.984l0,0c0,0.525-0.459,0.985-0.984,0.985l0,0C934.646,357.235,934.188,356.842,934.188,356.25z
						 M930.246,356.25c0-0.524,0.46-0.984,0.985-0.984l0,0c0.525,0,0.985,0.46,0.985,0.984l0,0c0,0.525-0.46,0.985-0.985,0.985l0,0
						C930.706,357.235,930.246,356.842,930.246,356.25z M926.371,356.25c0-0.524,0.46-0.984,0.985-0.984l0,0
						c0.525,0,0.985,0.46,0.985,0.984l0,0c0,0.525-0.46,0.985-0.985,0.985l0,0C926.766,357.235,926.371,356.842,926.371,356.25z
						 M922.431,356.25c0-0.524,0.46-0.984,0.985-0.984l0,0c0.525,0,0.984,0.46,0.984,0.984l0,0c0,0.525-0.459,0.985-0.984,0.985l0,0
						C922.891,357.235,922.431,356.842,922.431,356.25z M918.489,356.25c0-0.524,0.461-0.984,0.986-0.984l0,0
						c0.524,0,0.985,0.46,0.985,0.984l0,0c0,0.525-0.461,0.985-0.985,0.985l0,0C918.95,357.235,918.489,356.842,918.489,356.25z
						 M914.614,356.25c0-0.524,0.46-0.984,0.985-0.984l0,0c0.526,0,0.985,0.46,0.985,0.984l0,0c0,0.525-0.459,0.985-0.985,0.985l0,0
						C915.009,357.235,914.614,356.842,914.614,356.25z M910.674,356.25c0-0.524,0.46-0.984,0.985-0.984l0,0
						c0.525,0,0.985,0.46,0.985,0.984l0,0c0,0.525-0.46,0.985-0.985,0.985l0,0C911.068,357.235,910.674,356.842,910.674,356.25z
						 M906.733,356.25c0-0.524,0.46-0.984,0.985-0.984l0,0c0.526,0,0.984,0.46,0.984,0.984l0,0c0,0.525-0.458,0.985-0.984,0.985l0,0
						C907.193,357.235,906.733,356.842,906.733,356.25z M902.793,356.25c0-0.524,0.459-0.984,0.984-0.984l0,0
						c0.526,0,0.985,0.46,0.985,0.984l0,0c0,0.525-0.459,0.985-0.985,0.985l0,0C903.252,357.235,902.793,356.842,902.793,356.25z
						 M898.918,356.25c0-0.524,0.46-0.984,0.985-0.984l0,0c0.525,0,0.984,0.46,0.984,0.984l0,0c0,0.525-0.459,0.985-0.984,0.985l0,0
						C899.313,357.235,898.918,356.842,898.918,356.25z M894.978,356.25c0-0.524,0.394-0.984,0.984-0.984l0,0
						c0.525,0,0.985,0.46,0.985,0.984l0,0c0,0.525-0.46,0.985-0.985,0.985l0,0C895.371,357.235,894.978,356.842,894.978,356.25z
						 M891.036,356.25c0-0.524,0.46-0.984,0.985-0.984l0,0c0.525,0,0.985,0.46,0.985,0.984l0,0c0,0.525-0.46,0.985-0.985,0.985l0,0
						C891.496,357.235,891.036,356.842,891.036,356.25z"/>
				</g>
				<g>
					<path fill="#40C4FF" d="M888.081,357.235c-0.263,0-0.525-0.131-0.657-0.262c-0.197-0.198-0.263-0.461-0.263-0.657
						c0-0.263,0.132-0.525,0.263-0.657c0.395-0.394,0.985-0.394,1.379,0c0.197,0.197,0.264,0.395,0.264,0.657
						s-0.132,0.525-0.264,0.657C888.605,357.104,888.344,357.235,888.081,357.235z"/>
				</g>
				<g>
					<path fill="#40C4FF" d="M889.592,353.689c-0.461-0.263-0.592-0.854-0.329-1.314l0,0c0.263-0.459,0.854-0.59,1.314-0.328l0,0
						c0.459,0.264,0.591,0.854,0.327,1.313l0,0c-0.196,0.329-0.525,0.46-0.854,0.46l0,0
						C889.92,353.82,889.724,353.82,889.592,353.689z M891.562,350.339c-0.459-0.263-0.657-0.853-0.328-1.313l0,0
						c0.263-0.461,0.854-0.592,1.313-0.329l0,0c0.46,0.263,0.592,0.854,0.329,1.314l0,0c-0.198,0.327-0.525,0.459-0.854,0.459l0,0
						C891.825,350.47,891.693,350.405,891.562,350.339z M893.467,346.924c-0.46-0.263-0.591-0.854-0.328-1.313l0,0
						c0.262-0.46,0.854-0.592,1.313-0.328l0,0c0.459,0.263,0.59,0.854,0.327,1.313l0,0c-0.196,0.328-0.524,0.46-0.854,0.46l0,0
						C893.795,347.055,893.663,346.989,893.467,346.924z M895.437,343.508c-0.459-0.262-0.657-0.853-0.328-1.313l0,0
						c0.263-0.46,0.854-0.591,1.313-0.329l0,0c0.46,0.263,0.591,0.854,0.329,1.314l0,0c-0.198,0.327-0.526,0.459-0.854,0.459l0,0
						C895.766,343.706,895.634,343.639,895.437,343.508z M897.407,340.159c-0.46-0.263-0.592-0.854-0.328-1.313l0,0
						c0.262-0.46,0.854-0.592,1.313-0.328l0,0c0.459,0.262,0.591,0.854,0.328,1.313l0,0c-0.197,0.328-0.526,0.46-0.854,0.46l0,0
						C897.735,340.291,897.538,340.224,897.407,340.159z M899.378,336.744c-0.46-0.264-0.591-0.854-0.328-1.313l0,0
						c0.263-0.46,0.854-0.592,1.313-0.329l0,0c0.46,0.264,0.657,0.854,0.329,1.314l0,0c-0.198,0.328-0.526,0.459-0.854,0.459l0,0
						C899.706,336.875,899.509,336.809,899.378,336.744z M901.348,333.328c-0.46-0.262-0.656-0.854-0.328-1.313l0,0
						c0.263-0.461,0.854-0.592,1.314-0.329l0,0c0.459,0.263,0.59,0.854,0.328,1.313l0,0c-0.197,0.328-0.526,0.46-0.854,0.46l0,0
						C901.677,333.46,901.479,333.46,901.348,333.328z M903.318,329.979c-0.46-0.263-0.592-0.854-0.329-1.314l0,0
						c0.263-0.459,0.854-0.591,1.314-0.328l0,0c0.459,0.263,0.657,0.854,0.328,1.313l0,0c-0.197,0.329-0.525,0.461-0.854,0.461l0,0
						C903.581,330.111,903.449,330.044,903.318,329.979z M905.223,326.563c-0.46-0.263-0.656-0.854-0.329-1.313l0,0
						c0.264-0.46,0.854-0.591,1.314-0.328l0,0c0.46,0.263,0.591,0.854,0.328,1.313l0,0c-0.196,0.328-0.525,0.46-0.854,0.46l0,0
						C905.551,326.695,905.42,326.629,905.223,326.563z M907.193,323.148c-0.46-0.263-0.591-0.854-0.328-1.314l0,0
						c0.263-0.459,0.854-0.59,1.313-0.327l0,0c0.461,0.263,0.657,0.853,0.329,1.313l0,0c-0.197,0.328-0.525,0.46-0.854,0.46l0,0
						C907.521,323.344,907.391,323.28,907.193,323.148z M909.163,319.799c-0.46-0.263-0.591-0.854-0.328-1.313l0,0
						c0.263-0.459,0.854-0.591,1.314-0.328l0,0c0.459,0.262,0.591,0.854,0.328,1.313l0,0c-0.197,0.328-0.526,0.459-0.854,0.459l0,0
						C909.492,319.929,909.295,319.864,909.163,319.799z M911.134,316.384c-0.46-0.263-0.656-0.854-0.329-1.313l0,0
						c0.264-0.46,0.854-0.591,1.314-0.328l0,0c0.459,0.263,0.591,0.854,0.328,1.313l0,0c-0.196,0.329-0.525,0.461-0.854,0.461l0,0
						C911.462,316.515,911.266,316.515,911.134,316.384z M913.104,313.034c-0.459-0.264-0.59-0.854-0.327-1.313l0,0
						c0.263-0.46,0.854-0.592,1.313-0.329l0,0c0.461,0.263,0.657,0.854,0.329,1.314l0,0c-0.197,0.328-0.525,0.46-0.854,0.46l0,0
						C913.433,313.099,913.235,313.099,913.104,313.034z M915.074,309.618c-0.46-0.263-0.656-0.854-0.328-1.313l0,0
						c0.263-0.461,0.854-0.592,1.313-0.329l0,0c0.46,0.263,0.592,0.854,0.328,1.313l0,0c-0.196,0.328-0.525,0.46-0.854,0.46l0,0
						C915.403,309.75,915.206,309.684,915.074,309.618z M917.045,306.203c-0.46-0.263-0.59-0.854-0.328-1.313l0,0
						c0.263-0.46,0.854-0.591,1.313-0.329l0,0c0.459,0.264,0.657,0.854,0.328,1.314l0,0c-0.197,0.328-0.524,0.46-0.854,0.46l0,0
						C917.308,306.335,917.177,306.335,917.045,306.203z M918.95,302.854c-0.461-0.264-0.592-0.854-0.329-1.314l0,0
						c0.263-0.46,0.854-0.591,1.314-0.328l0,0c0.459,0.263,0.59,0.854,0.327,1.314l0,0c-0.196,0.328-0.524,0.459-0.854,0.459l0,0
						C919.278,302.985,919.146,302.919,918.95,302.854z M920.92,299.438c-0.459-0.263-0.657-0.854-0.328-1.313l0,0
						c0.263-0.46,0.854-0.592,1.313-0.328l0,0c0.46,0.262,0.591,0.854,0.329,1.313l0,0c-0.198,0.328-0.525,0.46-0.854,0.46l0,0
						C921.248,299.57,921.117,299.505,920.92,299.438z M922.891,296.023c-0.46-0.263-0.592-0.854-0.328-1.313l0,0
						c0.262-0.461,0.854-0.591,1.313-0.329l0,0c0.46,0.264,0.656,0.854,0.328,1.314l0,0c-0.196,0.328-0.525,0.459-0.854,0.459l0,0
						C923.219,296.154,923.021,296.154,922.891,296.023z M924.861,292.674c-0.461-0.263-0.592-0.854-0.329-1.313l0,0
						c0.262-0.46,0.854-0.592,1.313-0.328l0,0c0.46,0.263,0.591,0.854,0.328,1.313l0,0c-0.196,0.329-0.524,0.461-0.854,0.461l0,0
						C925.189,292.804,924.992,292.739,924.861,292.674z M926.831,289.259c-0.46-0.264-0.591-0.854-0.328-1.314l0,0
						c0.263-0.459,0.854-0.591,1.313-0.328l0,0c0.46,0.263,0.656,0.854,0.329,1.313l0,0c-0.198,0.329-0.526,0.461-0.854,0.461l0,0
						C927.16,289.39,926.963,289.323,926.831,289.259z"/>
				</g>
				<g>
					<path fill="#40C4FF" d="M929.262,285.974c-0.264,0-0.526-0.132-0.657-0.263c-0.197-0.197-0.263-0.46-0.263-0.657
						c0-0.263,0.131-0.525,0.263-0.657c0.329-0.394,0.985-0.394,1.379,0c0.197,0.197,0.263,0.395,0.263,0.657
						s-0.065,0.525-0.263,0.657C929.787,285.908,929.523,285.974,929.262,285.974z"/>
				</g>
				<g>
					<path fill="#40C4FF" d="M967.684,353.36c-0.264-0.46-0.132-1.05,0.328-1.313l0,0c0.46-0.262,1.051-0.131,1.313,0.328l0,0
						c0.263,0.46,0.131,1.052-0.328,1.314l0,0c-0.131,0.065-0.329,0.131-0.46,0.131l0,0
						C968.143,353.82,967.814,353.689,967.684,353.36z M965.714,349.944c-0.264-0.458-0.132-1.05,0.327-1.313l0,0
						c0.46-0.263,1.052-0.131,1.314,0.328l0,0c0.263,0.46,0.131,1.052-0.329,1.313l0,0c-0.132,0.065-0.328,0.132-0.46,0.132l0,0
						C966.172,350.47,965.91,350.273,965.714,349.944z M963.742,346.595c-0.263-0.459-0.131-1.051,0.329-1.313l0,0
						c0.459-0.264,1.05-0.132,1.313,0.328l0,0c0.262,0.46,0.131,1.051-0.328,1.313l0,0c-0.132,0.065-0.328,0.132-0.46,0.132l0,0
						C964.268,347.055,963.939,346.859,963.742,346.595z M961.772,343.18c-0.263-0.46-0.132-1.052,0.328-1.314l0,0
						c0.46-0.262,1.051-0.131,1.313,0.329l0,0c0.263,0.46,0.131,1.051-0.328,1.313l0,0c-0.131,0.067-0.328,0.132-0.46,0.132l0,0
						C962.298,343.706,961.969,343.508,961.772,343.18z M959.803,339.764c-0.264-0.459-0.132-1.051,0.328-1.313l0,0
						c0.459-0.263,1.051-0.131,1.313,0.327l0,0c0.263,0.46,0.131,1.052-0.329,1.314l0,0c-0.131,0.065-0.328,0.131-0.459,0.131l0,0
						C960.327,340.291,959.999,340.094,959.803,339.764z M957.831,336.416c-0.263-0.461-0.131-1.051,0.329-1.314l0,0
						c0.459-0.263,1.05-0.131,1.313,0.329l0,0c0.263,0.46,0.131,1.05-0.328,1.313l0,0c-0.132,0.065-0.329,0.131-0.46,0.131l0,0
						C958.356,336.875,958.029,336.678,957.831,336.416z M955.861,333c-0.263-0.46-0.132-1.051,0.328-1.313l0,0
						c0.46-0.263,1.051-0.132,1.314,0.329l0,0c0.262,0.459,0.13,1.051-0.329,1.313l0,0c-0.132,0.066-0.328,0.132-0.46,0.132l0,0
						C956.387,333.46,956.058,333.328,955.861,333z M953.956,329.585c-0.263-0.459-0.131-1.051,0.328-1.314l0,0
						c0.461-0.262,1.051-0.131,1.314,0.329l0,0c0.263,0.46,0.131,1.051-0.328,1.313l0,0c-0.132,0.066-0.329,0.131-0.461,0.131l0,0
						C954.416,330.111,954.088,329.913,953.956,329.585z M951.986,326.235c-0.263-0.46-0.132-1.051,0.328-1.313l0,0
						c0.46-0.263,1.051-0.132,1.313,0.328l0,0c0.263,0.46,0.132,1.051-0.328,1.313l0,0c-0.132,0.065-0.328,0.132-0.46,0.132l0,0
						C952.446,326.695,952.118,326.498,951.986,326.235z M950.016,322.82c-0.264-0.461-0.132-1.051,0.329-1.313l0,0
						c0.459-0.263,1.05-0.132,1.313,0.327l0,0c0.264,0.461,0.132,1.052-0.328,1.314l0,0c-0.131,0.065-0.329,0.132-0.46,0.132l0,0
						C950.541,323.344,950.213,323.148,950.016,322.82z M948.046,319.405c-0.264-0.46-0.132-1.052,0.327-1.314l0,0
						c0.461-0.263,1.051-0.131,1.314,0.328l0,0c0.263,0.46,0.132,1.052-0.328,1.313l0,0c-0.132,0.066-0.329,0.132-0.461,0.132l0,0
						C948.571,319.929,948.242,319.732,948.046,319.405z M946.075,316.054c-0.263-0.459-0.132-1.05,0.328-1.313l0,0
						c0.46-0.263,1.051-0.132,1.313,0.328l0,0c0.263,0.459,0.131,1.051-0.328,1.313l0,0c-0.132,0.065-0.328,0.132-0.46,0.132l0,0
						C946.6,316.515,946.271,316.384,946.075,316.054z M944.104,312.639c-0.263-0.46-0.132-1.05,0.329-1.313l0,0
						c0.459-0.262,1.05-0.131,1.313,0.328l0,0c0.264,0.46,0.132,1.052-0.328,1.314l0,0c-0.131,0.065-0.328,0.131-0.46,0.131l0,0
						C944.63,313.099,944.302,312.969,944.104,312.639z M942.135,309.223c-0.264-0.459-0.132-1.05,0.328-1.313l0,0
						c0.46-0.263,1.051-0.131,1.313,0.328l0,0c0.263,0.46,0.132,1.051-0.329,1.313l0,0c-0.131,0.065-0.328,0.132-0.459,0.132l0,0
						C942.66,309.75,942.331,309.552,942.135,309.223z M940.164,305.875c-0.263-0.46-0.131-1.051,0.328-1.314l0,0
						c0.46-0.262,1.051-0.131,1.313,0.329l0,0c0.263,0.46,0.131,1.051-0.328,1.313l0,0c-0.132,0.066-0.328,0.132-0.46,0.132l0,0
						C940.688,306.335,940.361,306.203,940.164,305.875z M938.26,302.459c-0.263-0.459-0.131-1.051,0.327-1.313l0,0
						c0.46-0.262,1.052-0.131,1.314,0.329l0,0c0.263,0.459,0.132,1.052-0.329,1.313l0,0c-0.131,0.066-0.328,0.131-0.459,0.131l0,0
						C938.719,302.985,938.391,302.788,938.26,302.459z M936.288,299.11c-0.262-0.46-0.131-1.052,0.329-1.313l0,0
						c0.46-0.264,1.051-0.132,1.313,0.328l0,0c0.263,0.46,0.131,1.051-0.328,1.313l0,0c-0.131,0.066-0.329,0.132-0.46,0.132l0,0
						C936.749,299.57,936.42,299.373,936.288,299.11z M934.318,295.695c-0.263-0.461-0.131-1.051,0.328-1.314l0,0
						c0.461-0.262,1.052-0.132,1.313,0.329l0,0c0.264,0.46,0.132,1.051-0.328,1.313l0,0c-0.131,0.066-0.328,0.131-0.459,0.131l0,0
						C934.778,296.154,934.45,296.023,934.318,295.695z M932.348,292.279c-0.262-0.46-0.131-1.051,0.329-1.313l0,0
						c0.459-0.263,1.051-0.132,1.313,0.329l0,0c0.263,0.459,0.131,1.05-0.329,1.313l0,0c-0.131,0.066-0.328,0.132-0.459,0.132l0,0
						C932.874,292.804,932.546,292.607,932.348,292.279z M930.377,288.929c-0.262-0.46-0.131-1.051,0.329-1.313l0,0
						c0.46-0.263,1.051-0.131,1.313,0.328l0,0c0.263,0.461,0.132,1.051-0.328,1.314l0,0c-0.131,0.064-0.329,0.132-0.46,0.132l0,0
						C930.903,289.39,930.575,289.192,930.377,288.929z"/>
				</g>
			</g>
			<g>
				<g>
					<path fill="#40C4FF" d="M1060.421,285.974c-0.263,0-0.524-0.132-0.656-0.263c-0.197-0.197-0.262-0.46-0.262-0.657
						c0-0.263,0.13-0.525,0.262-0.657c0.328-0.394,0.985-0.394,1.38,0c0.196,0.197,0.263,0.395,0.263,0.657
						s-0.132,0.525-0.263,0.657C1060.881,285.908,1060.684,285.974,1060.421,285.974z"/>
				</g>
				<g>
					<path fill="#40C4FF" d="M1105.806,285.054c0-0.525,0.459-0.985,0.985-0.985l0,0c0.524,0,0.985,0.395,0.985,0.985l0,0
						c0,0.525-0.461,0.984-0.985,0.984l0,0C1106.199,285.974,1105.806,285.58,1105.806,285.054z M1101.93,285.054
						c0-0.525,0.46-0.985,0.985-0.985l0,0c0.526,0,0.985,0.395,0.985,0.985l0,0c0,0.525-0.459,0.984-0.985,0.984l0,0
						C1102.39,285.974,1101.93,285.58,1101.93,285.054z M1098.056,285.054c0-0.525,0.459-0.985,0.985-0.985l0,0
						c0.525,0,0.984,0.395,0.984,0.985l0,0c0,0.525-0.459,0.984-0.984,0.984l0,0C1098.515,285.974,1098.056,285.58,1098.056,285.054
						z M1094.181,285.054c0-0.525,0.46-0.985,0.985-0.985l0,0c0.525,0,0.984,0.395,0.984,0.985l0,0c0,0.525-0.459,0.984-0.984,0.984
						l0,0C1094.641,285.974,1094.181,285.58,1094.181,285.054z M1090.371,285.054c0-0.525,0.459-0.985,0.985-0.985l0,0
						c0.525,0,0.985,0.395,0.985,0.985l0,0c0,0.525-0.396,0.984-0.985,0.984l0,0C1090.766,285.974,1090.371,285.58,1090.371,285.054
						z M1086.496,285.054c0-0.525,0.46-0.985,0.985-0.985l0,0c0.525,0,0.984,0.395,0.984,0.985l0,0c0,0.525-0.459,0.984-0.984,0.984
						l0,0C1086.89,285.974,1086.496,285.58,1086.496,285.054z M1082.621,285.054c0-0.525,0.46-0.985,0.984-0.985l0,0
						c0.526,0,0.986,0.395,0.986,0.985l0,0c0,0.525-0.46,0.984-0.986,0.984l0,0C1083.081,285.974,1082.621,285.58,1082.621,285.054z
						 M1078.746,285.054c0-0.525,0.459-0.985,0.984-0.985l0,0c0.525,0,0.985,0.395,0.985,0.985l0,0c0,0.525-0.46,0.984-0.985,0.984
						l0,0C1079.205,285.974,1078.746,285.58,1078.746,285.054z M1074.871,285.054c0-0.525,0.459-0.985,0.984-0.985l0,0
						c0.526,0,0.985,0.395,0.985,0.985l0,0c0,0.525-0.459,0.984-0.985,0.984l0,0C1075.33,285.974,1074.871,285.58,1074.871,285.054z
						 M1071.062,285.054c0-0.525,0.459-0.985,0.984-0.985l0,0c0.526,0,0.985,0.395,0.985,0.985l0,0c0,0.525-0.459,0.984-0.985,0.984
						l0,0C1071.456,285.974,1071.062,285.58,1071.062,285.054z M1067.187,285.054c0-0.525,0.459-0.985,0.985-0.985l0,0
						c0.525,0,0.985,0.395,0.985,0.985l0,0c0,0.525-0.46,0.984-0.985,0.984l0,0C1067.581,285.974,1067.187,285.58,1067.187,285.054z
						 M1063.311,285.054c0-0.525,0.461-0.985,0.986-0.985l0,0c0.525,0,0.985,0.395,0.985,0.985l0,0c0,0.525-0.46,0.984-0.985,0.984
						l0,0C1063.705,285.974,1063.311,285.58,1063.311,285.054z"/>
				</g>
				<g>
					<path fill="#40C4FF" d="M1110.6,285.974c-0.263,0-0.525-0.132-0.656-0.263c-0.197-0.197-0.263-0.46-0.263-0.657
						c0-0.263,0.132-0.525,0.263-0.657c0.328-0.394,0.985-0.394,1.379,0c0.197,0.197,0.263,0.395,0.263,0.657
						s-0.131,0.525-0.263,0.657C1111.125,285.908,1110.862,285.974,1110.6,285.974z"/>
				</g>
			</g>
			<g>
				<g>
					<path fill="#40C4FF" d="M1110.6,357.235c-0.263,0-0.525-0.131-0.656-0.262c-0.197-0.198-0.263-0.461-0.263-0.657
						c0-0.263,0.132-0.525,0.263-0.657c0.328-0.394,0.985-0.394,1.379,0c0.197,0.197,0.263,0.395,0.263,0.657
						s-0.131,0.525-0.263,0.657C1111.125,357.104,1110.862,357.235,1110.6,357.235z"/>
				</g>
				<g>
					<path fill="#40C4FF" d="M1105.806,356.25c0-0.524,0.459-0.984,0.985-0.984l0,0c0.524,0,0.985,0.46,0.985,0.984l0,0
						c0,0.525-0.461,0.985-0.985,0.985l0,0C1106.199,357.235,1105.806,356.842,1105.806,356.25z M1101.93,356.25
						c0-0.524,0.46-0.984,0.985-0.984l0,0c0.526,0,0.985,0.46,0.985,0.984l0,0c0,0.525-0.459,0.985-0.985,0.985l0,0
						C1102.39,357.235,1101.93,356.842,1101.93,356.25z M1098.056,356.25c0-0.524,0.459-0.984,0.985-0.984l0,0
						c0.525,0,0.984,0.46,0.984,0.984l0,0c0,0.525-0.459,0.985-0.984,0.985l0,0C1098.515,357.235,1098.056,356.842,1098.056,356.25z
						 M1094.181,356.25c0-0.524,0.46-0.984,0.985-0.984l0,0c0.525,0,0.984,0.46,0.984,0.984l0,0c0,0.525-0.459,0.985-0.984,0.985
						l0,0C1094.641,357.235,1094.181,356.842,1094.181,356.25z M1090.371,356.25c0-0.524,0.459-0.984,0.985-0.984l0,0
						c0.525,0,0.985,0.46,0.985,0.984l0,0c0,0.525-0.46,0.985-0.985,0.985l0,0C1090.766,357.235,1090.371,356.842,1090.371,356.25z
						 M1086.496,356.25c0-0.524,0.46-0.984,0.985-0.984l0,0c0.525,0,0.984,0.46,0.984,0.984l0,0c0,0.525-0.459,0.985-0.984,0.985
						l0,0C1086.89,357.235,1086.496,356.842,1086.496,356.25z M1082.621,356.25c0-0.524,0.46-0.984,0.984-0.984l0,0
						c0.526,0,0.986,0.46,0.986,0.984l0,0c0,0.525-0.46,0.985-0.986,0.985l0,0C1083.081,357.235,1082.621,356.842,1082.621,356.25z
						 M1078.746,356.25c0-0.524,0.459-0.984,0.984-0.984l0,0c0.525,0,0.985,0.46,0.985,0.984l0,0c0,0.525-0.46,0.985-0.985,0.985
						l0,0C1079.205,357.235,1078.746,356.842,1078.746,356.25z M1074.871,356.25c0-0.524,0.459-0.984,0.984-0.984l0,0
						c0.526,0,0.985,0.46,0.985,0.984l0,0c0,0.525-0.459,0.985-0.985,0.985l0,0C1075.33,357.235,1074.871,356.842,1074.871,356.25z
						 M1071.062,356.25c0-0.524,0.459-0.984,0.984-0.984l0,0c0.526,0,0.985,0.46,0.985,0.984l0,0c0,0.525-0.459,0.985-0.985,0.985
						l0,0C1071.456,357.235,1071.062,356.842,1071.062,356.25z M1067.187,356.25c0-0.524,0.459-0.984,0.985-0.984l0,0
						c0.525,0,0.985,0.46,0.985,0.984l0,0c0,0.525-0.46,0.985-0.985,0.985l0,0C1067.581,357.235,1067.187,356.842,1067.187,356.25z
						 M1063.311,356.25c0-0.524,0.461-0.984,0.986-0.984l0,0c0.525,0,0.985,0.46,0.985,0.984l0,0c0,0.525-0.46,0.985-0.985,0.985
						l0,0C1063.705,357.235,1063.311,356.842,1063.311,356.25z"/>
				</g>
				<g>
					<path fill="#40C4FF" d="M1060.421,357.235c-0.263,0-0.524-0.131-0.656-0.262c-0.197-0.198-0.262-0.461-0.262-0.657
						c0-0.263,0.13-0.525,0.262-0.657c0.328-0.394,0.985-0.394,1.38,0c0.196,0.197,0.263,0.395,0.263,0.657
						s-0.132,0.525-0.263,0.657C1060.881,357.104,1060.684,357.235,1060.421,357.235z"/>
				</g>
			</g>
			<g>
				<g>
					<path fill="#40C4FF" d="M989.16,285.974c-0.263,0-0.525-0.132-0.657-0.263c-0.196-0.197-0.262-0.46-0.262-0.657
						c0-0.263,0.131-0.525,0.262-0.657c0.328-0.394,0.985-0.394,1.38,0c0.196,0.197,0.263,0.395,0.263,0.657
						s-0.131,0.525-0.263,0.657C989.686,285.908,989.423,285.974,989.16,285.974z"/>
				</g>
				<g>
					<path fill="#40C4FF" d="M984.168,285.054c0-0.525,0.461-0.985,0.986-0.985l0,0c0.524,0,0.985,0.395,0.985,0.985l0,0
						c0,0.525-0.461,0.984-0.985,0.984l0,0C984.629,285.974,984.168,285.58,984.168,285.054z M980.229,285.054
						c0-0.525,0.459-0.985,0.984-0.985l0,0c0.525,0,0.985,0.395,0.985,0.985l0,0c0,0.525-0.46,0.984-0.985,0.984l0,0
						C980.621,285.974,980.229,285.58,980.229,285.054z M976.222,285.054c0-0.525,0.46-0.985,0.985-0.985l0,0
						c0.524,0,0.985,0.395,0.985,0.985l0,0c0,0.525-0.461,0.984-0.985,0.984l0,0C976.615,285.974,976.222,285.58,976.222,285.054z
						 M972.215,285.054c0-0.525,0.46-0.985,0.985-0.985l0,0c0.525,0,0.985,0.395,0.985,0.985l0,0c0,0.525-0.46,0.984-0.985,0.984
						l0,0C972.675,285.974,972.215,285.58,972.215,285.054z M968.209,285.054c0-0.525,0.459-0.985,0.985-0.985l0,0
						c0.525,0,0.984,0.395,0.984,0.985l0,0c0,0.525-0.459,0.984-0.984,0.984l0,0C968.668,285.974,968.209,285.58,968.209,285.054z
						 M964.268,285.054c0-0.525,0.46-0.985,0.985-0.985l0,0c0.525,0,0.985,0.395,0.985,0.985l0,0c0,0.525-0.46,0.984-0.985,0.984
						l0,0C964.662,285.974,964.268,285.58,964.268,285.054z M960.262,285.054c0-0.525,0.459-0.985,0.984-0.985l0,0
						c0.526,0,0.985,0.395,0.985,0.985l0,0c0,0.525-0.459,0.984-0.985,0.984l0,0C960.656,285.974,960.262,285.58,960.262,285.054z
						 M956.256,285.054c0-0.525,0.459-0.985,0.984-0.985l0,0c0.525,0,0.985,0.395,0.985,0.985l0,0c0,0.525-0.46,0.984-0.985,0.984
						l0,0C956.715,285.974,956.256,285.58,956.256,285.054z M952.249,285.054c0-0.525,0.459-0.985,0.985-0.985l0,0
						c0.525,0,0.985,0.395,0.985,0.985l0,0c0,0.525-0.46,0.984-0.985,0.984l0,0C952.708,285.974,952.249,285.58,952.249,285.054z
						 M948.242,285.054c0-0.525,0.46-0.985,0.985-0.985l0,0c0.524,0,0.985,0.395,0.985,0.985l0,0c0,0.525-0.461,0.984-0.985,0.984
						l0,0C948.702,285.974,948.242,285.58,948.242,285.054z M944.302,285.054c0-0.525,0.46-0.985,0.985-0.985l0,0
						c0.525,0,0.984,0.395,0.984,0.985l0,0c0,0.525-0.459,0.984-0.984,0.984l0,0C944.695,285.974,944.302,285.58,944.302,285.054z
						 M940.295,285.054c0-0.525,0.461-0.985,0.986-0.985l0,0c0.524,0,0.984,0.395,0.984,0.985l0,0c0,0.525-0.46,0.984-0.984,0.984
						l0,0C940.688,285.974,940.295,285.58,940.295,285.054z M936.288,285.054c0-0.525,0.461-0.985,0.985-0.985l0,0
						c0.526,0,0.986,0.395,0.986,0.985l0,0c0,0.525-0.46,0.984-0.986,0.984l0,0C936.749,285.974,936.288,285.58,936.288,285.054z
						 M932.282,285.054c0-0.525,0.395-0.985,0.985-0.985l0,0c0.525,0,0.985,0.395,0.985,0.985l0,0c0,0.525-0.46,0.984-0.985,0.984
						l0,0C932.742,285.974,932.282,285.58,932.282,285.054z"/>
				</g>
				<g>
					<path fill="#40C4FF" d="M929.262,285.974c-0.264,0-0.526-0.132-0.657-0.263c-0.197-0.197-0.263-0.46-0.263-0.657
						c0-0.263,0.065-0.525,0.263-0.657c0.329-0.394,0.985-0.394,1.379,0c0.197,0.197,0.263,0.395,0.263,0.657
						s-0.131,0.525-0.263,0.657C929.787,285.908,929.523,285.974,929.262,285.974z"/>
				</g>
			</g>
			<g>
				<g>
					<path fill="#40C4FF" d="M970.441,357.235c-0.263,0-0.525-0.131-0.656-0.262c-0.197-0.198-0.263-0.461-0.263-0.657
						c0-0.263,0.131-0.525,0.263-0.657c0.328-0.394,0.985-0.394,1.379,0c0.197,0.197,0.262,0.395,0.262,0.657
						s-0.064,0.525-0.262,0.657C970.968,357.104,970.704,357.235,970.441,357.235z"/>
				</g>
				<g>
					<path fill="#40C4FF" d="M984.432,356.25c0-0.524,0.46-0.984,0.984-0.984l0,0c0.525,0,0.986,0.46,0.986,0.984l0,0
						c0,0.525-0.461,0.985-0.986,0.985l0,0C984.892,357.235,984.432,356.842,984.432,356.25z M980.688,356.25
						c0-0.524,0.459-0.984,0.985-0.984l0,0c0.525,0,0.985,0.46,0.985,0.984l0,0c0,0.525-0.46,0.985-0.985,0.985l0,0
						C981.147,357.235,980.688,356.842,980.688,356.25z M976.944,356.25c0-0.524,0.46-0.984,0.985-0.984l0,0
						c0.525,0,0.984,0.46,0.984,0.984l0,0c0,0.525-0.459,0.985-0.984,0.985l0,0C977.404,357.235,976.944,356.842,976.944,356.25z
						 M973.2,356.25c0-0.524,0.46-0.984,0.985-0.984l0,0c0.525,0,0.985,0.46,0.985,0.984l0,0c0,0.525-0.46,0.985-0.985,0.985l0,0
						C973.66,357.235,973.2,356.842,973.2,356.25z"/>
				</g>
				<g>
					<path fill="#40C4FF" d="M989.16,357.235c-0.263,0-0.525-0.131-0.657-0.262c-0.196-0.198-0.262-0.461-0.262-0.657
						c0-0.263,0.131-0.525,0.262-0.657c0.328-0.394,0.985-0.394,1.38,0c0.196,0.197,0.263,0.395,0.263,0.657
						s-0.131,0.525-0.263,0.657C989.686,357.104,989.423,357.235,989.16,357.235z"/>
				</g>
			</g>
			<g>
				<path fill="#FF7043" d="M991.787,322.295c-0.394-3.152-1.183-4.072-3.874-4.204c-2.037-0.131-4.336,0.854-5.847,2.627
					c-0.459,0.526-0.854,1.116-1.051,1.709c-0.787,2.102,0.197,4.071,1.576,5.318c0.657,0.592,1.38,1.118,2.3,1.249
					C989.816,329.847,992.51,327.614,991.787,322.295z"/>
			</g>
			<g>
				<path fill="#FF7043" d="M1056.151,311.195c0.396-3.153,1.184-4.072,3.876-4.204c2.035-0.131,4.334,0.854,5.846,2.627
					c0.459,0.525,0.854,1.117,1.051,1.708c0.789,2.102-0.197,4.071-1.577,5.32c-0.656,0.591-1.379,1.116-2.298,1.248
					C1058.188,318.748,1055.43,316.515,1056.151,311.195z"/>
			</g>
		</g>
		<g>
			<path fill="#40C4FF" d="M1112.505,183.121c-28.111,0-50.901,16.814-50.901,37.503c0,20.688,22.79,37.502,50.901,37.502
				c28.11,0,50.9-16.814,50.9-37.502C1163.405,199.935,1140.615,183.121,1112.505,183.121z M1114.016,238.817
				c-0.46,0.525-1.183,0.722-2.102,0.722c-0.921,0-1.643-0.262-2.102-0.722c-0.46-0.526-0.724-1.116-0.724-1.905
				c0-0.788,0.264-1.379,0.724-1.904c0.459-0.525,1.182-0.788,2.102-0.788s1.642,0.263,2.102,0.788
				c0.459,0.525,0.722,1.183,0.722,1.904C1114.737,237.634,1114.475,238.291,1114.016,238.817z M1122.291,214.582
				c-0.329,0.985-0.854,1.97-1.444,2.89c-0.592,0.918-1.314,1.772-2.037,2.561c-0.788,0.789-1.575,1.577-2.364,2.365
				c-0.92,0.854-1.576,1.839-1.904,2.956c-0.328,1.116-0.46,2.232-0.46,3.546h-4.729c0-1.248,0.131-2.299,0.262-3.153
				c0.132-0.853,0.396-1.642,0.723-2.364c0.329-0.723,0.788-1.379,1.314-2.102c0.525-0.656,1.247-1.445,2.036-2.233
				c0.591-0.591,1.116-1.183,1.642-1.708c0.525-0.525,0.985-1.117,1.379-1.642c0.395-0.525,0.723-1.182,0.985-1.839
				s0.328-1.445,0.328-2.299c0-1.773-0.459-3.153-1.379-4.204c-0.919-0.985-2.299-1.51-4.072-1.51c-0.723,0-1.445,0.065-2.167,0.262
				c-0.722,0.198-1.314,0.526-1.84,0.919c-0.524,0.394-0.984,0.92-1.313,1.577c-0.329,0.657-0.46,1.379-0.46,2.299h-4.729
				c0-1.445,0.328-2.758,0.854-3.875c0.526-1.116,1.314-2.102,2.233-2.89c0.92-0.787,2.036-1.379,3.284-1.839
				c1.249-0.394,2.628-0.656,4.138-0.656c1.643,0,3.087,0.197,4.335,0.656c1.247,0.46,2.299,1.117,3.219,1.905
				c0.854,0.854,1.511,1.839,1.97,3.087c0.459,1.182,0.657,2.562,0.657,4.006C1122.815,212.546,1122.685,213.596,1122.291,214.582z"
				/>
		</g>
	</g>
	<g>
		<g>
			<g>
				<rect x="611.508" y="163.944" width="224.161" height="154.607"/>
			</g>
		</g>
		<g>
			<rect x="611.508" y="318.551" fill="#FF5722" width="223.701" height="8.21"/>
		</g>
		<g>
			<g>
				<path fill="#FF5722" d="M640.473,417.528c-0.395,0-0.657-0.262-0.657-0.657v-90.11c0-0.395,0.263-0.656,0.657-0.656
					c0.394,0,0.656,0.262,0.656,0.656v90.11C641.129,417.266,640.866,417.528,640.473,417.528z"/>
			</g>
			<g>
				<path fill="#FF5722" d="M659.848,417.528h-38.686c-0.394,0-0.657-0.262-0.657-0.657c0-0.394,0.263-0.655,0.657-0.655h38.686
					c0.393,0,0.656,0.262,0.656,0.655C660.504,417.266,660.176,417.528,659.848,417.528z"/>
			</g>
			<g>
				<circle cx="622.805" cy="425.87" r="3.547"/>
			</g>
			<g>
				<circle cx="658.206" cy="425.87" r="3.547"/>
			</g>
		</g>
		<g>
			<g>
				<path fill="#FF5722" d="M806.245,417.528c-0.395,0-0.657-0.262-0.657-0.657v-90.11c0-0.395,0.263-0.656,0.657-0.656
					s0.657,0.262,0.657,0.656v90.11C806.902,417.266,806.64,417.528,806.245,417.528z"/>
			</g>
			<g>
				<path fill="#FF5722" d="M825.555,417.528H786.87c-0.394,0-0.657-0.262-0.657-0.657c0-0.394,0.264-0.655,0.657-0.655h38.685
					c0.395,0,0.656,0.262,0.656,0.655C826.211,417.266,825.949,417.528,825.555,417.528z"/>
			</g>
			<g>
				<circle cx="788.512" cy="425.87" r="3.547"/>
			</g>
			<g>
				<circle cx="823.978" cy="425.87" r="3.547"/>
			</g>
		</g>
		<g>
			<g>
				<path fill="#FFFFFF" d="M722.308,231.133c-10.442,0-18.915-8.473-18.915-18.916c0-10.443,8.473-18.916,18.915-18.916
					c10.443,0,18.916,8.473,18.916,18.916C741.224,222.659,732.686,231.133,722.308,231.133z M722.308,194.352
					c-9.852,0-17.93,8.013-17.93,17.93c0,9.852,8.013,17.93,17.93,17.93c9.853,0,17.931-8.013,17.931-17.93
					C740.172,202.365,732.16,194.352,722.308,194.352z"/>
			</g>
			<g>
				<path fill="#FFFFFF" d="M699.583,287.55h-34.481v-34.48h34.481V287.55z M666.087,286.565h32.511v-32.512h-32.511V286.565z"/>
			</g>
			<g>
				<path fill="#FFFFFF" d="M782.47,287.55h-40.458l20.229-34.939L782.47,287.55z M743.72,286.565h37.042l-18.521-32.052
					L743.72,286.565z"/>
			</g>
		</g>
	</g>
	<rect x="289.945" y="125.127" fill="none" width="1050.858" height="342.843"/>
</g>
</svg>
