<?xml version="1.0" encoding="utf-8"?>
<!-- Generator: Adobe Illustrator 16.0.0, SVG Export Plug-In . SVG Version: 6.00 Build 0)  -->
<!DOCTYPE svg PUBLIC "-//W3C//DTD SVG 1.1//EN" "http://www.w3.org/Graphics/SVG/1.1/DTD/svg11.dtd">
<svg version="1.1"
	 id="svg2" inkscape:version="0.48.2 r9819" xmlns:inkscape="http://www.inkscape.org/namespaces/inkscape" xmlns:rdf="http://www.w3.org/1999/02/22-rdf-syntax-ns#" xmlns:cc="http://creativecommons.org/ns#" xmlns:sodipodi="http://sodipodi.sourceforge.net/DTD/sodipodi-0.dtd" xmlns:dc="http://purl.org/dc/elements/1.1/" xmlns:svg="http://www.w3.org/2000/svg" sodipodi:docname="Р СњР С•Р Р†Р С‘Р в„– Р Т‘Р С•Р С”РЎС“Р СР ВµР Р…РЎвЂљ 1"
	 xmlns="http://www.w3.org/2000/svg" xmlns:xlink="http://www.w3.org/1999/xlink" x="0px" y="0px" width="241.911px" height="60px"
	 viewBox="0 0 241.911 60" enable-background="new 0 0 241.911 60" xml:space="preserve">
<g id="Layer_9">
</g>
<g id="Layer_10">
</g>
<g id="Layer_11">
</g>
<g id="Layer_11_copy">
</g>
<g id="Layer_8_copy">
</g>
<g id="Layer_18">
</g>
<g id="Layer_19">
</g>
<g id="Layer_13">
</g>
<g id="Layer_15">
</g>
<g id="Layer_25">
</g>
<g id="Layer_26">
</g>
<g id="Layer_27">
</g>
<g id="Layer_28">
</g>
<g id="Layer_29">
</g>
<g id="Layer_30">
</g>
<g id="Layer_31">
</g>
<g id="Layer_32">
</g>
<g id="Layer_33">
</g>
<g id="Layer_34">
</g>
<g id="Layer_36">
</g>
<g id="Layer_35">
</g>
<g>
	<g id="g4210">
		<path id="path4212" inkscape:connector-curvature="0" fill="none" d="M14.964,37.487L5.983,52.144
			c-0.505,0.822-0.128,1.496,0.838,1.496h10.532c0.965,0,2.171-0.672,2.679-1.492l4.756-7.683L14.964,37.487L14.964,37.487z"/>
		<path id="path4214" inkscape:connector-curvature="0" fill="none" d="M28.02,23.561l-7.986-12.902
			c-0.509-0.82-1.714-1.493-2.68-1.493H6.821c-0.966,0-1.343,0.674-0.838,1.497L16.21,27.349l5.748-8.094L28.02,23.561L28.02,23.561
			z"/>
	</g>
	
		<linearGradient id="path4221_1_" gradientUnits="userSpaceOnUse" x1="2218.7837" y1="102.2646" x2="2230.2639" y2="109.4382" gradientTransform="matrix(1 0 0 1 -2207.8184 -61.1426)">
		<stop  offset="0.54" style="stop-color:#0A985C"/>
		<stop  offset="0.54" style="stop-color:#F6C25B"/>
	</linearGradient>
	<path id="path4221" inkscape:connector-curvature="0" fill="url(#path4221_1_)" d="M24.24,41.272
		c-0.875-1.469-2.994-5.245-4.58-8.059l-1.788-3.149c0.411,0.83,0.382,2.061-0.09,2.832L5.989,52.142
		c-0.504,0.821-0.127,1.497,0.839,1.497h10.531c0.965,0,2.171-0.673,2.68-1.493l4.764-7.692
		C24.701,44.593,25.365,43.163,24.24,41.272L24.24,41.272z"/>
	<g id="g4223">
		<path id="path4225" inkscape:connector-curvature="0" fill="none" d="M14.97,37.485L5.989,52.143
			c-0.504,0.822-0.126,1.496,0.839,1.496h10.532c0.966,0,2.171-0.672,2.68-1.492l4.758-7.684L14.97,37.485L14.97,37.485z"/>
		<path id="path4227" inkscape:connector-curvature="0" fill="none" d="M28.026,23.559l-7.987-12.903
			c-0.507-0.821-1.713-1.492-2.678-1.492H6.828c-0.966,0-1.343,0.674-0.839,1.497l10.227,16.688l5.75-8.094L28.026,23.559
			L28.026,23.559z"/>
		<path id="path4229" inkscape:connector-curvature="0" opacity="0.09" fill="#010101" enable-background="new    " d="
			M31.957,32.896c0.51-0.821,0.51-2.166,0.001-2.988l-3.93-6.35l-6.062-4.306l-5.75,8.095l1.567,2.556
			c0.505,0.823,0.505,2.17,0,2.994l-2.813,4.588l9.827,6.978L31.957,32.896L31.957,32.896z"/>
	</g>
	
		<linearGradient id="path4236_1_" gradientUnits="userSpaceOnUse" x1="2222.0962" y1="88.7803" x2="2233.8699" y2="81.4233" gradientTransform="matrix(1 0 0 1 -2207.8184 -61.1426)">
		<stop  offset="0.57" style="stop-color:#5586C5"/>
		<stop  offset="0.57" style="stop-color:#D9423E"/>
	</linearGradient>
	<path id="path4236" inkscape:connector-curvature="0" fill="url(#path4236_1_)" d="M31.955,29.912L20.039,10.659
		c-0.508-0.821-1.714-1.492-2.68-1.492H6.824c-0.965,0-1.341,0.673-0.837,1.497L17.78,29.907l1.881,3.308
		c1.584,2.813,3.705,6.589,4.579,8.059c1.315,2.213,0.183,3.792,0.692,2.97L31.955,32.9C32.463,32.078,32.463,30.734,31.955,29.912z
		 M17.794,29.93c0.012,0.021,0.027,0.042,0.042,0.07l0,0c0,0.002,0.001,0.002,0.003,0.005C17.823,29.976,17.808,29.952,17.794,29.93
		z M18.636,31.397c0.039,0.07,0.081,0.145,0.125,0.218C18.717,31.542,18.675,31.468,18.636,31.397z M18.625,31.369
		c0.065,0.115,0.133,0.233,0.201,0.355C18.757,31.602,18.689,31.483,18.625,31.369z">
		
			<namedview  bordercolor="#666666" borderopacity="1.0" current-layer="layer1" window-width="1280" window-height="712" showguides="true" pagecolor="#ffffff" window-x="-4" cy="885.96512" pageopacity="0.0" cx="1267.4286" window-y="-4" pageshadow="2" guide-bbox="true" document-units="px" showgrid="false" zoom="0.0875">
			<guide  id="guide5732" position="-3095.1074,2723.3713" orientation="0,1"></guide>
		</namedview>
	</path>
	<g enable-background="new    ">
		<path fill="#4E4E4E" d="M57.033,28.476h10.425v13.019c-2.832,0.97-5.942,1.454-9.335,1.454c-3.724,0-6.601-1.079-8.633-3.237
			c-2.031-2.159-3.047-5.238-3.047-9.236c0-3.9,1.111-6.934,3.337-9.104c2.225-2.169,5.342-3.254,9.351-3.254
			c1.521,0,2.955,0.143,4.305,0.43c1.35,0.287,2.525,0.65,3.528,1.09l-2.066,5.123c-1.74-0.859-3.651-1.29-5.733-1.29
			c-1.905,0-3.379,0.62-4.42,1.859c-1.04,1.239-1.561,3.011-1.561,5.312c0,2.259,0.471,3.979,1.414,5.163
			c0.941,1.186,2.299,1.776,4.071,1.776c0.97,0,1.862-0.093,2.677-0.28v-3.783h-4.312L57.033,28.476L57.033,28.476z"/>
		<path fill="#4E4E4E" d="M90.89,30.03c0,4.033-1.11,7.137-3.33,9.319c-2.219,2.183-5.34,3.271-9.36,3.271h-7.815V18.464h8.36
			c3.877,0,6.871,0.991,8.98,2.974C89.834,23.421,90.89,26.284,90.89,30.03z M84.114,30.261c0-2.214-0.438-3.855-1.313-4.924
			c-0.875-1.068-2.206-1.603-3.99-1.603h-1.9v13.532h1.454c1.983,0,3.438-0.575,4.363-1.728
			C83.653,34.389,84.114,32.629,84.114,30.261z"/>
		<path fill="#4E4E4E" d="M102.92,28.476h10.425v13.019c-2.831,0.97-5.943,1.454-9.335,1.454c-3.723,0-6.601-1.079-8.633-3.237
			c-2.032-2.159-3.048-5.238-3.048-9.236c0-3.9,1.113-6.934,3.337-9.104c2.225-2.169,5.343-3.254,9.351-3.254
			c1.521,0,2.955,0.143,4.306,0.43c1.349,0.287,2.524,0.65,3.527,1.09l-2.065,5.123c-1.74-0.859-3.651-1.29-5.733-1.29
			c-1.905,0-3.379,0.62-4.419,1.859c-1.04,1.239-1.561,3.011-1.561,5.312c0,2.259,0.471,3.979,1.412,5.163
			c0.941,1.186,2.299,1.776,4.072,1.776c0.97,0,1.862-0.093,2.677-0.28v-3.783h-4.312L102.92,28.476L102.92,28.476z"/>
	</g>
	<g>
		<path fill="#4E4E4E" d="M134.668,34.918h-7.578l-1.715,4.659h-2.496l6.994-18.088h2.1l6.881,18.088h-2.496L134.668,34.918z
			 M127.848,32.869h6.088l-2.982-8.237h-0.074L127.848,32.869z"/>
		<path fill="#4E4E4E" d="M143.786,31.738v7.839h-2.447V21.501h6.547c1.98,0,3.49,0.439,4.535,1.317
			c1.043,0.878,1.564,2.153,1.564,3.827c0,0.927-0.242,1.735-0.727,2.422c-0.484,0.687-1.189,1.234-2.119,1.639
			c0.994,0.323,1.709,0.846,2.145,1.572c0.434,0.725,0.652,1.621,0.652,2.688v1.701c0,0.564,0.063,1.069,0.186,1.517
			c0.125,0.448,0.34,0.812,0.645,1.093v0.299h-2.52c-0.324-0.281-0.531-0.695-0.621-1.242c-0.092-0.547-0.137-1.111-0.137-1.689
			v-1.652c0-0.978-0.287-1.764-0.857-2.36c-0.572-0.597-1.338-0.895-2.299-0.895H143.786z M143.786,29.813h3.852
			c1.383,0,2.379-0.264,2.988-0.788c0.607-0.525,0.912-1.325,0.912-2.399c0-1.017-0.295-1.802-0.889-2.362
			c-0.592-0.557-1.512-0.837-2.764-0.837h-4.1V29.813z"/>
		<path fill="#4E4E4E" d="M161.327,21.489l5.764,14.696h0.076l5.762-14.696h3.131v18.088h-2.447v-7.155l0.25-7.354l-0.063-0.012
			l-5.863,14.522h-1.627l-5.84-14.484l-0.063,0.011l0.236,7.318v7.155h-2.447V21.489H161.327z"/>
		<path fill="#4E4E4E" d="M191.278,31.191h-8.285v6.46h9.553v1.926h-12V21.489h11.863v1.926h-9.416v5.851h8.285V31.191z"/>
		<path fill="#4E4E4E" d="M209.092,39.577h-2.447l-8.707-13.988l-0.076,0.024v13.964h-2.447V21.489h2.447l8.709,13.964l0.074-0.026
			V21.489h2.447V39.577z"/>
		<path fill="#4E4E4E" d="M216.149,39.577h-2.461V21.489h2.461V39.577z"/>
		<path fill="#4E4E4E" d="M230.782,34.918h-7.578l-1.713,4.659h-2.498l6.994-18.088h2.1l6.883,18.088h-2.498L230.782,34.918z
			 M223.963,32.869h6.086l-2.98-8.237h-0.074L223.963,32.869z"/>
	</g>
</g>
</svg>
