<?xml version="1.0" encoding="utf-8"?>
<!-- Generator: Adobe Illustrator 16.0.0, SVG Export Plug-In . SVG Version: 6.00 Build 0)  -->
<!DOCTYPE svg PUBLIC "-//W3C//DTD SVG 1.1//EN" "http://www.w3.org/Graphics/SVG/1.1/DTD/svg11.dtd">
<svg version="1.1" id="Layer_1" xmlns="http://www.w3.org/2000/svg" xmlns:xlink="http://www.w3.org/1999/xlink" x="0px" y="0px"
	 width="170px" height="65px" viewBox="415 131.78 170 65" enable-background="new 415 131.78 170 65" xml:space="preserve">
<path fill="#4285F4" d="M458.329,158.319h-18.97v5.628h13.454c-0.665,7.895-7.232,11.261-13.431,11.261
	c-7.931,0-14.852-6.24-14.852-14.987c0-8.52,6.597-15.082,14.869-15.082c6.382,0,10.143,4.068,10.143,4.068l3.941-4.081
	c0,0-5.059-5.633-14.285-5.633c-11.749,0-20.838,9.917-20.838,20.627c0,10.496,8.55,20.729,21.137,20.729
	c11.071,0,19.175-7.584,19.175-18.799c0-2.366-0.344-3.733-0.344-3.733V158.319z"/>
<path fill="#EA4335" d="M473.869,154.243c-7.784,0-13.362,6.085-13.362,13.183c0,7.202,5.411,13.4,13.454,13.4
	c7.281,0,13.246-5.564,13.246-13.246C487.206,158.776,480.267,154.242,473.869,154.243L473.869,154.243z M473.946,159.463
	c3.828,0,7.456,3.095,7.456,8.081c0,4.881-3.612,8.064-7.473,8.064c-4.242,0-7.588-3.398-7.588-8.104
	C466.34,162.902,469.645,159.463,473.946,159.463L473.946,159.463z"/>
<path fill="#FBBC05" d="M502.93,154.243c-7.784,0-13.362,6.085-13.362,13.183c0,7.202,5.411,13.4,13.454,13.4
	c7.28,0,13.245-5.564,13.245-13.246C516.267,158.776,509.328,154.242,502.93,154.243L502.93,154.243z M503.007,159.463
	c3.828,0,7.455,3.095,7.455,8.081c0,4.881-3.611,8.064-7.473,8.064c-4.242,0-7.588-3.398-7.588-8.104
	C495.401,162.902,498.706,159.463,503.007,159.463L503.007,159.463z"/>
<path fill="#4285F4" d="M531.434,154.256c-7.145,0-12.761,6.258-12.761,13.281c0,8.001,6.512,13.306,12.638,13.306
	c3.788,0,5.803-1.503,7.29-3.229v2.621c0,4.586-2.784,7.332-6.987,7.332c-4.061,0-6.097-3.019-6.805-4.732l-5.107,2.136
	c1.812,3.832,5.46,7.828,11.954,7.828c7.104,0,12.519-4.475,12.519-13.858v-23.884h-5.573v2.252
	C536.887,155.461,534.544,154.257,531.434,154.256L531.434,154.256z M531.951,159.467c3.503,0,7.1,2.991,7.1,8.099
	c0,5.192-3.589,8.053-7.177,8.053c-3.81,0-7.354-3.092-7.354-8.003C524.521,162.512,528.201,159.467,531.951,159.467
	L531.951,159.467z"/>
<path fill="#EA4335" d="M568.952,154.225c-6.739,0-12.398,5.362-12.398,13.274c0,8.373,6.308,13.338,13.046,13.338
	c5.623,0,9.075-3.077,11.135-5.833l-4.595-3.058c-1.192,1.851-3.186,3.659-6.513,3.659c-3.736,0-5.455-2.046-6.519-4.028
	l17.822-7.396l-0.925-2.167c-1.722-4.244-5.738-7.788-11.054-7.788V154.225z M569.185,159.337c2.428,0,4.176,1.291,4.918,2.839
	l-11.901,4.975C561.688,163.299,565.337,159.337,569.185,159.337L569.185,159.337z"/>
<path fill="#34A853" d="M548.058,180.047h5.854v-39.178h-5.854V180.047z"/>
</svg>
