<?xml version="1.0" encoding="utf-8"?>
<!-- Generator: Adobe Illustrator 16.0.0, SVG Export Plug-In . SVG Version: 6.00 Build 0)  -->
<!DOCTYPE svg PUBLIC "-//W3C//DTD SVG 1.1//EN" "http://www.w3.org/Graphics/SVG/1.1/DTD/svg11.dtd">
<svg version="1.1" id="Layer_1" xmlns="http://www.w3.org/2000/svg" xmlns:xlink="http://www.w3.org/1999/xlink" x="0px" y="0px"
	 width="200px" height="44px" viewBox="0 0 200 44" enable-background="new 0 0 200 44" xml:space="preserve">
<g>
	<g>
		<path fill="#FFFFFF" d="M34.538,27.006l-5.726,9.512h2.892c0.685,0,1.535-0.479,1.887-1.069l2.436-4.054
			c0.288-0.595,0.278-1.458-0.051-2.007L34.538,27.006z"/>
		<path fill="#FFFFFF" d="M31.629,22.267c0.364,0.605,0.364,1.596,0,2.203l-6.62,11.067c-0.256,0.546,0.01,0.98,0.667,0.98h2.753
			l5.894-9.79L31.629,22.267z"/>
		<path fill="#FFFFFF" d="M26.05,10.279c-0.702,0-0.98,0.493-0.62,1.093l10.669,17.721c0.335,0.561,0.622,1.019,0.329,1.626
			l2.434-3.733L28.783,10.279H26.05z"/>
		<path fill="#FFFFFF" d="M40.565,22.335l-6.588-10.969c-0.364-0.605-1.24-1.103-1.946-1.103h-2.98l9.975,16.567l1.541-2.29
			C40.93,23.933,40.93,22.941,40.565,22.335z"/>
	</g>
	<circle fill="#FFFFFF" cx="8.383" cy="5.076" r="2.594"/>
	<circle fill="#FFFFFF" cx="8.383" cy="40.405" r="2.594"/>
	<line fill="none" stroke="#FCFDFF" stroke-width="2" stroke-miterlimit="10" x1="8.383" y1="5.076" x2="26.201" y2="10.838"/>
	<line fill="none" stroke="#FCFDFF" stroke-width="2" stroke-miterlimit="10" x1="8.383" y1="40.405" x2="26.201" y2="35.738"/>
	<line fill="none" stroke="#FCFDFF" stroke-width="2" stroke-miterlimit="10" x1="40.839" y1="23.331" x2="47.214" y2="23.331"/>
	<g>
		<g>
			<path fill="#FFFFFF" d="M72.019,27.345"/>
			<path fill="#FFFFFF" d="M49.536,21.908h5.34v6.676c-1.451,0.498-3.043,0.744-4.784,0.744c-1.906,0-3.38-0.553-4.422-1.658
				c-1.043-1.105-1.561-2.687-1.561-4.737c0-1.995,0.568-3.548,1.71-4.661c1.141-1.114,2.737-1.663,4.792-1.663
				c0.78,0,1.513,0.071,2.203,0.219c0.695,0.146,1.299,0.33,1.813,0.554l-1.063,2.623c-0.891-0.44-1.871-0.659-2.938-0.659
				c-0.972,0-1.729,0.322-2.262,0.953c-0.537,0.636-0.8,1.54-0.8,2.721c0,1.158,0.239,2.04,0.726,2.647
				c0.478,0.607,1.172,0.906,2.082,0.906c0.498,0,0.957-0.043,1.372-0.142v-1.938h-2.206V21.908z"/>
			<path fill="#FFFFFF" d="M63.737,22.827c0-1.138-0.223-1.977-0.67-2.525c-0.447-0.545-1.134-0.82-2.047-0.82h-0.973v6.934h0.746
				c1.019,0,1.764-0.295,2.234-0.886C63.503,24.944,63.737,24.038,63.737,22.827 M67.208,22.709c0,2.063-0.564,3.655-1.705,4.772
				c-1.133,1.118-2.733,1.675-4.792,1.675h-4.003V16.78h4.282c1.983,0,3.517,0.51,4.599,1.525
				C66.67,19.318,67.208,20.789,67.208,22.709"/>
			<path fill="#FFFFFF" d="M73.701,21.908h5.345v6.676c-1.452,0.498-3.047,0.744-4.784,0.744c-1.906,0-3.38-0.553-4.424-1.658
				c-1.039-1.105-1.56-2.687-1.56-4.737c0-1.995,0.568-3.548,1.709-4.661c1.137-1.114,2.737-1.663,4.792-1.663
				c0.776,0,1.514,0.071,2.208,0.219c0.686,0.146,1.29,0.33,1.803,0.554l-1.058,2.623c-0.89-0.44-1.871-0.659-2.937-0.659
				c-0.977,0-1.729,0.322-2.267,0.953c-0.529,0.636-0.796,1.54-0.796,2.721c0,1.158,0.239,2.04,0.721,2.647
				c0.482,0.607,1.176,0.906,2.085,0.906c0.499,0,0.958-0.043,1.373-0.142v-1.938h-2.211V21.908z"/>
		</g>
	</g>
	<line fill="none" stroke="#FCFDFF" stroke-width="2" stroke-miterlimit="10" x1="52.971" y1="23.331" x2="59.346" y2="23.331"/>
	<line fill="none" stroke="#FCFDFF" stroke-width="2" stroke-miterlimit="10" x1="64.304" y1="22.968" x2="70.679" y2="22.968"/>
	<line fill="none" stroke="#FCFDFF" stroke-width="2" stroke-miterlimit="10" x1="76.531" y1="22.968" x2="82.907" y2="22.968"/>
	<circle fill="#FFFFFF" cx="84.029" cy="22.968" r="2.594"/>
	<line fill="none" stroke="#FCFDFF" stroke-width="2" stroke-miterlimit="10" x1="84.029" y1="22.681" x2="99.634" y2="33.923"/>
	<line fill="none" stroke="#FCFDFF" stroke-width="2" stroke-miterlimit="10" x1="84.326" y1="22.968" x2="99.634" y2="10.838"/>
	<circle fill="#FFFFFF" cx="99.635" cy="10.838" r="2.594"/>
	<circle fill="#FFFFFF" cx="99.635" cy="33.923" r="2.594"/>
	<g>
		<path fill="#FFFFFF" d="M112.385,20.562v-7.967h2.736c0.974,0,1.775,0.311,2.406,0.933c0.632,0.622,0.947,1.42,0.947,2.394v1.318
			c0,0.978-0.315,1.776-0.947,2.395c-0.631,0.618-1.433,0.927-2.406,0.927H112.385z M113.982,13.826v5.504h1.056
			c0.573,0,1.021-0.192,1.346-0.579c0.326-0.386,0.487-0.891,0.487-1.514v-1.328c0-0.616-0.161-1.117-0.487-1.503
			c-0.324-0.386-0.772-0.579-1.346-0.579H113.982z"/>
		<path fill="#FFFFFF" d="M124.624,17.06h-3.299v2.27h3.856v1.231h-5.455v-7.967h5.445v1.231h-3.847v2.002h3.299V17.06z"/>
		<path fill="#FFFFFF" d="M128.865,18.444l0.099,0.432h0.032l0.094-0.421l1.735-5.86h1.684l-2.707,7.967h-1.642l-2.705-7.967h1.687
			L128.865,18.444z"/>
		<path fill="#FFFFFF" d="M138.228,17.251h-3.338v3.311h-1.598v-7.967h5.493v1.231h-3.896v2.194h3.338V17.251z"/>
		<path fill="#FFFFFF" d="M144.656,17.06h-3.3v2.27h3.858v1.231h-5.456v-7.967h5.445v1.231h-3.848v2.002h3.3V17.06z"/>
		<path fill="#FFFFFF" d="M150.494,18.482c0-0.306-0.108-0.552-0.324-0.738c-0.218-0.186-0.598-0.361-1.142-0.525
			c-0.948-0.274-1.664-0.598-2.15-0.974c-0.484-0.376-0.728-0.89-0.728-1.543s0.278-1.187,0.834-1.601
			c0.557-0.415,1.267-0.622,2.132-0.622c0.875,0,1.589,0.233,2.139,0.698c0.552,0.465,0.817,1.039,0.8,1.721l-0.011,0.033h-1.55
			c0-0.368-0.123-0.667-0.368-0.895c-0.246-0.229-0.592-0.342-1.037-0.342c-0.427,0-0.757,0.095-0.991,0.285
			c-0.233,0.19-0.349,0.433-0.349,0.728c0,0.27,0.125,0.492,0.373,0.665c0.25,0.173,0.683,0.357,1.295,0.55
			c0.879,0.244,1.544,0.567,1.997,0.969c0.452,0.401,0.679,0.928,0.679,1.581c0,0.682-0.27,1.221-0.807,1.614
			c-0.538,0.394-1.249,0.591-2.132,0.591c-0.868,0-1.625-0.224-2.271-0.67c-0.646-0.447-0.959-1.073-0.94-1.879l0.01-0.033h1.556
			c0,0.474,0.145,0.822,0.435,1.042s0.693,0.331,1.212,0.331c0.435,0,0.766-0.089,0.996-0.268
			C150.38,19.021,150.494,18.782,150.494,18.482z"/>
		<path fill="#FFFFFF" d="M158.808,13.826h-2.255v6.735h-1.599v-6.735h-2.243v-1.231h6.097V13.826z"/>
		<path fill="#FFFFFF" d="M116.499,29.436h-2.512l-0.448,1.549h-1.861l2.572-7.968h1.986l2.576,7.968h-1.859L116.499,29.436z
			 M114.398,28.013h1.69l-0.832-2.852h-0.032L114.398,28.013z"/>
		<path fill="#FFFFFF" d="M121.232,27.93v3.055h-1.854v-7.968h3.063c0.924,0,1.654,0.213,2.195,0.641
			c0.54,0.427,0.81,1.01,0.81,1.751c0,0.412-0.109,0.766-0.326,1.062c-0.216,0.296-0.536,0.535-0.959,0.722
			c0.488,0.139,0.84,0.37,1.053,0.693c0.213,0.322,0.32,0.724,0.32,1.205v0.504c0,0.208,0.03,0.445,0.093,0.712
			c0.063,0.266,0.169,0.455,0.323,0.568v0.11h-1.904c-0.146-0.113-0.242-0.313-0.288-0.603c-0.046-0.288-0.067-0.554-0.067-0.799
			v-0.482c0-0.378-0.102-0.669-0.301-0.87c-0.202-0.2-0.495-0.301-0.882-0.301H121.232z M121.232,26.508h1.22
			c0.372,0,0.656-0.085,0.854-0.255c0.197-0.169,0.296-0.412,0.296-0.73c0-0.324-0.102-0.586-0.304-0.784
			c-0.203-0.199-0.489-0.299-0.857-0.299h-1.208V26.508z"/>
		<path fill="#FFFFFF" d="M129.204,23.017l1.785,5.576h0.032l1.806-5.576h2.44v7.968h-1.855v-1.977l0.175-3.637l-0.032-0.007
			l-1.921,5.62h-1.247l-1.898-5.57l-0.034,0.005l0.176,3.589v1.977h-1.854v-7.968H129.204z"/>
		<path fill="#FFFFFF" d="M141.494,27.574h-3.124v1.986h3.683v1.424h-5.538v-7.968h5.548v1.423h-3.692v1.713h3.124V27.574z"/>
		<path fill="#FFFFFF" d="M149.537,30.984h-1.844l-2.917-5.078l-0.032,0.011v5.067h-1.854v-7.968h1.854l2.916,5.078l0.033-0.011
			v-5.067h1.844V30.984z"/>
		<path fill="#FFFFFF" d="M152.761,30.984h-1.844v-7.968h1.844V30.984z"/>
		<path fill="#FFFFFF" d="M158.468,29.436h-2.513l-0.448,1.549h-1.86l2.572-7.968h1.985l2.578,7.968h-1.861L158.468,29.436z
			 M156.366,28.013h1.691l-0.833-2.852h-0.032L156.366,28.013z"/>
	</g>
	<line fill="none" stroke="#F9F9F9" stroke-width="2" stroke-miterlimit="10" x1="99.634" y1="10.838" x2="106.01" y2="10.838"/>
	<line fill="none" stroke="#F9F9F9" stroke-width="2" stroke-miterlimit="10" x1="99.634" y1="33.923" x2="106.01" y2="33.923"/>
	<circle fill="#FFFFFF" cx="186.845" cy="5.076" r="2.594"/>
	<circle fill="#FFFFFF" cx="186.845" cy="40.405" r="2.594"/>
	<line fill="none" stroke="#FCFDFF" stroke-width="2" stroke-miterlimit="10" x1="186.846" y1="5.076" x2="166.755" y2="14.508"/>
	<line fill="none" stroke="#FCFDFF" stroke-width="2" stroke-miterlimit="10" x1="186.846" y1="40.405" x2="166.755" y2="30.002"/>
	<line fill="none" stroke="#FFFFFF" stroke-width="2" stroke-miterlimit="10" x1="166.755" y1="8.377" x2="166.755" y2="36.157"/>
	<line fill="none" stroke="#F9F9F9" stroke-width="2" stroke-miterlimit="10" x1="106.01" y1="8.276" x2="106.01" y2="36.057"/>
	<g>
		<line fill="none" stroke="#FFFFFF" stroke-miterlimit="10" x1="106.01" y1="11.405" x2="110.252" y2="11.405"/>
		<line fill="none" stroke="#FFFFFF" stroke-miterlimit="10" x1="106.011" y1="12.147" x2="110.254" y2="12.147"/>
		<line fill="none" stroke="#FFFFFF" stroke-miterlimit="10" x1="106.011" y1="12.907" x2="110.253" y2="12.907"/>
		<line fill="none" stroke="#FFFFFF" stroke-miterlimit="10" x1="106.013" y1="13.649" x2="110.254" y2="13.649"/>
		<line fill="none" stroke="#FFFFFF" stroke-miterlimit="10" x1="106.011" y1="14.551" x2="110.253" y2="14.551"/>
		<line fill="none" stroke="#FFFFFF" stroke-miterlimit="10" x1="106.013" y1="15.294" x2="110.254" y2="15.294"/>
		<line fill="none" stroke="#FFFFFF" stroke-miterlimit="10" x1="106.011" y1="16.054" x2="110.254" y2="16.054"/>
		<line fill="none" stroke="#FFFFFF" stroke-miterlimit="10" x1="106.013" y1="16.796" x2="110.255" y2="16.796"/>
		<line fill="none" stroke="#FFFFFF" stroke-miterlimit="10" x1="106.011" y1="17.463" x2="110.253" y2="17.463"/>
		<line fill="none" stroke="#FFFFFF" stroke-miterlimit="10" x1="106.013" y1="18.206" x2="110.254" y2="18.206"/>
		<line fill="none" stroke="#FFFFFF" stroke-miterlimit="10" x1="106.011" y1="18.965" x2="110.254" y2="18.965"/>
		<line fill="none" stroke="#FFFFFF" stroke-miterlimit="10" x1="106.013" y1="19.708" x2="110.255" y2="19.708"/>
		<line fill="none" stroke="#FFFFFF" stroke-miterlimit="10" x1="106.011" y1="20.609" x2="110.254" y2="20.609"/>
		<line fill="none" stroke="#FFFFFF" stroke-miterlimit="10" x1="106.013" y1="21.352" x2="110.255" y2="21.352"/>
		<line fill="none" stroke="#FFFFFF" stroke-miterlimit="10" x1="106.013" y1="22.111" x2="110.255" y2="22.111"/>
		<line fill="none" stroke="#FFFFFF" stroke-miterlimit="10" x1="106.014" y1="22.854" x2="110.256" y2="22.854"/>
		<line fill="none" stroke="#FFFFFF" stroke-miterlimit="10" x1="106.011" y1="23.538" x2="110.253" y2="23.538"/>
		<line fill="none" stroke="#FFFFFF" stroke-miterlimit="10" x1="106.013" y1="24.281" x2="110.254" y2="24.281"/>
		<line fill="none" stroke="#FFFFFF" stroke-miterlimit="10" x1="106.011" y1="25.04" x2="110.254" y2="25.04"/>
		<line fill="none" stroke="#FFFFFF" stroke-miterlimit="10" x1="106.013" y1="25.783" x2="110.255" y2="25.783"/>
		<line fill="none" stroke="#FFFFFF" stroke-miterlimit="10" x1="106.011" y1="26.685" x2="110.254" y2="26.685"/>
		<line fill="none" stroke="#FFFFFF" stroke-miterlimit="10" x1="106.013" y1="27.428" x2="110.255" y2="27.428"/>
		<line fill="none" stroke="#FFFFFF" stroke-miterlimit="10" x1="106.013" y1="28.187" x2="110.255" y2="28.187"/>
		<line fill="none" stroke="#FFFFFF" stroke-miterlimit="10" x1="106.014" y1="28.93" x2="110.256" y2="28.93"/>
		<line fill="none" stroke="#FFFFFF" stroke-miterlimit="10" x1="106.011" y1="29.597" x2="110.254" y2="29.597"/>
		<line fill="none" stroke="#FFFFFF" stroke-miterlimit="10" x1="106.013" y1="30.34" x2="110.255" y2="30.34"/>
		<line fill="none" stroke="#FFFFFF" stroke-miterlimit="10" x1="106.013" y1="31.1" x2="110.255" y2="31.1"/>
		<line fill="none" stroke="#FFFFFF" stroke-miterlimit="10" x1="106.014" y1="31.842" x2="110.256" y2="31.842"/>
		<line fill="none" stroke="#FFFFFF" stroke-miterlimit="10" x1="106.013" y1="32.742" x2="110.255" y2="32.742"/>
		<line fill="none" stroke="#FFFFFF" stroke-miterlimit="10" x1="106.014" y1="33.485" x2="110.256" y2="33.485"/>
	</g>
	<g>
		<line fill="none" stroke="#FCFDFF" stroke-miterlimit="10" x1="162.508" y1="11.071" x2="166.75" y2="11.071"/>
		<line fill="none" stroke="#FCFDFF" stroke-miterlimit="10" x1="162.509" y1="11.814" x2="166.751" y2="11.814"/>
		<line fill="none" stroke="#FCFDFF" stroke-miterlimit="10" x1="162.508" y1="12.573" x2="166.751" y2="12.573"/>
		<line fill="none" stroke="#FCFDFF" stroke-miterlimit="10" x1="162.509" y1="13.315" x2="166.751" y2="13.315"/>
		<line fill="none" stroke="#FCFDFF" stroke-miterlimit="10" x1="162.508" y1="14.217" x2="166.751" y2="14.217"/>
		<line fill="none" stroke="#FCFDFF" stroke-miterlimit="10" x1="162.509" y1="14.96" x2="166.751" y2="14.96"/>
		<line fill="none" stroke="#FCFDFF" stroke-miterlimit="10" x1="162.509" y1="15.719" x2="166.751" y2="15.719"/>
		<line fill="none" stroke="#FCFDFF" stroke-miterlimit="10" x1="162.51" y1="16.462" x2="166.752" y2="16.462"/>
		<line fill="none" stroke="#FCFDFF" stroke-miterlimit="10" x1="162.508" y1="17.129" x2="166.751" y2="17.129"/>
		<line fill="none" stroke="#FCFDFF" stroke-miterlimit="10" x1="162.509" y1="17.872" x2="166.751" y2="17.872"/>
		<line fill="none" stroke="#FCFDFF" stroke-miterlimit="10" x1="162.509" y1="18.632" x2="166.751" y2="18.632"/>
		<line fill="none" stroke="#FCFDFF" stroke-miterlimit="10" x1="162.51" y1="19.374" x2="166.752" y2="19.374"/>
		<line fill="none" stroke="#FCFDFF" stroke-miterlimit="10" x1="162.509" y1="20.275" x2="166.751" y2="20.275"/>
		<line fill="none" stroke="#FCFDFF" stroke-miterlimit="10" x1="162.51" y1="21.018" x2="166.752" y2="21.018"/>
		<line fill="none" stroke="#FCFDFF" stroke-miterlimit="10" x1="162.51" y1="21.777" x2="166.752" y2="21.777"/>
		<line fill="none" stroke="#FCFDFF" stroke-miterlimit="10" x1="162.511" y1="22.521" x2="166.753" y2="22.521"/>
		<line fill="none" stroke="#FCFDFF" stroke-miterlimit="10" x1="162.508" y1="23.204" x2="166.751" y2="23.204"/>
		<line fill="none" stroke="#FCFDFF" stroke-miterlimit="10" x1="162.509" y1="23.946" x2="166.751" y2="23.946"/>
		<line fill="none" stroke="#FCFDFF" stroke-miterlimit="10" x1="162.509" y1="24.706" x2="166.751" y2="24.706"/>
		<line fill="none" stroke="#FCFDFF" stroke-miterlimit="10" x1="162.51" y1="25.449" x2="166.752" y2="25.449"/>
		<line fill="none" stroke="#FCFDFF" stroke-miterlimit="10" x1="162.509" y1="26.351" x2="166.751" y2="26.351"/>
		<line fill="none" stroke="#FCFDFF" stroke-miterlimit="10" x1="162.51" y1="27.093" x2="166.752" y2="27.093"/>
		<line fill="none" stroke="#FCFDFF" stroke-miterlimit="10" x1="162.51" y1="27.853" x2="166.752" y2="27.853"/>
		<line fill="none" stroke="#FCFDFF" stroke-miterlimit="10" x1="162.511" y1="28.596" x2="166.753" y2="28.596"/>
		<line fill="none" stroke="#FCFDFF" stroke-miterlimit="10" x1="162.509" y1="29.262" x2="166.751" y2="29.262"/>
		<line fill="none" stroke="#FCFDFF" stroke-miterlimit="10" x1="162.51" y1="30.005" x2="166.752" y2="30.005"/>
		<line fill="none" stroke="#FCFDFF" stroke-miterlimit="10" x1="162.51" y1="30.765" x2="166.752" y2="30.765"/>
		<line fill="none" stroke="#FCFDFF" stroke-miterlimit="10" x1="162.511" y1="31.508" x2="166.753" y2="31.508"/>
		<line fill="none" stroke="#FCFDFF" stroke-miterlimit="10" x1="162.51" y1="32.409" x2="166.752" y2="32.409"/>
		<line fill="none" stroke="#FCFDFF" stroke-miterlimit="10" x1="162.511" y1="33.152" x2="166.753" y2="33.152"/>
	</g>
</g>
</svg>
