<?xml version="1.0" encoding="utf-8"?>
<!-- Generator: Adobe Illustrator 15.1.0, SVG Export Plug-In . SVG Version: 6.00 Build 0)  -->
<!DOCTYPE svg PUBLIC "-//W3C//DTD SVG 1.1//EN" "http://www.w3.org/Graphics/SVG/1.1/DTD/svg11.dtd">
<svg version="1.1" id="Capa_1" xmlns="http://www.w3.org/2000/svg" xmlns:xlink="http://www.w3.org/1999/xlink" x="0px" y="0px"
	 width="768px" height="511px" viewBox="-90.75 37.75 768 511" enable-background="new -90.75 37.75 768 511" xml:space="preserve">
<g>
	<g id="polymer">
		<polygon fill="none" stroke="#A0A0A0" stroke-miterlimit="10" points="60,293.25 151.271,455.51 232.402,455.51 141.131,293.25 
			193.865,199.95 354.098,455.51 435.229,455.51 526.5,293.25 435.229,130.989 354.098,130.989 445.369,293.25 392.635,386.55 
			232.402,130.989 151.271,130.989 		"/>
	</g>
</g>
<line fill="none" stroke="#898989" stroke-miterlimit="10" x1="131.793" y1="185.75" x2="-44.25" y2="185.75"/>
<g>
	<path fill="#A5A5A5" d="M-40.515,169.365v7.385h-1.465v-17.773h6.128c1.863,0,3.306,0.476,4.327,1.428
		c1.021,0.952,1.532,2.206,1.532,3.76c0,1.579-0.511,2.84-1.532,3.784c-1.021,0.944-2.464,1.416-4.327,1.416H-40.515z
		 M-40.515,168.119h4.663c1.465,0,2.563-0.373,3.296-1.117c0.732-0.745,1.099-1.683,1.099-2.814c0-1.139-0.366-2.085-1.099-2.838
		c-0.732-0.752-1.831-1.129-3.296-1.129h-4.663V168.119z"/>
	<path fill="#A5A5A5" d="M-13.525,169.316c0,2.295-0.628,4.15-1.886,5.566c-1.257,1.416-2.944,2.124-5.06,2.124
		c-2.083,0-3.746-0.708-4.986-2.124c-1.241-1.416-1.862-3.271-1.862-5.566v-2.893c0-2.287,0.618-4.142,1.855-5.566
		c1.237-1.424,2.897-2.136,4.98-2.136c2.116,0,3.804,0.712,5.066,2.136c1.261,1.424,1.892,3.28,1.892,5.566V169.316z
		 M-14.978,166.398c0-1.92-0.486-3.467-1.459-4.639c-0.972-1.172-2.321-1.758-4.046-1.758c-1.693,0-3.011,0.586-3.955,1.758
		c-0.944,1.172-1.416,2.718-1.416,4.639v2.917c0,1.937,0.474,3.491,1.422,4.663c0.948,1.172,2.268,1.758,3.961,1.758
		c1.733,0,3.082-0.584,4.047-1.751c0.964-1.168,1.446-2.724,1.446-4.669V166.398z"/>
	<path fill="#A5A5A5" d="M-8.276,175.517h9.18v1.233H-9.741v-17.773h1.465V175.517z"/>
	<path fill="#A5A5A5" d="M6.47,168.852l5.505-9.875h1.697L7.19,170.256v6.494H5.738v-6.555l-6.433-11.218h1.697L6.47,168.852z"/>
	<path fill="#A5A5A5" d="M24.988,174.626h0.073l6.616-15.649h1.782v17.773h-1.465v-14.929l-0.073-0.012L25.55,176.75H24.5
		l-6.519-15.308l-0.073,0.012v15.295h-1.465v-17.773h1.953L24.988,174.626z"/>
	<path fill="#A5A5A5" d="M47.437,168.144h-7.971v7.373h9.216v1.233H38.001v-17.773h10.62v1.245h-9.155v6.677h7.971V168.144z"/>
	<path fill="#A5A5A5" d="M53.211,168.718v8.032h-1.465v-17.761h5.92c1.904,0,3.365,0.417,4.382,1.251
		c1.017,0.834,1.526,2.053,1.526,3.656c0,0.944-0.271,1.789-0.812,2.533c-0.541,0.745-1.308,1.288-2.301,1.63
		c1.099,0.277,1.89,0.771,2.374,1.483c0.484,0.712,0.727,1.605,0.727,2.679v1.672c0,0.554,0.065,1.05,0.195,1.489
		c0.13,0.439,0.346,0.798,0.647,1.074v0.293h-1.489c-0.301-0.293-0.513-0.704-0.635-1.233c-0.122-0.529-0.183-1.078-0.183-1.648
		v-1.624c0-1.09-0.352-1.951-1.056-2.582c-0.704-0.631-1.687-0.946-2.948-0.946H53.211z M53.211,167.472h4.285
		c1.603,0,2.775-0.323,3.516-0.971c0.74-0.646,1.111-1.52,1.111-2.618c0-1.172-0.368-2.073-1.104-2.704
		c-0.737-0.63-1.854-0.946-3.351-0.946h-4.456V167.472z"/>
</g>
<line fill="none" stroke="#898989" stroke-miterlimit="10" x1="454.75" y1="385.75" x2="650.75" y2="385.75"/>
<g>
	<path fill="#A5A5A5" d="M529.264,368.758l0.025,0.074c0.031,1.741-0.537,3.133-1.709,4.174c-1.172,1.043-2.711,1.563-4.615,1.563
		c-1.977,0-3.572-0.714-4.785-2.142c-1.213-1.429-1.818-3.278-1.818-5.548v-2.894c0-2.263,0.605-4.112,1.818-5.548
		c1.213-1.437,2.809-2.154,4.785-2.154c1.93,0,3.474,0.508,4.633,1.525c1.16,1.018,1.723,2.417,1.691,4.199l-0.025,0.073h-1.367
		c0-1.433-0.438-2.55-1.312-3.351c-0.875-0.802-2.081-1.203-3.62-1.203c-1.555,0-2.801,0.604-3.741,1.807
		c-0.939,1.205-1.409,2.747-1.409,4.627v2.918c0,1.904,0.47,3.456,1.409,4.656c0.94,1.201,2.187,1.801,3.741,1.801
		c1.539,0,2.745-0.391,3.62-1.172c0.874-0.781,1.312-1.916,1.312-3.406H529.264z"/>
	<path fill="#A5A5A5" d="M546.086,366.879c0,2.295-0.629,4.15-1.887,5.566c-1.257,1.416-2.943,2.123-5.06,2.123
		c-2.083,0-3.745-0.707-4.986-2.123s-1.862-3.271-1.862-5.566v-2.894c0-2.286,0.619-4.142,1.855-5.566
		c1.237-1.424,2.897-2.136,4.98-2.136c2.116,0,3.805,0.712,5.066,2.136c1.262,1.425,1.893,3.28,1.893,5.566V366.879z
		 M544.633,363.961c0-1.92-0.486-3.467-1.459-4.639s-2.321-1.758-4.047-1.758c-1.692,0-3.011,0.586-3.955,1.758
		c-0.943,1.172-1.416,2.719-1.416,4.639v2.918c0,1.937,0.475,3.49,1.423,4.662s2.269,1.758,3.961,1.758
		c1.733,0,3.082-0.584,4.047-1.751c0.964-1.168,1.446-2.724,1.446-4.669V363.961z"/>
	<path fill="#A5A5A5" d="M549.869,374.312v-17.773h5.42c2.174,0,3.97,0.725,5.39,2.173c1.421,1.448,2.13,3.308,2.13,5.579v2.282
		c0,2.271-0.709,4.128-2.13,5.572c-1.42,1.444-3.216,2.167-5.39,2.167H549.869z M551.334,357.784v15.296h3.955
		c1.758,0,3.207-0.615,4.346-1.844c1.14-1.229,1.709-2.783,1.709-4.663v-2.319c0-1.855-0.571-3.397-1.715-4.627
		c-1.143-1.229-2.59-1.843-4.34-1.843H551.334z"/>
	<path fill="#A5A5A5" d="M576.127,365.707h-7.971v7.373h9.216v1.232h-10.681v-17.773h10.619v1.245h-9.154v6.677h7.971V365.707z"/>
	<path fill="#A5A5A5" d="M588.017,373.08h9.18v1.232h-10.645v-17.773h1.465V373.08z"/>
	<path fill="#A5A5A5" d="M609.855,369.356h-7.801l-1.795,4.956h-1.514l6.531-17.773h1.379l6.482,17.773h-1.514L609.855,369.356z
		 M602.519,368.051h6.86l-3.369-9.424h-0.073L602.519,368.051z"/>
	<path fill="#A5A5A5" d="M615.885,374.312v-17.773h5.188c1.847,0,3.288,0.389,4.321,1.166s1.551,1.947,1.551,3.51
		c0,0.887-0.251,1.664-0.751,2.331c-0.501,0.667-1.175,1.14-2.021,1.416c1.123,0.139,2.041,0.627,2.753,1.465
		c0.712,0.839,1.067,1.819,1.067,2.942c0,1.586-0.514,2.807-1.544,3.662c-1.029,0.854-2.407,1.281-4.132,1.281H615.885z
		 M617.35,364.51h4.273c1.229-0.023,2.179-0.318,2.85-0.885c0.672-0.565,1.008-1.385,1.008-2.459c0-1.123-0.375-1.968-1.123-2.533
		c-0.75-0.566-1.844-0.849-3.284-0.849h-3.724V364.51z M617.35,365.743v7.337h4.969c1.311,0,2.34-0.324,3.088-0.971
		c0.749-0.647,1.123-1.553,1.123-2.717c0-1.065-0.367-1.93-1.104-2.594c-0.736-0.663-1.724-1.015-2.96-1.056h-0.195H617.35z"/>
</g>
<g transform="translate(-1.000000, 0.000000)" opacity="0.5">
	<g transform="translate(51.398438, 0.000000)">
		<path fill="#FF4081" d="M288.051,450.374L107.246,137.211h90.408l180.805,313.163H288.051L288.051,450.374z"/>
		<path fill="#FFFFFF" fill-opacity="0.2" d="M288.051,450.374l45.198-78.29l45.21,78.29H288.051L288.051,450.374z"/>
		<path fill="#FFFFFF" fill-opacity="0.1" d="M242.852,372.084l45.199,78.29l45.198-78.29h-90.396H242.852L242.852,372.084z"/>
		<path fill-opacity="0.1" d="M197.652,293.792l45.199,78.292l45.199-78.292h-90.397H197.652L197.652,293.792z"/>
		<path fill-opacity="0.2" d="M197.652,293.792l45.199-78.291l45.199,78.291h-90.397H197.652L197.652,293.792z"/>
		<path fill-opacity="0.3" d="M152.456,215.501l45.198,78.291l45.2-78.291h-90.396H152.456L152.456,215.501z"/>
		<path fill-opacity="0.4" d="M152.456,215.501l45.198-78.29l45.2,78.29h-90.396H152.456L152.456,215.501z"/>
		<path fill-opacity="0.5" d="M107.246,137.211l45.21,78.29l45.198-78.29H107.246L107.246,137.211z"/>
	</g>
	<g transform="translate(0.000000, 44.343750)">
		<path fill="#536DFE" d="M158.644,406.03L68.237,249.448l45.209-78.291L249.051,406.03h-90.408H158.644L158.644,406.03z"/>
		<path fill="#FFFFFF" fill-opacity="0.2" d="M158.644,406.03l45.21-78.29l45.198,78.29H158.644L158.644,406.03z"/>
		<path fill="#FFFFFF" fill-opacity="0.1" d="M113.446,327.74l45.198,78.29l45.21-78.29H113.446L113.446,327.74z"/>
		<path fill="none" d="M113.446,327.74l45.198-78.292l45.21,78.292H113.446L113.446,327.74z"/>
		<path fill-opacity="0.1" d="M68.237,249.448l45.209,78.292l45.198-78.292H68.237L68.237,249.448z"/>
		<path fill-opacity="0.2" d="M68.237,249.448l45.209-78.291l45.198,78.291H68.237L68.237,249.448z"/>
	</g>
	<g transform="translate(26.203125, 0.000000)">
		<path fill="#303F9F" d="M132.441,293.792l-45.198-78.291l45.198-78.29l45.21,78.29L132.441,293.792L132.441,293.792z"/>
		<path fill-opacity="0.2" d="M177.651,215.501l-45.21-78.29l-45.198,78.29H177.651L177.651,215.501z"/>
	</g>
	<g transform="translate(179.390625, 88.687500)">
		<path fill="#3F51B5" d="M250.465,361.686l-45.211-78.29l45.211-78.292l45.197,78.292L250.465,361.686L250.465,361.686z"/>
		<path fill-opacity="0.2" d="M295.662,283.396l-45.197,78.29l-45.211-78.29H295.662L295.662,283.396z"/>
	</g>
	<g transform="translate(154.195312, 0.000000)">
		<path fill="#7986CB" d="M320.857,372.084L185.254,137.211h90.408l90.406,156.581l-45.207,78.292H320.857L320.857,372.084z"/>
		<path fill="#FFFFFF" fill-opacity="0.2" d="M275.66,293.792l45.197,78.292l45.211-78.292H275.66L275.66,293.792z"/>
		<path fill="#FFFFFF" fill-opacity="0.1" d="M275.66,293.792l45.197-78.291l45.211,78.291H275.66L275.66,293.792z"/>
		<path fill-opacity="0.1" d="M230.449,215.501l45.211-78.29l45.197,78.29H230.449L230.449,215.501z"/>
		<path fill-opacity="0.2" d="M185.254,137.211l45.198,78.29l45.21-78.29H185.254L185.254,137.211z"/>
	</g>
</g>
</svg>
