<?xml version="1.0" encoding="utf-8"?>
<!-- Generator: Adobe Illustrator 15.1.0, SVG Export Plug-In . SVG Version: 6.00 Build 0)  -->
<!DOCTYPE svg PUBLIC "-//W3C//DTD SVG 1.1//EN" "http://www.w3.org/Graphics/SVG/1.1/DTD/svg11.dtd">
<svg version="1.1" xmlns="http://www.w3.org/2000/svg" xmlns:xlink="http://www.w3.org/1999/xlink" x="0px" y="0px" width="768px"
	 height="511px" viewBox="0 0 768 511" enable-background="new 0 0 768 511" xml:space="preserve">
<g id="background">
	<g>
		<g>
			<path fill="#FFFFFF" d="M289.222-114.301v-0.258c-0.349,0.398-0.692,0.725-1.031,0.973c-0.338,0.252-0.706,0.441-1.102,0.57
				c-0.396,0.133-0.827,0.195-1.296,0.195c-0.621,0-1.196-0.131-1.725-0.393c-0.528-0.264-0.986-0.639-1.372-1.127
				c-0.387-0.486-0.68-1.059-0.879-1.719c-0.199-0.658-0.299-1.371-0.299-2.137c0-1.621,0.396-2.885,1.188-3.791
				c0.792-0.904,1.833-1.357,3.125-1.357c0.747,0,1.377,0.129,1.89,0.385c0.513,0.256,1.013,0.652,1.501,1.182v-3.826
				c0-0.533,0.105-0.934,0.318-1.207c0.211-0.271,0.514-0.408,0.907-0.408c0.393,0,0.694,0.125,0.907,0.375
				c0.212,0.252,0.318,0.619,0.318,1.107v11.436c0,0.494-0.113,0.863-0.342,1.111c-0.228,0.246-0.522,0.369-0.883,0.369
				c-0.354,0-0.647-0.127-0.879-0.383C289.337-113.461,289.222-113.827,289.222-114.301z M284.122-118.11
				c0,0.703,0.109,1.301,0.328,1.795c0.219,0.494,0.518,0.865,0.897,1.115c0.38,0.25,0.795,0.377,1.244,0.377
				c0.456,0,0.872-0.119,1.25-0.357c0.376-0.236,0.677-0.602,0.902-1.092c0.225-0.49,0.337-1.105,0.337-1.838
				c0-0.691-0.112-1.285-0.337-1.783c-0.225-0.496-0.528-0.875-0.912-1.139c-0.383-0.262-0.803-0.393-1.258-0.393
				c-0.475,0-0.899,0.135-1.273,0.402c-0.374,0.27-0.663,0.654-0.869,1.158C284.224-119.36,284.122-118.776,284.122-118.11z"/>
			<path fill="#FFFFFF" d="M300.656-117.454h-5.071c0.006,0.588,0.125,1.107,0.356,1.557c0.23,0.449,0.538,0.789,0.921,1.016
				c0.383,0.229,0.806,0.342,1.268,0.342c0.31,0,0.593-0.035,0.85-0.107c0.257-0.074,0.505-0.188,0.746-0.344
				c0.241-0.154,0.462-0.32,0.665-0.498c0.202-0.178,0.464-0.42,0.788-0.723c0.133-0.113,0.323-0.172,0.571-0.172
				c0.266,0,0.48,0.074,0.645,0.221c0.165,0.146,0.248,0.35,0.248,0.617c0,0.234-0.093,0.506-0.275,0.82
				c-0.185,0.314-0.462,0.615-0.832,0.902c-0.372,0.289-0.835,0.527-1.397,0.717c-0.56,0.191-1.204,0.285-1.933,0.285
				c-1.665,0-2.96-0.475-3.884-1.424s-1.386-2.238-1.386-3.865c0-0.768,0.113-1.479,0.341-2.133
				c0.229-0.656,0.561-1.217,0.997-1.686c0.437-0.469,0.975-0.828,1.615-1.078c0.639-0.25,1.349-0.375,2.127-0.375
				c1.013,0,1.882,0.213,2.606,0.641c0.726,0.428,1.27,0.98,1.63,1.656c0.36,0.678,0.542,1.369,0.542,2.07
				c0,0.654-0.187,1.076-0.56,1.27S301.334-117.454,300.656-117.454z M295.584-118.926h4.702c-0.063-0.887-0.303-1.551-0.717-1.99
				c-0.415-0.441-0.96-0.66-1.638-0.66c-0.646,0-1.177,0.223-1.591,0.668C295.925-120.461,295.674-119.801,295.584-118.926z"/>
			<path fill="#FFFFFF" d="M312.471-116.211c0,0.715-0.173,1.328-0.522,1.838c-0.348,0.51-0.862,0.896-1.543,1.16
				c-0.68,0.262-1.508,0.393-2.483,0.393c-0.931,0-1.729-0.143-2.394-0.428c-0.665-0.283-1.156-0.641-1.472-1.066
				c-0.317-0.43-0.475-0.857-0.475-1.289c0-0.285,0.101-0.527,0.304-0.73c0.202-0.201,0.459-0.303,0.77-0.303
				c0.271,0,0.48,0.066,0.626,0.199s0.286,0.32,0.417,0.559c0.266,0.465,0.585,0.807,0.956,1.037
				c0.37,0.227,0.875,0.342,1.515,0.342c0.519,0,0.945-0.117,1.277-0.348c0.332-0.232,0.498-0.496,0.498-0.793
				c0-0.457-0.172-0.787-0.518-0.996c-0.345-0.209-0.914-0.41-1.705-0.6c-0.893-0.221-1.619-0.455-2.18-0.699
				c-0.561-0.242-1.008-0.564-1.344-0.963s-0.503-0.891-0.503-1.473c0-0.518,0.155-1.01,0.465-1.473
				c0.311-0.461,0.768-0.83,1.374-1.105c0.604-0.275,1.333-0.414,2.188-0.414c0.671,0,1.275,0.07,1.809,0.211
				c0.536,0.137,0.983,0.326,1.34,0.561c0.358,0.232,0.63,0.492,0.816,0.777s0.28,0.563,0.28,0.836c0,0.297-0.1,0.541-0.298,0.732
				c-0.199,0.188-0.482,0.285-0.851,0.285c-0.266,0-0.492-0.076-0.679-0.23c-0.187-0.15-0.4-0.379-0.641-0.682
				c-0.196-0.254-0.426-0.457-0.693-0.609c-0.266-0.152-0.627-0.227-1.083-0.227c-0.469,0-0.857,0.098-1.168,0.299
				c-0.31,0.199-0.465,0.447-0.465,0.744c0,0.273,0.114,0.496,0.341,0.67c0.229,0.176,0.535,0.32,0.922,0.434
				c0.386,0.113,0.917,0.252,1.596,0.416c0.803,0.197,1.46,0.432,1.97,0.703c0.509,0.271,0.896,0.594,1.16,0.965
				C312.34-117.108,312.471-116.686,312.471-116.211z"/>
			<path fill="#FFFFFF" d="M315.12-124.569c-0.361,0-0.669-0.111-0.926-0.332s-0.385-0.535-0.385-0.941
				c0-0.367,0.131-0.668,0.394-0.906s0.569-0.357,0.917-0.357c0.336,0,0.633,0.107,0.893,0.324c0.26,0.215,0.39,0.527,0.39,0.939
				c0,0.4-0.127,0.711-0.381,0.936C315.769-124.682,315.468-124.569,315.12-124.569z M316.402-121.891v7.494
				c0,0.52-0.124,0.912-0.371,1.178c-0.248,0.266-0.56,0.398-0.94,0.398s-0.689-0.135-0.926-0.408
				c-0.238-0.271-0.356-0.662-0.356-1.168v-7.418c0-0.512,0.118-0.898,0.356-1.158c0.237-0.26,0.546-0.391,0.926-0.391
				s0.693,0.131,0.94,0.391C316.279-122.713,316.402-122.352,316.402-121.891z"/>
			<path fill="#FFFFFF" d="M327.761-121.463v7.531c0,0.861-0.093,1.604-0.277,2.225c-0.182,0.619-0.477,1.133-0.883,1.537
				c-0.405,0.404-0.936,0.707-1.59,0.902c-0.655,0.197-1.471,0.295-2.446,0.295c-0.893,0-1.69-0.125-2.394-0.375
				c-0.702-0.252-1.243-0.574-1.624-0.969c-0.379-0.396-0.57-0.803-0.57-1.221c0-0.316,0.108-0.576,0.324-0.773
				c0.215-0.201,0.475-0.301,0.778-0.301c0.38,0,0.712,0.168,0.998,0.504c0.139,0.17,0.283,0.344,0.432,0.518
				c0.149,0.176,0.314,0.324,0.494,0.447c0.181,0.123,0.397,0.215,0.65,0.275c0.253,0.059,0.545,0.09,0.874,0.09
				c0.671,0,1.192-0.094,1.563-0.281c0.371-0.186,0.63-0.447,0.779-0.783c0.149-0.334,0.236-0.693,0.261-1.078
				c0.025-0.383,0.044-0.998,0.057-1.848c-0.399,0.559-0.859,0.982-1.382,1.273c-0.522,0.291-1.145,0.438-1.866,0.438
				c-0.868,0-1.625-0.223-2.275-0.666c-0.648-0.443-1.147-1.063-1.495-1.861c-0.349-0.799-0.522-1.719-0.522-2.764
				c0-0.777,0.105-1.482,0.317-2.107c0.213-0.629,0.515-1.156,0.907-1.588c0.393-0.43,0.845-0.754,1.358-0.973
				s1.076-0.328,1.691-0.328c0.734,0,1.371,0.143,1.909,0.422c0.538,0.283,1.039,0.725,1.5,1.326v-0.352
				c0-0.449,0.11-0.797,0.332-1.045c0.222-0.246,0.507-0.371,0.855-0.371c0.5,0,0.832,0.164,0.997,0.49
				C327.678-122.547,327.761-122.077,327.761-121.463z M320.248-118.176c0,1.051,0.229,1.846,0.688,2.383
				c0.459,0.539,1.053,0.809,1.781,0.809c0.43,0,0.837-0.117,1.22-0.348c0.384-0.23,0.695-0.58,0.937-1.045
				c0.24-0.465,0.361-1.029,0.361-1.695c0-1.057-0.232-1.881-0.698-2.469s-1.078-0.883-1.838-0.883c-0.741,0-1.334,0.281-1.78,0.846
				C320.471-120.016,320.248-119.215,320.248-118.176z"/>
			<path fill="#FFFFFF" d="M331.882-121.928v0.313c0.455-0.602,0.954-1.043,1.496-1.324s1.163-0.424,1.866-0.424
				c0.684,0,1.295,0.15,1.833,0.447c0.538,0.299,0.941,0.719,1.206,1.262c0.172,0.318,0.282,0.66,0.333,1.027
				c0.051,0.367,0.077,0.836,0.077,1.406v4.824c0,0.52-0.119,0.912-0.357,1.178c-0.237,0.266-0.546,0.398-0.926,0.398
				c-0.387,0-0.7-0.135-0.94-0.408c-0.241-0.271-0.361-0.662-0.361-1.168v-4.322c0-0.854-0.119-1.508-0.356-1.961
				c-0.238-0.451-0.71-0.68-1.42-0.68c-0.461,0-0.883,0.139-1.263,0.414s-0.659,0.654-0.836,1.135
				c-0.126,0.387-0.19,1.107-0.19,2.166v3.248c0,0.525-0.123,0.92-0.365,1.184c-0.244,0.262-0.559,0.393-0.945,0.393
				c-0.375,0-0.681-0.135-0.922-0.408c-0.24-0.271-0.361-0.662-0.361-1.168v-7.494c0-0.494,0.107-0.863,0.323-1.107
				c0.215-0.242,0.51-0.365,0.883-0.365c0.229,0,0.435,0.055,0.619,0.162c0.183,0.109,0.331,0.27,0.441,0.484
				S331.882-122.239,331.882-121.928z"/>
			<path fill="#FFFFFF" d="M347.656-117.454h-5.071c0.007,0.588,0.125,1.107,0.356,1.557c0.231,0.449,0.538,0.789,0.921,1.016
				c0.382,0.229,0.805,0.342,1.267,0.342c0.311,0,0.594-0.035,0.851-0.107c0.255-0.074,0.504-0.188,0.746-0.344
				c0.24-0.154,0.461-0.32,0.665-0.498c0.202-0.178,0.464-0.42,0.788-0.723c0.133-0.113,0.323-0.172,0.57-0.172
				c0.266,0,0.481,0.074,0.646,0.221s0.247,0.35,0.247,0.617c0,0.234-0.091,0.506-0.275,0.82s-0.461,0.615-0.832,0.902
				c-0.371,0.289-0.835,0.527-1.396,0.717c-0.561,0.191-1.205,0.285-1.933,0.285c-1.665,0-2.96-0.475-3.885-1.424
				c-0.923-0.949-1.386-2.238-1.386-3.865c0-0.768,0.114-1.479,0.342-2.133c0.228-0.656,0.561-1.217,0.998-1.686
				c0.437-0.469,0.975-0.828,1.614-1.078s1.349-0.375,2.128-0.375c1.013,0,1.881,0.213,2.606,0.641
				c0.726,0.428,1.269,0.98,1.63,1.656c0.36,0.678,0.542,1.369,0.542,2.07c0,0.654-0.187,1.076-0.561,1.27
				C348.86-117.551,348.334-117.454,347.656-117.454z M342.585-118.926h4.701c-0.063-0.887-0.302-1.551-0.717-1.99
				c-0.415-0.441-0.961-0.66-1.638-0.66c-0.646,0-1.177,0.223-1.592,0.668C342.924-120.461,342.674-119.801,342.585-118.926z"/>
			<path fill="#FFFFFF" d="M358.226-114.301v-0.258c-0.348,0.398-0.691,0.725-1.03,0.973c-0.339,0.252-0.706,0.441-1.102,0.57
				c-0.395,0.133-0.828,0.195-1.296,0.195c-0.622,0-1.196-0.131-1.724-0.393c-0.529-0.264-0.986-0.639-1.373-1.127
				c-0.387-0.486-0.679-1.059-0.878-1.719c-0.2-0.658-0.299-1.371-0.299-2.137c0-1.621,0.396-2.885,1.187-3.791
				c0.792-0.904,1.833-1.357,3.125-1.357c0.747,0,1.377,0.129,1.89,0.385s1.013,0.652,1.5,1.182v-3.826
				c0-0.533,0.106-0.934,0.319-1.207c0.211-0.271,0.515-0.408,0.907-0.408c0.392,0,0.694,0.125,0.907,0.375
				c0.212,0.252,0.318,0.619,0.318,1.107v11.436c0,0.494-0.114,0.863-0.342,1.111c-0.228,0.246-0.522,0.369-0.883,0.369
				c-0.354,0-0.647-0.127-0.879-0.383C358.342-113.461,358.226-113.827,358.226-114.301z M353.126-118.11
				c0,0.703,0.108,1.301,0.327,1.795c0.218,0.494,0.518,0.865,0.898,1.115c0.379,0.25,0.794,0.377,1.243,0.377
				c0.457,0,0.873-0.119,1.249-0.357c0.377-0.236,0.678-0.602,0.902-1.092c0.225-0.49,0.337-1.105,0.337-1.838
				c0-0.691-0.112-1.285-0.337-1.783c-0.224-0.496-0.528-0.875-0.912-1.139c-0.384-0.262-0.803-0.393-1.259-0.393
				c-0.474,0-0.899,0.135-1.272,0.402c-0.373,0.27-0.663,0.654-0.869,1.158S353.126-118.776,353.126-118.11z"/>
			<path fill="#FFFFFF" d="M368.824-125.737v3.959c0.487-0.506,0.984-0.895,1.491-1.162c0.506-0.27,1.134-0.404,1.881-0.404
				c0.861,0,1.616,0.205,2.266,0.611c0.648,0.41,1.151,1.002,1.51,1.777c0.357,0.775,0.537,1.695,0.537,2.76
				c0,0.785-0.1,1.504-0.299,2.16c-0.2,0.656-0.49,1.225-0.869,1.705c-0.38,0.48-0.841,0.854-1.382,1.117
				c-0.542,0.262-1.139,0.393-1.791,0.393c-0.399,0-0.775-0.047-1.125-0.143c-0.352-0.094-0.651-0.219-0.898-0.375
				c-0.246-0.154-0.457-0.314-0.631-0.479s-0.404-0.412-0.689-0.742v0.258c0,0.486-0.117,0.855-0.352,1.107
				c-0.233,0.25-0.531,0.373-0.893,0.373c-0.367,0-0.66-0.123-0.878-0.373c-0.219-0.252-0.328-0.621-0.328-1.107v-11.322
				c0-0.525,0.106-0.924,0.317-1.191c0.212-0.27,0.509-0.404,0.889-0.404c0.399,0,0.706,0.129,0.921,0.385
				C368.716-126.577,368.824-126.213,368.824-125.737z M368.948-118.034c0,1.031,0.236,1.824,0.708,2.377
				c0.472,0.555,1.091,0.834,1.857,0.834c0.652,0,1.214-0.283,1.686-0.852c0.472-0.566,0.708-1.379,0.708-2.436
				c0-0.684-0.097-1.273-0.294-1.768s-0.475-0.875-0.835-1.145c-0.361-0.268-0.783-0.402-1.264-0.402
				c-0.494,0-0.935,0.135-1.32,0.402c-0.386,0.27-0.69,0.658-0.912,1.168C369.059-119.344,368.948-118.737,368.948-118.034z"/>
			<path fill="#FFFFFF" d="M379.87-112.497l0.237-0.58l-3.191-8.035c-0.196-0.461-0.295-0.799-0.295-1.008
				c0-0.221,0.058-0.426,0.171-0.615c0.114-0.191,0.271-0.344,0.47-0.457c0.2-0.115,0.407-0.172,0.623-0.172
				c0.373,0,0.655,0.119,0.846,0.357c0.19,0.236,0.357,0.576,0.503,1.02l2.194,6.383l2.08-5.936c0.164-0.48,0.313-0.857,0.446-1.131
				c0.133-0.271,0.273-0.455,0.422-0.549c0.148-0.096,0.359-0.145,0.633-0.145c0.197,0,0.385,0.053,0.564,0.158
				c0.181,0.104,0.32,0.244,0.418,0.422s0.148,0.363,0.148,0.561c-0.027,0.119-0.066,0.291-0.125,0.514
				c-0.057,0.221-0.126,0.447-0.208,0.674l-3.382,8.852c-0.292,0.779-0.576,1.389-0.854,1.832c-0.279,0.443-0.647,0.785-1.107,1.021
				c-0.459,0.238-1.078,0.357-1.856,0.357c-0.759,0-1.33-0.082-1.708-0.246c-0.381-0.166-0.57-0.467-0.57-0.904
				c0-0.297,0.089-0.527,0.271-0.688c0.18-0.162,0.448-0.244,0.801-0.244c0.14,0,0.276,0.02,0.409,0.059
				c0.165,0.037,0.307,0.057,0.427,0.057c0.297,0,0.532-0.043,0.704-0.133c0.17-0.088,0.324-0.242,0.46-0.461
				C379.536-111.75,379.693-112.073,379.87-112.497z"/>
		</g>
		<g>
			<path fill="#FFFFFF" d="M417.433-123.139h0.619v-0.777c0-0.814,0.1-1.457,0.307-1.938c0.203-0.479,0.555-0.826,1.047-1.045
				c0.49-0.217,1.162-0.326,2.016-0.326c1.52,0,2.273,0.367,2.273,1.113c0,0.238-0.08,0.445-0.24,0.615
				c-0.154,0.17-0.344,0.256-0.559,0.256c-0.1,0-0.277-0.018-0.527-0.059c-0.236-0.033-0.451-0.057-0.623-0.057
				c-0.467,0-0.766,0.141-0.904,0.416c-0.127,0.275-0.195,0.668-0.195,1.184v0.617h0.633c0.99,0,1.48,0.297,1.48,0.896
				c0,0.418-0.127,0.689-0.393,0.805c-0.262,0.113-0.623,0.17-1.088,0.17h-0.633v6.871c0,0.512-0.121,0.9-0.369,1.168
				c-0.242,0.273-0.555,0.406-0.943,0.406c-0.367,0-0.67-0.133-0.918-0.406c-0.244-0.268-0.363-0.656-0.363-1.168v-6.871h-0.715
				c-0.389,0-0.682-0.084-0.893-0.262c-0.209-0.17-0.314-0.398-0.314-0.678C416.13-122.831,416.563-123.139,417.433-123.139"/>
			<path fill="#FFFFFF" d="M425.923-116.565v2.168c0,0.523-0.133,0.92-0.375,1.18c-0.246,0.266-0.559,0.395-0.938,0.395
				c-0.381,0-0.688-0.131-0.926-0.4c-0.236-0.264-0.361-0.656-0.361-1.174v-7.223c0-1.166,0.42-1.748,1.262-1.748
				c0.434,0,0.742,0.135,0.934,0.408c0.189,0.273,0.295,0.674,0.316,1.207c0.309-0.533,0.625-0.934,0.949-1.207
				c0.332-0.273,0.762-0.408,1.309-0.408c0.549,0,1.072,0.135,1.586,0.408c0.516,0.273,0.771,0.637,0.771,1.084
				c0,0.314-0.111,0.58-0.326,0.781c-0.221,0.209-0.455,0.313-0.707,0.313c-0.1,0-0.33-0.063-0.691-0.18
				c-0.365-0.113-0.689-0.174-0.963-0.174c-0.381,0-0.693,0.104-0.932,0.299c-0.242,0.205-0.432,0.496-0.564,0.887
				c-0.129,0.395-0.219,0.865-0.273,1.404C425.944-118.004,425.923-117.342,425.923-116.565"/>
			<path fill="#FFFFFF" d="M437.843-117.458h-5.074c0.01,0.588,0.125,1.111,0.355,1.559c0.234,0.447,0.539,0.787,0.924,1.018
				c0.385,0.227,0.805,0.34,1.27,0.34c0.311,0,0.592-0.033,0.85-0.111c0.254-0.07,0.504-0.186,0.744-0.342
				c0.242-0.152,0.461-0.318,0.664-0.5c0.203-0.174,0.467-0.416,0.791-0.719c0.135-0.113,0.324-0.174,0.568-0.174
				c0.268,0,0.48,0.074,0.648,0.223c0.166,0.146,0.244,0.35,0.244,0.617c0,0.234-0.09,0.508-0.268,0.818
				c-0.188,0.318-0.463,0.617-0.836,0.906c-0.375,0.285-0.84,0.527-1.398,0.715c-0.559,0.189-1.205,0.285-1.932,0.285
				c-1.67,0-2.963-0.473-3.887-1.422c-0.924-0.951-1.391-2.242-1.391-3.867c0-0.768,0.117-1.479,0.348-2.135
				c0.225-0.658,0.557-1.217,0.998-1.688c0.436-0.471,0.971-0.828,1.613-1.078c0.637-0.25,1.346-0.375,2.127-0.375
				c1.012,0,1.881,0.215,2.607,0.646c0.723,0.422,1.273,0.977,1.629,1.654c0.361,0.68,0.541,1.367,0.541,2.074
				c0,0.648-0.188,1.07-0.561,1.266C439.046-117.553,438.521-117.458,437.843-117.458 M432.769-118.932h4.701
				c-0.063-0.885-0.297-1.549-0.713-1.986c-0.418-0.441-0.959-0.66-1.641-0.66c-0.646,0-1.178,0.221-1.592,0.67
				C433.11-120.463,432.856-119.805,432.769-118.932"/>
			<path fill="#FFFFFF" d="M448.63-117.458h-5.072c0.006,0.588,0.125,1.111,0.354,1.559c0.232,0.447,0.539,0.787,0.922,1.018
				c0.383,0.227,0.805,0.34,1.271,0.34c0.307,0,0.592-0.033,0.844-0.111c0.26-0.07,0.506-0.186,0.75-0.342
				c0.242-0.152,0.461-0.318,0.664-0.5c0.199-0.174,0.465-0.416,0.789-0.719c0.135-0.113,0.326-0.174,0.568-0.174
				c0.268,0,0.482,0.074,0.65,0.223c0.164,0.146,0.24,0.35,0.24,0.617c0,0.234-0.088,0.508-0.273,0.818
				c-0.178,0.318-0.455,0.617-0.83,0.906c-0.371,0.285-0.84,0.527-1.396,0.715c-0.557,0.189-1.207,0.285-1.934,0.285
				c-1.668,0-2.959-0.473-3.887-1.422c-0.924-0.951-1.389-2.242-1.389-3.867c0-0.768,0.115-1.479,0.348-2.135
				c0.227-0.658,0.559-1.217,0.996-1.688c0.436-0.471,0.973-0.828,1.613-1.078c0.639-0.25,1.352-0.375,2.129-0.375
				c1.01,0,1.879,0.215,2.613,0.646c0.721,0.422,1.266,0.977,1.621,1.654c0.359,0.68,0.545,1.367,0.545,2.074
				c0,0.648-0.191,1.07-0.561,1.266C449.831-117.553,449.306-117.458,448.63-117.458 M443.558-118.932h4.701
				c-0.064-0.885-0.305-1.549-0.715-1.986c-0.422-0.441-0.963-0.66-1.643-0.66c-0.646,0-1.176,0.221-1.594,0.67
				C443.896-120.463,443.642-119.805,443.558-118.932"/>
			<path fill="#FFFFFF" d="M454.31-121.909v0.311c0.486-0.602,0.994-1.043,1.525-1.324c0.518-0.285,1.117-0.428,1.781-0.428
				c0.795,0,1.535,0.209,2.207,0.617c0.672,0.414,1.199,1.016,1.59,1.807c0.389,0.795,0.586,1.73,0.586,2.814
				c0,0.795-0.113,1.531-0.336,2.201c-0.225,0.668-0.537,1.227-0.93,1.68c-0.393,0.449-0.855,0.801-1.389,1.045
				c-0.543,0.242-1.111,0.363-1.729,0.363c-0.738,0-1.363-0.148-1.865-0.447c-0.502-0.291-0.982-0.732-1.441-1.305v3.893
				c0,1.135-0.416,1.709-1.244,1.709c-0.49,0-0.809-0.146-0.971-0.439c-0.152-0.299-0.234-0.723-0.234-1.291v-11.193
				c0-0.494,0.107-0.859,0.32-1.107c0.215-0.238,0.512-0.363,0.885-0.363c0.369,0,0.666,0.125,0.896,0.373
				C454.196-122.741,454.31-122.383,454.31-121.909 M459.394-118.141c0-0.686-0.105-1.273-0.314-1.764
				c-0.209-0.492-0.498-0.867-0.865-1.127c-0.367-0.264-0.783-0.396-1.232-0.396c-0.715,0-1.318,0.283-1.809,0.844
				c-0.492,0.566-0.74,1.395-0.74,2.492c0,1.027,0.244,1.834,0.736,2.406c0.486,0.574,1.086,0.859,1.813,0.859
				c0.428,0,0.83-0.127,1.197-0.373c0.371-0.252,0.664-0.627,0.883-1.127C459.282-116.829,459.394-117.434,459.394-118.141"/>
			<path fill="#FFFFFF" d="M464.61-124.575c-0.363,0-0.67-0.115-0.924-0.336c-0.26-0.223-0.387-0.531-0.387-0.936
				c0-0.369,0.131-0.67,0.396-0.91c0.262-0.234,0.566-0.355,0.914-0.355c0.34,0,0.635,0.105,0.893,0.318
				c0.26,0.219,0.391,0.535,0.391,0.947c0,0.398-0.127,0.711-0.377,0.936C465.263-124.69,464.962-124.575,464.61-124.575
				 M465.894-121.897v7.502c0,0.516-0.123,0.908-0.369,1.172c-0.25,0.27-0.561,0.4-0.941,0.4s-0.686-0.133-0.928-0.406
				c-0.234-0.275-0.355-0.664-0.355-1.166v-7.428c0-0.51,0.121-0.895,0.355-1.154c0.242-0.264,0.547-0.391,0.928-0.391
				s0.691,0.127,0.941,0.391C465.771-122.717,465.894-122.354,465.894-121.897"/>
			<path fill="#FFFFFF" d="M474.253-114.006l-2.283-3.766l-1.408,1.328v2.066c0,0.498-0.133,0.881-0.396,1.148
				c-0.258,0.273-0.566,0.406-0.906,0.406c-0.398,0-0.715-0.131-0.941-0.4c-0.227-0.264-0.344-0.656-0.344-1.174v-11.063
				c0-0.574,0.115-1.012,0.332-1.314c0.223-0.305,0.545-0.451,0.953-0.451c0.398,0,0.713,0.137,0.949,0.41
				c0.234,0.271,0.354,0.674,0.354,1.203v6.293l2.916-3.063c0.361-0.377,0.633-0.641,0.826-0.779
				c0.189-0.139,0.42-0.207,0.689-0.207c0.326,0,0.594,0.104,0.816,0.309c0.211,0.205,0.32,0.465,0.32,0.773
				c0,0.379-0.354,0.889-1.055,1.521l-1.377,1.262l2.658,4.184c0.193,0.313,0.34,0.543,0.424,0.705
				c0.084,0.16,0.131,0.32,0.131,0.463c0,0.412-0.115,0.734-0.342,0.975c-0.225,0.236-0.523,0.354-0.885,0.354
				c-0.316,0-0.564-0.08-0.734-0.256C474.78-113.25,474.544-113.561,474.253-114.006"/>
			<path fill="#FFFFFF" d="M479.89-112.823c-0.393,0-0.729-0.125-1.014-0.381c-0.285-0.248-0.43-0.605-0.43-1.064
				c0-0.385,0.139-0.719,0.41-0.994c0.275-0.279,0.607-0.42,1.008-0.42c0.398,0,0.736,0.141,1.023,0.412
				c0.279,0.275,0.422,0.613,0.422,1.002c0,0.453-0.143,0.809-0.422,1.061C480.601-112.948,480.269-112.823,479.89-112.823"/>
			<path fill="#FFFFFF" d="M492.788-116.032c0,0.32-0.098,0.668-0.291,1.033c-0.191,0.371-0.488,0.719-0.887,1.051
				c-0.395,0.332-0.891,0.602-1.494,0.803c-0.602,0.203-1.281,0.307-2.031,0.307c-1.605,0-2.857-0.469-3.758-1.4
				c-0.895-0.936-1.346-2.189-1.346-3.76c0-1.068,0.205-2.006,0.619-2.824c0.408-0.814,1.004-1.447,1.781-1.895
				c0.779-0.447,1.717-0.67,2.795-0.67c0.674,0,1.287,0.098,1.852,0.295c0.561,0.195,1.033,0.451,1.426,0.76
				c0.387,0.314,0.686,0.643,0.889,0.992c0.207,0.352,0.309,0.68,0.309,0.986c0,0.309-0.113,0.572-0.344,0.787
				c-0.234,0.215-0.516,0.324-0.838,0.324c-0.219,0-0.398-0.057-0.541-0.166c-0.145-0.111-0.305-0.289-0.479-0.541
				c-0.318-0.479-0.646-0.842-0.996-1.08c-0.344-0.242-0.781-0.361-1.314-0.361c-0.762,0-1.383,0.297-1.854,0.896
				c-0.467,0.596-0.703,1.42-0.703,2.455c0,0.488,0.063,0.939,0.184,1.348c0.117,0.406,0.291,0.756,0.52,1.043
				c0.23,0.287,0.504,0.506,0.826,0.654c0.324,0.154,0.682,0.227,1.064,0.227c0.521,0,0.967-0.121,1.336-0.361
				c0.377-0.24,0.703-0.607,0.986-1.102c0.158-0.291,0.328-0.518,0.51-0.684c0.182-0.164,0.408-0.25,0.676-0.25
				c0.316,0,0.58,0.123,0.785,0.363C492.681-116.561,492.788-116.303,492.788-116.032"/>
			<path fill="#FFFFFF" d="M503.978-118.092c0,0.77-0.121,1.484-0.355,2.139c-0.246,0.652-0.592,1.213-1.049,1.678
				c-0.455,0.469-1.002,0.828-1.633,1.08c-0.639,0.248-1.35,0.375-2.139,0.375c-0.785,0-1.492-0.127-2.121-0.383
				c-0.623-0.248-1.17-0.613-1.625-1.082c-0.461-0.477-0.809-1.033-1.053-1.676c-0.229-0.645-0.35-1.355-0.35-2.131
				c0-0.787,0.123-1.506,0.357-2.158c0.242-0.654,0.59-1.213,1.039-1.674c0.451-0.461,0.994-0.816,1.631-1.07
				c0.645-0.248,1.35-0.373,2.121-0.373c0.785,0,1.498,0.125,2.139,0.381c0.639,0.252,1.184,0.615,1.645,1.08
				c0.457,0.475,0.803,1.029,1.039,1.672C503.858-119.584,503.978-118.875,503.978-118.092 M501.374-118.092
				c0-1.059-0.234-1.881-0.697-2.469c-0.463-0.596-1.09-0.889-1.875-0.889c-0.508,0-0.955,0.133-1.342,0.395
				s-0.682,0.648-0.891,1.164c-0.209,0.514-0.314,1.113-0.314,1.799c0,0.678,0.102,1.268,0.309,1.773
				c0.209,0.51,0.502,0.896,0.887,1.166c0.385,0.266,0.834,0.404,1.352,0.404c0.785,0,1.412-0.297,1.875-0.893
				C501.14-116.231,501.374-117.051,501.374-118.092"/>
			<path fill="#FFFFFF" d="M513.87-117.903v3.447c0,0.547-0.121,0.951-0.369,1.227c-0.25,0.273-0.572,0.408-0.979,0.408
				c-0.393,0-0.713-0.135-0.951-0.408c-0.246-0.275-0.371-0.68-0.371-1.227v-4.131c0-0.654-0.021-1.162-0.064-1.525
				c-0.045-0.354-0.168-0.654-0.361-0.883c-0.197-0.234-0.51-0.352-0.932-0.352c-0.85,0-1.406,0.291-1.676,0.881
				c-0.268,0.576-0.406,1.414-0.406,2.508v3.502c0,0.537-0.123,0.945-0.361,1.223c-0.25,0.273-0.568,0.412-0.965,0.412
				s-0.717-0.139-0.967-0.412c-0.252-0.277-0.377-0.686-0.377-1.223v-7.42c0-0.488,0.111-0.859,0.336-1.111
				c0.229-0.256,0.525-0.381,0.889-0.381c0.357,0,0.652,0.123,0.893,0.355c0.236,0.238,0.354,0.566,0.354,0.984v0.244
				c0.453-0.535,0.936-0.932,1.445-1.18c0.516-0.26,1.082-0.387,1.713-0.387c0.65,0,1.211,0.131,1.678,0.391
				c0.469,0.26,0.854,0.654,1.16,1.176c0.439-0.527,0.908-0.922,1.41-1.18c0.5-0.258,1.053-0.387,1.662-0.387
				c0.705,0,1.32,0.143,1.834,0.42c0.51,0.277,0.893,0.68,1.146,1.195c0.221,0.473,0.33,1.209,0.33,2.217v5.063
				c0,0.547-0.121,0.951-0.367,1.227c-0.246,0.273-0.574,0.408-0.979,0.408c-0.395,0-0.715-0.139-0.965-0.412
				c-0.25-0.277-0.377-0.686-0.377-1.223v-4.361c0-0.559-0.023-1.004-0.068-1.338c-0.047-0.338-0.178-0.621-0.383-0.848
				c-0.213-0.227-0.531-0.344-0.953-0.344c-0.342,0-0.666,0.107-0.975,0.309c-0.307,0.197-0.547,0.477-0.721,0.813
				C513.968-119.788,513.87-119.012,513.87-117.903"/>
		</g>
		<g>
			<path fill="#FFFFFF" d="M393.165-118.721c-0.002-0.004-0.002-0.01-0.002-0.018C393.163-118.731,393.163-118.725,393.165-118.721z
				"/>
			<path fill="#FFFFFF" d="M393.296-117.891c0.002,0,0.002,0,0.002,0c-0.049-0.236-0.088-0.471-0.117-0.703
				C393.21-118.36,393.249-118.125,393.296-117.891z"/>
			<path fill="#FFFFFF" d="M394.154-115.485c-0.006-0.01-0.011-0.021-0.017-0.033C394.144-115.506,394.148-115.495,394.154-115.485z
				"/>
			<path fill="#FFFFFF" d="M394.072-115.645c-0.022-0.045-0.044-0.09-0.065-0.135C394.028-115.733,394.05-115.69,394.072-115.645z"
				/>
			<path fill="#FFFFFF" d="M393.537-116.965c0.127,0.4,0.28,0.789,0.457,1.158c-0.181-0.377-0.33-0.766-0.454-1.158
				C393.54-116.965,393.538-116.965,393.537-116.965z"/>
			<path fill="#FFFFFF" d="M403.202-128.657c0.502,0,0.871,0.039,1.295,0.111l0.121-0.764c0,0-1.172-0.359-2.711-0.234l-0.121-0.414
				c0.479-0.102,0.838-0.527,0.838-1.035c0-0.582-0.475-1.053-1.057-1.053c-0.584,0-1.057,0.471-1.057,1.053
				c0,0.508,0.359,0.934,0.836,1.035l0.135,0.463c-1.635,0.225-2.936,0.861-2.936,0.861l0.23,0.705
				c0.988-0.328,1.846-0.529,2.624-0.613C402.162-128.622,402.735-128.657,403.202-128.657z"/>
			<path fill="#FFFFFF" d="M394.135-124.799l0.006-0.008c0.038-0.049,0.075-0.096,0.113-0.143l-0.313-0.225l-0.487-0.357
				c-0.027,0.039-0.795,0.744-1.401,2.049c-0.025-0.041-0.056-0.082-0.09-0.119c-0.182-0.199-0.436-0.301-0.758-0.295
				c-0.004,0-0.01,0-0.016,0c-0.199,0-0.336-0.066-0.426-0.146c0.089-0.113,0.143-0.256,0.143-0.414c0-0.367-0.3-0.668-0.67-0.668
				c-0.368,0-0.668,0.301-0.668,0.668c0,0.371,0.3,0.67,0.668,0.67c0.059,0,0.113-0.01,0.168-0.021
				c0.164,0.184,0.425,0.342,0.807,0.334c0.197-0.002,0.342,0.049,0.438,0.156c0.111,0.121,0.148,0.295,0.16,0.428
				c-0.001,0.002-0.001,0.004-0.003,0.004c-0.436,1.189-0.312,2.67-0.312,2.67l1.058,0.043c0.021-0.539,0.099-1.482,0.372-2.23
				C393.448-123.854,394.108-124.76,394.135-124.799z"/>
			<path fill="#FFFFFF" d="M412.401-127.774c-0.367,0-0.668,0.299-0.668,0.67c0,0.057,0.008,0.111,0.023,0.164
				c-0.184,0.166-0.344,0.428-0.338,0.811c0.004,0.197-0.047,0.34-0.154,0.438c-0.084,0.074-0.191,0.115-0.295,0.141
				c-0.787-1.104-1.756-1.775-1.756-1.775l-0.76,0.813c0.574,0.521,1.16,1.176,1.729,1.99c0.395,0.564,0.799,1.291,1.137,2.016
				l1.023-0.486c0,0-0.467-1.156-1.125-2.191c0.113-0.041,0.229-0.104,0.33-0.193c0.201-0.18,0.299-0.436,0.293-0.758
				c-0.002-0.207,0.066-0.348,0.148-0.441c0.115,0.088,0.258,0.143,0.412,0.143c0.371,0,0.67-0.299,0.67-0.668
				C413.071-127.475,412.772-127.774,412.401-127.774z"/>
			<path fill="#FFFFFF" d="M409.745-118.571c-1.41,0.686-3.729,1.594-6.781,2.02c-1.199,0.166-2.359,0.227-3.429,0.227
				c-1.391,0-2.62-0.104-3.563-0.223c-1.076-0.135-1.917-0.301-2.433-0.418c0.124,0.393,0.273,0.781,0.454,1.158
				c0.003,0.01,0.008,0.021,0.013,0.027c0.021,0.045,0.043,0.09,0.065,0.135c0.021,0.043,0.043,0.086,0.065,0.127
				c0.006,0.012,0.011,0.023,0.017,0.033c0.303,0.57,0.667,1.094,1.081,1.549c1.439,1.574,2.906,1.824,2.92,1.826l0.023,0.002
				l0.021,0.008c0.014,0.006,1.314,0.426,3.291,0.426c1.945,0,3.855-0.393,5.674-1.168c1.348-0.689,2.623-1.736,3.254-2.67
				c0.488-0.723,0.842-1.492,1.051-2.293c0.111-0.426,0.199-1.107,0.146-1.826C411.22-119.364,410.593-118.985,409.745-118.571z"/>
			<path fill="#FFFFFF" d="M394.587-124.465c-0.041,0.061-0.652,0.926-1.135,2.254c-0.361,0.994-0.346,2.443-0.346,2.459v0.004
				c0,0.34,0.02,0.676,0.057,1.01c0,0.008,0,0.014,0.002,0.018c0.004,0.043,0.012,0.084,0.016,0.127
				c0.029,0.232,0.068,0.467,0.118,0.703c0.7,0.178,4.878,1.152,9.548,0.502c2.928-0.408,5.15-1.273,6.5-1.928
				c1.121-0.543,1.842-1.035,2.119-1.238c-0.277-1.027-1.041-2.641-1.742-3.646c-2.006-2.865-4.168-3.6-5.277-3.783
				c-0.424-0.068-0.764-0.109-1.244-0.109c-0.447,0-1.002,0.037-1.742,0.115c-0.744,0.076-1.572,0.271-2.533,0.596
				c-1.348,0.451-2.566,1.158-3.526,2.047l-0.032,0.031C395.226-125.174,394.929-124.899,394.587-124.465z M406.856-125.131
				c0.961,0,1.744,0.781,1.744,1.742c0,0.963-0.783,1.744-1.744,1.744s-1.742-0.781-1.742-1.744
				C405.114-124.35,405.896-125.131,406.856-125.131z M398.615-125.202c1.557,0,2.817,1.262,2.817,2.818
				c0,1.555-1.261,2.814-2.817,2.814c-1.555,0-2.815-1.26-2.815-2.814C395.8-123.94,397.061-125.202,398.615-125.202z"/>
		</g>
	</g>
	<rect x="43.041" y="26.5" fill="#EEEFEF" width="697.098" height="351"/>
	<g>
		<g>
			<path fill="#EEEFEF" d="M867.066-208.386c3.225,0,3.225-5,0-5S863.842-208.386,867.066-208.386L867.066-208.386z"/>
		</g>
	</g>
	<polygon fill-rule="evenodd" clip-rule="evenodd" fill="#DEC8AE" points="43.041,421.315 740.139,421.315 752,498.675 35,498.675 	
		"/>
	<g>
		<path d="M298.639,141.716h-1.047v-28.25h1.047V141.716z"/>
		<path d="M331.564,133.276H317.77l-3.163,8.44h-1.145l10.555-28.25h1.281l10.574,28.25h-1.145L331.564,133.276z M318.158,132.228
			h13.019l-5.917-15.813l-0.543-1.649h-0.117l-0.524,1.649L318.158,132.228z"/>
		<path d="M353.625,140.047h0.116l11.796-26.581h1.184v28.25h-1.047v-25.669l-0.117-0.02l-11.447,25.688h-0.834l-11.7-26.251
			l-0.116,0.02v26.231h-1.048v-28.25h1.455L353.625,140.047z"/>
		<path d="M398.87,133.276h-13.795l-3.163,8.44h-1.145l10.555-28.25h1.28l10.574,28.25h-1.145L398.87,133.276z M385.464,132.228
			h13.019l-5.918-15.813l-0.543-1.649h-0.116l-0.524,1.649L385.464,132.228z"/>
		<path d="M436.413,132.888l0.039,0.117c0.052,2.768-0.854,4.98-2.716,6.635c-1.863,1.656-4.308,2.483-7.334,2.483
			c-3.144,0-5.679-1.135-7.605-3.405c-1.928-2.27-2.892-5.209-2.892-8.818v-4.598c0-3.596,0.964-6.535,2.892-8.818
			c1.927-2.283,4.462-3.424,7.605-3.424c3.065,0,5.52,0.809,7.363,2.425c1.843,1.617,2.738,3.841,2.687,6.674l-0.039,0.116h-2.173
			c0-2.276-0.695-4.052-2.085-5.326c-1.391-1.274-3.309-1.911-5.753-1.911c-2.471,0-4.453,0.957-5.947,2.872
			c-1.494,1.914-2.24,4.365-2.24,7.353v4.637c0,3.027,0.746,5.494,2.24,7.402c1.494,1.908,3.477,2.862,5.947,2.862
			c2.444,0,4.362-0.621,5.753-1.862c1.39-1.242,2.085-3.046,2.085-5.414H436.413z"/>
		<path d="M463.149,129.9c0,3.647-0.999,6.597-2.997,8.847c-1.999,2.251-4.68,3.376-8.042,3.376c-3.312,0-5.954-1.125-7.926-3.376
			c-1.973-2.25-2.959-5.2-2.959-8.847v-4.598c0-3.635,0.982-6.584,2.949-8.848c1.966-2.263,4.604-3.395,7.916-3.395
			c3.362,0,6.047,1.132,8.052,3.395c2.005,2.264,3.007,5.213,3.007,8.848V129.9z M460.841,125.263c0-3.052-0.772-5.51-2.318-7.373
			c-1.546-1.863-3.689-2.794-6.432-2.794c-2.69,0-4.786,0.931-6.286,2.794c-1.501,1.862-2.251,4.32-2.251,7.373v4.637
			c0,3.079,0.753,5.549,2.261,7.412c1.506,1.863,3.605,2.794,6.296,2.794c2.755,0,4.898-0.928,6.432-2.784
			c1.532-1.856,2.299-4.33,2.299-7.421V125.263z"/>
		<path d="M489.886,129.9c0,3.647-0.999,6.597-2.998,8.847c-1.998,2.251-4.679,3.376-8.042,3.376c-3.312,0-5.953-1.125-7.926-3.376
			c-1.973-2.25-2.959-5.2-2.959-8.847v-4.598c0-3.635,0.983-6.584,2.949-8.848c1.966-2.263,4.604-3.395,7.916-3.395
			c3.363,0,6.047,1.132,8.052,3.395c2.005,2.264,3.008,5.213,3.008,8.848V129.9z M487.577,125.263c0-3.052-0.773-5.51-2.319-7.373
			c-1.545-1.863-3.689-2.794-6.432-2.794c-2.69,0-4.786,0.931-6.286,2.794c-1.501,1.862-2.251,4.32-2.251,7.373v4.637
			c0,3.079,0.754,5.549,2.261,7.412s3.605,2.794,6.296,2.794c2.755,0,4.899-0.928,6.432-2.784c1.533-1.856,2.3-4.33,2.3-7.421
			V125.263z"/>
		<path d="M498.229,139.756h14.591v1.959H495.9v-28.25h2.328V139.756z"/>
		<path d="M544.25,135.061c0-1.617-0.663-2.92-1.988-3.91c-1.326-0.989-3.587-2.008-6.781-3.056
			c-3.182-0.97-5.526-1.999-7.033-3.085s-2.261-2.697-2.261-4.831c0-2.122,0.883-3.838,2.648-5.151
			c1.766-1.313,4.007-1.969,6.723-1.969c2.82,0,5.087,0.725,6.801,2.173c1.714,1.449,2.545,3.473,2.493,6.073l-0.039,0.117h-0.893
			c0-2.108-0.775-3.854-2.328-5.239c-1.552-1.384-3.563-2.076-6.034-2.076c-2.548,0-4.572,0.599-6.072,1.795
			c-1.501,1.197-2.251,2.609-2.251,4.239s0.604,2.953,1.814,3.968c1.209,1.016,3.463,2.008,6.762,2.978
			c3.207,1.009,5.594,2.057,7.159,3.144c1.564,1.086,2.348,2.684,2.348,4.792c0,2.147-0.925,3.868-2.774,5.161
			c-1.851,1.293-4.133,1.94-6.85,1.94c-2.832,0-5.271-0.663-7.314-1.988s-3.033-3.412-2.969-6.257l0.039-0.117h0.873
			c0,2.562,0.944,4.421,2.833,5.578c1.889,1.158,4.067,1.737,6.538,1.737s4.515-0.572,6.132-1.717
			C543.441,138.214,544.25,136.781,544.25,135.061z"/>
		<path d="M552.341,129.589v12.126h-1.048v-28.25h8.828c2.923,0,5.174,0.734,6.752,2.202c1.578,1.468,2.367,3.418,2.367,5.85
			c0,2.458-0.786,4.417-2.357,5.879c-1.571,1.462-3.825,2.192-6.762,2.192H552.341z M552.341,128.542h7.78
			c2.678,0,4.692-0.666,6.044-1.999c1.352-1.332,2.027-2.994,2.027-4.986c0-2.043-0.673-3.729-2.018-5.054
			c-1.346-1.326-3.363-1.989-6.054-1.989h-7.78V128.542z"/>
		<path d="M589.787,127.514h-13.582v13.154h15.561v1.048h-16.608v-28.25h16.608v1.048h-15.561v11.952h13.582V127.514z"/>
		<path d="M611.944,133.276h-13.795l-3.163,8.44h-1.145l10.555-28.25h1.281l10.573,28.25h-1.145L611.944,133.276z M598.537,132.228
			h13.019l-5.917-15.813l-0.543-1.649h-0.117l-0.523,1.649L598.537,132.228z"/>
		<path d="M625.39,127.727h-3.551v13.989h-1.048v-28.25h1.048v13.232h3.842l11.603-13.232h1.241l0.039,0.097l-12.01,13.795
			l13.484,14.241l-0.059,0.116h-1.222L625.39,127.727z"/>
		<path d="M659.228,127.514h-13.582v13.154h15.561v1.048h-16.608v-28.25h16.608v1.048h-15.561v11.952h13.582V127.514z"/>
		<path d="M667.453,128.464v13.271h-1.048v-28.25h9.197c2.975,0,5.264,0.644,6.868,1.931c1.604,1.287,2.405,3.166,2.405,5.636
			c0,1.591-0.508,3.036-1.522,4.336c-1.016,1.3-2.403,2.144-4.162,2.532c2.03,0.349,3.485,1.093,4.365,2.231
			s1.319,2.593,1.319,4.365v2.658c0,0.88,0.107,1.668,0.32,2.367c0.214,0.698,0.565,1.268,1.058,1.707v0.485h-1.028
			c-0.466-0.53-0.815-1.187-1.048-1.969s-0.35-1.659-0.35-2.629v-2.58c0-1.915-0.656-3.408-1.969-4.482
			c-1.313-1.074-3.186-1.61-5.617-1.61H667.453z M667.453,127.417h7.955c2.884,0,5.009-0.608,6.373-1.824
			c1.365-1.216,2.047-2.729,2.047-4.54c0-2.108-0.688-3.722-2.065-4.841c-1.378-1.119-3.432-1.678-6.16-1.678h-8.149V127.417z"/>
		<path d="M315.577,162.197h-9.895v27.202h-1.048v-27.202h-10.593v-1.048h21.536V162.197z"/>
		<path d="M340.703,189.398h-1.047v-13.484h-18.044v13.484h-1.048v-28.25h1.048v13.717h18.044v-13.717h1.047V189.398z"/>
		<path d="M363.694,180.958h-13.795l-3.163,8.44h-1.145l10.555-28.25h1.281l10.574,28.25h-1.145L363.694,180.958z M350.288,179.911
			h13.019l-5.917-15.813l-0.543-1.649h-0.117l-0.524,1.649L350.288,179.911z"/>
		<path d="M392.895,189.398h-1.048l-18.122-26.309l-0.116,0.039v26.271h-1.067v-28.25h1.067L391.73,187.4l0.116-0.039v-26.212h1.048
			V189.398z"/>
		<path d="M405.254,175.41h-3.551v13.989h-1.048v-28.25h1.048v13.232h3.842l11.603-13.232h1.241l0.039,0.097l-12.01,13.795
			l13.484,14.241l-0.059,0.116h-1.222L405.254,175.41z"/>
		<path d="M441.147,182.744c0-1.617-0.663-2.92-1.988-3.91c-1.326-0.989-3.587-2.008-6.781-3.056
			c-3.182-0.97-5.526-1.999-7.033-3.085s-2.261-2.697-2.261-4.831c0-2.122,0.883-3.838,2.648-5.151
			c1.766-1.313,4.007-1.969,6.723-1.969c2.82,0,5.087,0.725,6.801,2.173c1.714,1.449,2.545,3.473,2.493,6.073l-0.039,0.117h-0.893
			c0-2.108-0.775-3.854-2.328-5.239c-1.552-1.384-3.563-2.076-6.034-2.076c-2.548,0-4.572,0.599-6.072,1.795
			c-1.501,1.197-2.251,2.609-2.251,4.239s0.604,2.953,1.814,3.968c1.209,1.016,3.463,2.008,6.762,2.978
			c3.207,1.009,5.594,2.057,7.159,3.144c1.564,1.086,2.348,2.684,2.348,4.792c0,2.147-0.925,3.868-2.774,5.161
			c-1.851,1.293-4.133,1.94-6.85,1.94c-2.832,0-5.271-0.663-7.314-1.988s-3.033-3.412-2.969-6.257l0.039-0.117h0.873
			c0,2.562,0.944,4.421,2.833,5.578c1.889,1.158,4.067,1.737,6.538,1.737s4.515-0.572,6.132-1.717
			C440.339,185.896,441.147,184.464,441.147,182.744z"/>
		<path d="M472.637,175.506h-13.892v13.892h-1.048v-28.25h16.919v1.048h-15.871v12.223h13.892V175.506z"/>
		<path d="M499.567,177.389c0,3.816-0.944,6.839-2.833,9.07c-1.889,2.231-4.488,3.347-7.8,3.347c-3.324,0-5.934-1.115-7.828-3.347
			c-1.896-2.231-2.843-5.254-2.843-9.07v-4.23c0-3.803,0.941-6.823,2.823-9.061s4.484-3.356,7.81-3.356
			c3.311,0,5.917,1.119,7.818,3.356s2.853,5.258,2.853,9.061V177.389z M498.52,173.12c0-3.466-0.834-6.221-2.503-8.265
			c-1.668-2.044-4.042-3.066-7.12-3.066c-3.065,0-5.427,1.022-7.082,3.066c-1.656,2.044-2.483,4.799-2.483,8.265v4.269
			c0,3.492,0.831,6.26,2.493,8.304c1.662,2.043,4.032,3.065,7.11,3.065c3.079,0,5.445-1.019,7.102-3.056
			c1.655-2.037,2.483-4.808,2.483-8.313V173.12z"/>
		<path d="M506.979,176.147v13.271h-1.048v-28.25h9.197c2.975,0,5.264,0.644,6.868,1.931c1.604,1.287,2.406,3.166,2.406,5.636
			c0,1.591-0.508,3.036-1.523,4.336c-1.016,1.3-2.403,2.144-4.162,2.532c2.031,0.349,3.486,1.093,4.366,2.231
			c0.879,1.138,1.319,2.593,1.319,4.365v2.658c0,0.88,0.106,1.668,0.319,2.367c0.214,0.698,0.566,1.268,1.058,1.707v0.485h-1.028
			c-0.466-0.53-0.814-1.187-1.048-1.969c-0.232-0.783-0.349-1.659-0.349-2.629v-2.58c0-1.915-0.657-3.408-1.97-4.482
			s-3.186-1.61-5.617-1.61H506.979z M506.979,175.099h7.955c2.885,0,5.009-0.608,6.374-1.824c1.364-1.216,2.047-2.729,2.047-4.54
			c0-2.108-0.689-3.722-2.066-4.841c-1.378-1.119-3.432-1.678-6.16-1.678h-8.149V175.099z"/>
		<path d="M555.058,161.149h1.048v20.062c0,2.626-0.737,4.714-2.212,6.267s-3.376,2.328-5.704,2.328
			c-2.588,0-4.628-0.685-6.122-2.057c-1.493-1.371-2.208-3.375-2.144-6.015l0.039-0.116h0.893c0,2.445,0.617,4.246,1.853,5.403
			c1.235,1.158,3.063,1.737,5.481,1.737c1.979,0,3.618-0.679,4.918-2.037c1.3-1.358,1.95-3.195,1.95-5.51V161.149z"/>
		<path d="M583.772,177.389c0,3.816-0.944,6.839-2.833,9.07c-1.889,2.231-4.488,3.347-7.8,3.347c-3.324,0-5.934-1.115-7.828-3.347
			c-1.896-2.231-2.843-5.254-2.843-9.07v-4.23c0-3.803,0.941-6.823,2.823-9.061s4.484-3.356,7.81-3.356
			c3.311,0,5.917,1.119,7.818,3.356s2.853,5.258,2.853,9.061V177.389z M582.725,173.12c0-3.466-0.834-6.221-2.503-8.265
			c-1.668-2.044-4.042-3.066-7.12-3.066c-3.065,0-5.427,1.022-7.082,3.066c-1.656,2.044-2.483,4.799-2.483,8.265v4.269
			c0,3.492,0.831,6.26,2.493,8.304c1.662,2.043,4.032,3.065,7.11,3.065c3.079,0,5.445-1.019,7.102-3.056
			c1.655-2.037,2.483-4.808,2.483-8.313V173.12z"/>
		<path d="M592.057,189.398h-1.047v-28.25h1.047V189.398z"/>
		<path d="M620.947,189.398h-1.048l-18.122-26.309l-0.116,0.039v26.271h-1.067v-28.25h1.067l18.121,26.251l0.117-0.039v-26.212
			h1.048V189.398z"/>
		<path d="M630.531,189.398h-1.048v-28.25h1.048V189.398z"/>
		<path d="M659.421,189.398h-1.048l-18.121-26.309l-0.116,0.039v26.271h-1.067v-28.25h1.067l18.121,26.251l0.116-0.039v-26.212
			h1.048V189.398z"/>
		<path d="M687.089,185.596c-0.596,1.009-1.736,1.963-3.425,2.862c-1.688,0.899-3.761,1.348-6.218,1.348
			c-3.234,0-5.856-1.151-7.868-3.453s-3.017-5.297-3.017-8.983v-4.618c0-3.544,0.977-6.432,2.93-8.663
			c1.953-2.231,4.494-3.347,7.625-3.347c3.014,0,5.416,0.776,7.208,2.328c1.791,1.552,2.654,3.544,2.59,5.976l-0.039,0.116h-0.873
			c0-2.16-0.772-3.929-2.318-5.307c-1.546-1.377-3.734-2.066-6.567-2.066c-2.859,0-5.158,1.019-6.897,3.056
			c-1.74,2.037-2.609,4.66-2.609,7.868v4.656c0,3.363,0.898,6.102,2.696,8.217s4.178,3.172,7.141,3.172
			c2.263,0,4.129-0.369,5.597-1.106c1.469-0.737,2.468-1.584,2.998-2.542v-8.032h-8.634v-1.067h9.682V185.596z"/>
		<path d="M695.723,189.398h-1.843v-2.6h1.843V189.398z M695.315,180.124h-1.048v-18.975h1.048V180.124z"/>
	</g>
</g>
<g id="object">
	<g>
		<g>
			<g>
				<path fill-rule="evenodd" clip-rule="evenodd" fill="#F3DBBD" d="M287.034,228.728L287.034,228.728
					c0.873,0.571,1.043,1.639,0.405,2.383l-9.336,11.124c-0.639,0.747-1.897,0.879-2.771,0.31l0,0
					c-0.874-0.571-1.045-1.637-0.407-2.386l9.34-11.122C284.903,228.289,286.159,228.158,287.034,228.728z"/>
				<path fill-rule="evenodd" clip-rule="evenodd" fill="#E5CFB3" d="M264.42,253.31l6.369,5.144l6.316-4.44
					c3.362-2.362,6.417-11.459,7.886-15.436l-5.694-2.175l-11.75,7.406L264.42,253.31z"/>
				<path fill-rule="evenodd" clip-rule="evenodd" fill="#F3DBBD" d="M267.75,246.157l0.918,1.056l1.016-1.094l8.169-8.769
					c0.918-0.987,1.035-1.94,0.76-2.823c-0.234-0.75-1.257-2.177-1.691-1.708l-9.253,9.976
					C266.859,243.665,266.895,245.178,267.75,246.157z"/>
				<path fill-rule="evenodd" clip-rule="evenodd" fill="#FFE7D4" d="M277.41,232.739c-0.178-0.201-0.321-0.095-0.394-0.019
					l-1.841,2.017c0.908,0.794,1.962-0.101,2.474-1.187C277.722,233.394,277.634,232.996,277.41,232.739z"/>
				<path fill-rule="evenodd" clip-rule="evenodd" fill="#F3DBBD" d="M280.615,247.596L280.615,247.596
					c0.527,0.729,0.34,1.645-0.407,2.042l-2.542,1.349c-0.747,0.396-1.794,0.121-2.321-0.605l0,0
					c-0.527-0.726-0.343-1.646,0.405-2.041l2.544-1.348C279.042,246.594,280.088,246.867,280.615,247.596z"/>
				<path fill-rule="evenodd" clip-rule="evenodd" fill="#F3DBBD" d="M282.749,242.522L282.749,242.522
					c0.611,0.848,0.396,1.914-0.473,2.374l-2.514,1.333c-0.869,0.462-2.085,0.144-2.697-0.703l0,0
					c-0.613-0.845-0.398-1.91,0.472-2.371l2.514-1.333C280.923,241.362,282.136,241.678,282.749,242.522z"/>
				<path fill-rule="evenodd" clip-rule="evenodd" fill="#FFE7D4" d="M280.1,243.889L280.1,243.889
					c0.485,0.67,0.315,1.521-0.375,1.884l-0.26,0.138c-0.691,0.364-1.657,0.114-2.144-0.558l0,0
					c-0.486-0.673-0.315-1.519,0.376-1.887l0.259-0.136C278.649,242.964,279.614,243.217,280.1,243.889z"/>
				<path fill-rule="evenodd" clip-rule="evenodd" fill="#FFE7D4" d="M278.189,248.822L278.189,248.822
					c0.447,0.617,0.291,1.396-0.344,1.729l-0.239,0.128c-0.634,0.334-1.523,0.104-1.969-0.512l0,0
					c-0.446-0.618-0.291-1.396,0.345-1.732l0.24-0.126C276.857,247.973,277.744,248.205,278.189,248.822z"/>
				<path fill-rule="evenodd" clip-rule="evenodd" fill="#F3DBBD" d="M284.733,237.106L284.733,237.106
					c0.61,0.846,0.395,1.912-0.473,2.372l-2.515,1.333c-0.87,0.461-2.085,0.145-2.696-0.702l0,0
					c-0.612-0.847-0.398-1.911,0.473-2.372l2.516-1.334C282.907,235.943,284.121,236.259,284.733,237.106z"/>
				<path fill-rule="evenodd" clip-rule="evenodd" fill="#FFE7D4" d="M282.083,238.471L282.083,238.471
					c0.487,0.672,0.316,1.521-0.374,1.885l-0.26,0.139c-0.691,0.363-1.656,0.114-2.143-0.56l0,0
					c-0.487-0.673-0.317-1.52,0.375-1.885l0.26-0.137C280.634,237.548,281.598,237.798,282.083,238.471z"/>
				<path fill-rule="evenodd" clip-rule="evenodd" fill="#F3DBBD" d="M264.42,253.31l4.533,3.659
					c2.893-3.252,6.934-10.023,3.12-13.62c-0.48-0.598-0.973-1.079-1.473-1.464l-3.053,1.924L264.42,253.31z"/>
			</g>
			<g>
				<polygon fill-rule="evenodd" clip-rule="evenodd" fill="#F2CAA9" points="131.575,322.857 141.014,327.285 147.199,314.111 
					137.759,309.684 				"/>
				<path fill-rule="evenodd" clip-rule="evenodd" fill="#F3DBBD" d="M144.915,316.42l-9.546-2.113l-1.658,7.5l-4.765,7.404
					c3.991,1.766,11.23-0.297,10.711,5.623L144.915,316.42z"/>
				<path fill-rule="evenodd" clip-rule="evenodd" fill="#F3DBBD" d="M127.451,332.078l6.348-14.127
					c0.526-1.082,1.857-1.512,2.932-0.975l0,0c0.101,0.053,0.198,0.111,0.286,0.172l0.565-1.164c0.55-1.127,1.943-1.58,3.069-1.016
					l0,0c0.782,0.391,1.235,1.178,1.252,1.998c0.516-0.098,1.065-0.031,1.566,0.219l0,0c1.212,0.611,1.694,2.094,1.1,3.316
					l-8.171,14.771l-2.299,6.734c-0.596,1.219-2.103,1.709-3.316,1.096l0,0c-1.159-0.582-1.094-2.541-0.621-3.729
					C130.087,338.387,126.09,334.875,127.451,332.078z"/>
				<path fill-rule="evenodd" clip-rule="evenodd" fill="#F3DBBD" d="M131.179,351.104L131.179,351.104
					c-0.923-0.156-1.537-1.035-1.392-1.961l2.825-14.363l-0.05-0.137l3.18,2.119l-2.601,12.953
					C132.996,350.637,132.102,351.262,131.179,351.104z"/>
				<path fill-rule="evenodd" clip-rule="evenodd" fill="#F3DBBD" d="M140.848,341.418L140.848,341.418
					c-1-0.107-1.719-1.012-1.625-2.014l0.526-5.537c0.064-2.102-1.638-1.686-2.862,0.525l-2.974-11.834l5.852-3.889l2.328,4.992
					c1.634,0.365,2.009,3.127,1.877,4.506l-1.104,11.621C142.771,340.795,141.851,341.523,140.848,341.418z"/>
				<path fill-rule="evenodd" clip-rule="evenodd" fill="#F3DBBD" d="M131.4,348.223L131.4,348.223
					c-0.929,0.109-1.766-0.563-1.889-1.488l-1.358-14.576l-0.088-0.117l3.651,1.135l1.172,13.156
					C133.012,347.26,132.331,348.111,131.4,348.223z"/>
				<path fill-rule="evenodd" clip-rule="evenodd" fill="#F3DBBD" d="M133.973,348.404L133.973,348.404
					c-0.871,0.344-1.853-0.092-2.208-0.957l-4.479-12.955l3.832,2.039l3.813,9.67C135.285,347.063,134.843,348.059,133.973,348.404z
					"/>
			</g>
			<polygon fill-rule="evenodd" clip-rule="evenodd" fill="#FFFFFF" points="128.327,324.666 145.003,328.641 145.951,324.803 
				129.273,320.83 			"/>
			<path fill-rule="evenodd" clip-rule="evenodd" fill="#231F20" d="M165.756,245.662l-10.969-12.584
				c-5.248,3.738-8.291,12.154-9.069,15.422l-17.377,72.998c-0.001,0.012,0.009,0.035,0.026,0.037l18.292,4.361
				c0.017,0,0.032-0.006,0.039-0.02l19.083-80.177C165.785,245.685,165.765,245.672,165.756,245.662z"/>
			<g>
				<path fill-rule="evenodd" clip-rule="evenodd" fill="#231F20" d="M164.947,320.961h15.621c2.149,0,3.907,1.758,3.907,3.904
					v115.652c0,2.15-1.757,3.906-3.907,3.906h-15.621c-2.15,0-3.908-1.756-3.908-3.906V324.865
					C161.04,322.719,162.797,320.961,164.947,320.961z"/>
				<path fill-rule="evenodd" clip-rule="evenodd" fill="#231F20" d="M191.88,320.961h15.621c2.149,0,3.906,1.758,3.906,3.904
					v115.652c0,2.15-1.757,3.906-3.906,3.906H191.88c-2.148,0-3.905-1.756-3.905-3.906V324.865
					C187.975,322.719,189.732,320.961,191.88,320.961z"/>
			</g>
			<path fill-rule="evenodd" clip-rule="evenodd" fill="#231F20" d="M211.441,254.701l6.708-21.515
				c0.004-0.014,25.793,27.528,29.073,30.839l15.87-15.715c0.011-0.01,0.034-0.01,0.045,0.002l13.247,13.348
				c0.01,0.008,0.01,0.03,0,0.041l-24.258,24.025c-4.576,4.527-8.677,1.303-10.504-0.551c-10.03-10.169-20.12-20.288-30.182-30.43
				C211.431,254.733,211.438,254.714,211.441,254.701z"/>
			<path fill-rule="evenodd" clip-rule="evenodd" fill="#414042" d="M213.882,331.689c-18.365,5.107-36.732,5.377-55.097,0
				l-2.972-64.457c-0.733-16.013,2.348-15.578-1.025-34.154c7.667-5.444,18.669-9.742,23.332-13.542
				c2.536,2.232,5.324,3.554,8.198,3.554s5.663-1.322,8.197-3.554c4.708,3.836,15.977,8.124,23.636,13.65
				c-4.358,18.127-0.512,18.202-1.293,34.96L213.882,331.689z"/>
			<polygon fill-rule="evenodd" clip-rule="evenodd" fill="#FFFFFF" points="170.353,224.656 172.135,241.099 186.419,277.359 
				200.5,241.099 202.283,224.656 195.469,220.275 177.167,220.275 			"/>
			<rect x="177.167" y="214.388" fill-rule="evenodd" clip-rule="evenodd" fill="#E5CFB3" width="18.141" height="14.78"/>
			<path fill-rule="evenodd" clip-rule="evenodd" fill="#F3DBBD" d="M186.317,223.09c7.15,0,13.769-8.176,17.26-18.19
				c0.203,0.209,0.434,0.343,0.689,0.384c1.421,0.237,3.053-2.436,3.64-5.969c0.586-3.533-0.092-6.588-1.513-6.823
				c-0.101-0.017-0.203-0.02-0.305-0.007c0.698-12.411-4.448-23.877-19.771-23.877c-15.333,0-20.475,11.481-19.768,23.906
				c-0.156-0.042-0.311-0.047-0.464-0.022c-1.423,0.235-2.1,3.29-1.515,6.823c0.587,3.534,2.217,6.206,3.639,5.969
				c0.303-0.049,0.571-0.229,0.801-0.512C172.491,214.847,179.137,223.09,186.317,223.09z"/>
			<path fill-rule="evenodd" clip-rule="evenodd" fill="#3B1911" d="M206.091,192.485c0.696-12.411-4.451-23.877-19.774-23.877
				c-15.333,0-20.477,11.481-19.77,23.906c1.239,0.308,2.533,2.579,3.103,5.534c0.999,0.674,1.723,0.281,1.723-2.222
				c0-7.384,0.914-13.931,5.765-15.491c4.616-1.486,5.63,1.774,9.153,1.774s4.633-3.069,9.154-1.774
				c4.692,1.346,5.763,8.107,5.763,15.491c0,2.402,0.667,2.861,1.605,2.299C203.397,195.004,204.791,192.628,206.091,192.485z"/>
			<path fill-rule="evenodd" clip-rule="evenodd" fill="#2C6EB5" d="M188.685,238.308l0.995-2.103l-3.363-8.147l-3.305,8.015
				l1.056,2.234C185.607,238.308,187.146,238.308,188.685,238.308z"/>
			<polygon fill-rule="evenodd" clip-rule="evenodd" fill="#CCCCCC" points="177.167,220.275 186.317,228.059 181.182,241.8 
				172.898,223.106 			"/>
			<polygon fill-rule="evenodd" clip-rule="evenodd" fill="#231F20" points="172.898,223.106 186.317,277.557 167.484,247.521 
				169.956,242.279 164.583,237.994 170.353,224.656 			"/>
			<polygon fill-rule="evenodd" clip-rule="evenodd" fill="#CCCCCC" points="195.469,220.275 186.317,228.059 191.456,241.8 
				199.738,223.106 			"/>
			<polygon fill-rule="evenodd" clip-rule="evenodd" fill="#2C6EB5" points="184.068,243.415 188.685,243.415 191.083,266.553 
				186.317,277.557 181.731,266.553 			"/>
			<polygon fill-rule="evenodd" clip-rule="evenodd" fill="#FFFFFF" points="177.167,220.275 186.317,228.059 181.07,238.404 
				172.898,223.106 			"/>
			<polygon fill-rule="evenodd" clip-rule="evenodd" fill="#231F20" points="172.898,223.106 186.317,277.557 169.314,245.127 
				172.135,241.099 166.695,236.869 170.353,224.656 			"/>
			<polygon fill-rule="evenodd" clip-rule="evenodd" fill="#231F20" points="199.738,223.106 186.317,277.557 205.152,247.521 
				202.678,242.279 208.054,237.994 202.283,224.656 			"/>
			<polygon fill-rule="evenodd" clip-rule="evenodd" fill="#231F20" points="199.738,223.106 186.317,277.557 203.32,245.127 
				200.5,241.099 205.94,236.869 202.283,224.656 			"/>
			<polygon fill-rule="evenodd" clip-rule="evenodd" fill="#FFFFFF" points="195.469,220.275 186.317,228.059 191.565,238.404 
				199.738,223.106 			"/>
			<path fill-rule="evenodd" clip-rule="evenodd" fill="#2C6EB5" d="M184.068,237.926h4.616c1.032,2.136,0.951,4.008,0,5.834h-4.616
				C183.118,241.934,183.035,240.062,184.068,237.926z"/>
			<path fill-rule="evenodd" clip-rule="evenodd" fill="#231F20" d="M186.678,335.619c-1.798-18.029-2.115-42-0.361-62.779
				C188.073,293.619,188.472,317.59,186.678,335.619z"/>
		</g>
		<g>
			<polygon fill="#CCC8C0" points="217.461,469.155 141.4,469.155 136.066,338.136 222.796,338.136 			"/>
			<rect x="116.738" y="297.798" fill="#E0DCD3" width="124.333" height="58.009"/>
		</g>
	</g>
	<g>
		<defs>
			<rect id="SVGID_1_" x="-16" y="-144.5" width="800" height="800"/>
		</defs>
		<clipPath id="SVGID_2_">
			<use xlink:href="#SVGID_1_"  overflow="visible"/>
		</clipPath>
		<g clip-path="url(#SVGID_2_)">
			<g>
				<g>
					<path fill-rule="evenodd" clip-rule="evenodd" fill="#0E3C64" d="M116.065,469.455c7.846-1.873,18.778-6.314,20.202,0.032
						c1.694,7.547,3.787,25.434,5.981,42.812c0.472,3.744-4.331,5.688-5.524,6.05c-5.345,1.616-9.936,2.12-15.852,2.918
						l-4.828-51.779C116.045,469.473,116.058,469.458,116.065,469.455z"/>
					<path fill-rule="evenodd" clip-rule="evenodd" fill="#003663" d="M92.238,469.455c-9.912-2.364-17.787-7.878-19.516-0.096
						c-1.811,8.147-3.794,26-5.888,42.673c-0.537,4.272,3.912,6.107,5.353,6.48c5.131,1.333,9.554,1.987,15.247,2.754l4.824-51.779
						C92.261,469.473,92.245,469.455,92.238,469.455z"/>
					<path fill-rule="evenodd" clip-rule="evenodd" fill="#0E3C64" d="M84.514,520.256l-0.258,0.606
						c12.209,1.547,27.227,1.57,39.471,0.082c-0.115-0.248-0.224-0.476-0.329-0.688H84.514z"/>
					<rect x="97.558" y="451.327" fill-rule="evenodd" clip-rule="evenodd" fill="#B88F6D" width="12.849" height="13.306"/>
					<path fill-rule="evenodd" clip-rule="evenodd" fill="#003E6E" d="M79.609,520.13c2.708-7.81-3.473-44.366-6.888-51.087
						c1.941-6.9,19.629-6.2,24.441-10.123c1.039,0.913,12.021,0.861,13.077-0.066c3.563,2.902,22.618,2.94,25.809,9.84
						c-3.634,7.702-10.298,44.377-7.413,51.403C116.481,522.484,92.116,522.654,79.609,520.13z"/>
					<path fill-rule="evenodd" clip-rule="evenodd" fill="#B88F6D" d="M96.021,451.206h16.251v8.368
						c-5.349,2.373-13.64,1.425-16.251,0.119V451.206z"/>
					<path fill-rule="evenodd" clip-rule="evenodd" fill="#CD880A" d="M104.217,459.002c15.689,0,24.935-28.566,14.074-42.041
						c-5.246-6.51-18.225-7.97-22.378-3.133C77.359,419.761,86.412,459.002,104.217,459.002z"/>
					<path fill-rule="evenodd" clip-rule="evenodd" fill="#565B5F" d="M113.998,458.856c1.567,1.048,3.75,2.474,3.75,2.474
						c-6.445,6.681-22.646,4.591-27.354,0.317l3.844-2.899C98.075,461.166,106.476,464.04,113.998,458.856z"/>
					<path fill-rule="evenodd" clip-rule="evenodd" fill="#E6E6E6" d="M95.875,457.518c2.542,3.03,14.563,3.012,16.591,0.281
						c0.16,0.129,0.773,0.548,1.532,1.058c-7.522,5.184-15.923,2.31-19.761-0.108L95.875,457.518z"/>
				</g>
				<path fill-rule="evenodd" clip-rule="evenodd" fill="#CD880A" d="M126.136,440.889c0-1.734-0.703-3.306-1.835-4.445
					c1.132-1.138,1.835-2.709,1.835-4.442c0-1.943-0.898-3.661-2.281-4.815c0.116-0.479,0.195-0.973,0.195-1.486
					c0-2.52-1.487-4.674-3.624-5.684c0.062-0.356,0.111-0.717,0.111-1.092c0-3.479-2.822-6.303-6.304-6.303
					c-3.479,0-6.3,2.823-6.3,6.303c0,2.518,1.486,4.673,3.621,5.684c-0.062,0.355-0.11,0.717-0.11,1.092
					c0,1.941,0.899,3.66,2.281,4.814c-0.116,0.479-0.194,0.972-0.194,1.487c0,1.733,0.703,3.305,1.836,4.442
					c-1.133,1.14-1.836,2.711-1.836,4.445c0,1.456,0.514,2.779,1.343,3.846c-1.571,1.146-2.603,2.988-2.603,5.082
					c0,0.713,0.144,1.386,0.361,2.024c-2.231-1.432-4.992-2.287-7.992-2.287c-3.003,0-5.764,0.856-7.996,2.289
					c0.013-0.173,0.052-0.339,0.052-0.516c0-2.487-1.453-4.617-3.546-5.642c1.002-1.117,1.63-2.576,1.63-4.195
					c0-2.015-0.964-3.792-2.439-4.944c1.201-1.148,1.955-2.755,1.955-4.545c0-1.196-0.35-2.303-0.929-3.256
					c0.958-0.778,1.672-1.824,2.042-3.034c2.948-0.526,5.19-3.091,5.19-6.19c0-3.479-2.821-6.3-6.303-6.3
					c-2.837,0-5.21,1.886-5.999,4.465c-2.948,0.529-5.189,3.093-5.189,6.191c0,1.195,0.353,2.302,0.93,3.253
					c-1.42,1.158-2.346,2.896-2.346,4.871c0,2.016,0.964,3.791,2.44,4.944c-1.201,1.147-1.956,2.755-1.956,4.545
					c0,2.489,1.453,4.618,3.543,5.644c-1,1.116-1.627,2.577-1.627,4.193c0,1.689,0.673,3.216,1.757,4.347
					c-1.083,1.132-1.757,2.657-1.757,4.348c0,1.271,0.382,2.447,1.029,3.438c-0.647,0.989-1.029,2.166-1.029,3.437
					c0,3.48,2.822,6.303,6.301,6.303c0,3.48,2.823,6.302,6.304,6.302c2.354,0,4.382-1.307,5.462-3.219
					c0.972,2.228,3.189,3.786,5.775,3.786c3.479,0,6.3-2.82,6.3-6.301c0-0.133-0.031-0.256-0.039-0.387
					c1.012,0.692,2.234,1.099,3.552,1.099c3.48,0,6.303-2.821,6.303-6.301c0-1.313-0.403-2.529-1.088-3.54
					c1.176-1.144,1.914-2.739,1.914-4.513c0-2.135-1.068-4.014-2.693-5.154c1.625-1.14,2.693-3.019,2.693-5.154
					c0-1.455-0.515-2.781-1.344-3.846C125.103,444.825,126.136,442.982,126.136,440.889z"/>
			</g>
			<g>
				<path fill-rule="evenodd" clip-rule="evenodd" fill="#0A0607" d="M192.995,470.364c7.893-1.883,18.886-6.352,20.319,0.035
					c1.705,7.591,3.81,25.584,6.017,43.063c0.475,3.767-4.355,5.72-5.557,6.086c-5.376,1.626-9.994,2.132-15.944,2.936
					l-4.855-52.084C192.973,470.384,192.985,470.369,192.995,470.364z"/>
				<path fill-rule="evenodd" clip-rule="evenodd" fill="#0A0607" d="M169.026,470.364c-9.971-2.377-17.892-7.922-19.632-0.095
					c-1.819,8.196-3.815,26.153-5.92,42.925c-0.541,4.295,3.933,6.144,5.382,6.519c5.162,1.339,9.609,1.999,15.336,2.771
					l4.854-52.084C169.049,470.384,169.033,470.364,169.026,470.364z"/>
				<path fill-rule="evenodd" clip-rule="evenodd" fill="#0E3C64" d="M161.256,521.467L161,522.075
					c12.277,1.556,27.382,1.581,39.698,0.083c-0.111-0.25-0.223-0.479-0.329-0.691H161.256z"/>
				<rect x="174.378" y="452.13" fill-rule="evenodd" clip-rule="evenodd" fill="#B88F6D" width="12.923" height="13.385"/>
				<path fill-rule="evenodd" clip-rule="evenodd" fill="#282729" d="M156.322,521.339c2.724-7.854-3.492-44.626-6.928-51.389
					c1.954-6.94,19.745-6.235,24.585-10.182c1.045,0.918,12.095,0.867,13.155-0.066c3.583,2.919,22.75,2.958,25.959,9.897
					c-3.653,7.748-10.355,44.64-7.457,51.704C193.41,523.707,168.903,523.879,156.322,521.339z"/>
				<path fill-rule="evenodd" clip-rule="evenodd" fill="#B88F6D" d="M172.83,452.01h16.348v8.419
					c-5.378,2.387-13.722,1.431-16.348,0.118V452.01z"/>
				<path fill-rule="evenodd" clip-rule="evenodd" fill="#241B16" d="M181.075,459.852c15.783,0,25.083-28.734,14.157-42.286
					c-5.276-6.549-18.331-8.019-22.511-3.153C154.061,420.379,163.167,459.852,181.075,459.852z"/>
				<path fill-rule="evenodd" clip-rule="evenodd" fill="#565B5F" d="M190.914,459.706c1.578,1.055,3.77,2.488,3.77,2.488
					c-6.481,6.717-22.779,4.616-27.514,0.318l3.868-2.915C174.898,462.028,183.348,464.918,190.914,459.706z"/>
				<path fill-rule="evenodd" clip-rule="evenodd" fill="#E6E6E6" d="M172.685,458.356c2.556,3.051,14.648,3.03,16.689,0.284
					c0.159,0.131,0.778,0.552,1.54,1.065c-7.566,5.212-16.016,2.322-19.876-0.108L172.685,458.356z"/>
			</g>
			<g>
				<path fill-rule="evenodd" clip-rule="evenodd" fill="#0E3C64" d="M681.821,474.953c7.894-1.884,18.887-6.351,20.32,0.035
					c1.705,7.591,3.81,25.582,6.018,43.062c0.475,3.766-4.357,5.721-5.56,6.087c-5.375,1.624-9.992,2.132-15.944,2.935
					l-4.854-52.083C681.8,474.972,681.814,474.956,681.821,474.953z"/>
				<path fill-rule="evenodd" clip-rule="evenodd" fill="#0E3C64" d="M657.853,474.953c-9.97-2.378-17.891-7.923-19.631-0.096
					c-1.82,8.195-3.816,26.153-5.923,42.925c-0.539,4.295,3.936,6.143,5.384,6.521c5.161,1.338,9.609,1.998,15.337,2.769
					l4.853-52.083C657.876,474.972,657.859,474.953,657.853,474.953z"/>
				<path fill-rule="evenodd" clip-rule="evenodd" fill="#0E3C64" d="M650.084,526.055l-0.261,0.608
					c12.281,1.556,27.387,1.581,39.704,0.083c-0.114-0.248-0.224-0.478-0.331-0.691H650.084z"/>
				<rect x="663.203" y="456.719" fill-rule="evenodd" clip-rule="evenodd" fill="#B88F6D" width="12.924" height="13.384"/>
				<path fill-rule="evenodd" clip-rule="evenodd" fill="#265A88" d="M645.149,525.927c2.723-7.854-3.493-44.626-6.928-51.388
					c1.953-6.94,19.744-6.236,24.585-10.182c1.046,0.918,12.094,0.867,13.154-0.067c3.584,2.919,22.749,2.957,25.961,9.898
					c-3.655,7.746-10.36,44.639-7.459,51.704C682.238,528.295,657.73,528.467,645.149,525.927z"/>
				<path fill-rule="evenodd" clip-rule="evenodd" fill="#B88F6D" d="M661.658,456.598h16.347v8.419
					c-5.38,2.387-13.719,1.431-16.347,0.118V456.598z"/>
				<path fill-rule="evenodd" clip-rule="evenodd" fill="#5A3C29" d="M669.902,464.44c15.781,0,25.08-28.734,14.156-42.288
					c-5.274-6.549-18.333-8.017-22.511-3.15C642.889,424.967,651.991,464.44,669.902,464.44z"/>
				<path fill-rule="evenodd" clip-rule="evenodd" fill="#0E3C64" d="M679.741,464.293c1.576,1.056,3.77,2.489,3.77,2.489
					c-6.48,6.719-22.779,4.618-27.514,0.318l3.867-2.916C663.724,466.617,672.173,469.508,679.741,464.293z"/>
				<path fill-rule="evenodd" clip-rule="evenodd" fill="#E6E6E6" d="M661.512,462.946c2.556,3.05,14.649,3.03,16.688,0.283
					c0.16,0.131,0.778,0.552,1.542,1.063c-7.568,5.215-16.018,2.324-19.877-0.108L661.512,462.946z"/>
			</g>
			<g>
				<path fill-rule="evenodd" clip-rule="evenodd" fill="#A42C0A" d="M601.975,471.531c7.89-1.882,18.886-6.35,20.319,0.036
					c1.704,7.591,3.808,25.582,6.016,43.062c0.475,3.767-4.357,5.721-5.558,6.087c-5.378,1.624-9.995,2.131-15.945,2.935
					l-4.852-52.083C601.951,471.552,601.965,471.535,601.975,471.531z"/>
				<path fill-rule="evenodd" clip-rule="evenodd" fill="#A42C0A" d="M578.004,471.531c-9.97-2.377-17.892-7.922-19.633-0.094
					c-1.818,8.195-3.814,26.152-5.921,42.923c-0.54,4.297,3.937,6.146,5.385,6.521c5.16,1.339,9.609,1.998,15.335,2.77l4.854-52.083
					C578.026,471.552,578.011,471.531,578.004,471.531z"/>
				<path fill-rule="evenodd" clip-rule="evenodd" fill="#0E3C64" d="M570.235,522.634l-0.259,0.607
					c12.279,1.557,27.386,1.581,39.7,0.084c-0.113-0.249-0.223-0.479-0.33-0.691H570.235z"/>
				<rect x="583.354" y="453.298" fill-rule="evenodd" clip-rule="evenodd" fill="#B88F6D" width="12.925" height="13.385"/>
				<path fill-rule="evenodd" clip-rule="evenodd" fill="#D95316" d="M565.301,522.507c2.723-7.855-3.493-44.626-6.93-51.39
					c1.954-6.939,19.744-6.236,24.588-10.18c1.044,0.916,12.091,0.866,13.153-0.068c3.584,2.919,22.749,2.957,25.961,9.898
					c-3.656,7.747-10.361,44.639-7.459,51.704C602.39,524.874,577.88,525.046,565.301,522.507z"/>
				<path fill-rule="evenodd" clip-rule="evenodd" fill="#B88F6D" d="M581.809,453.177h16.347v8.419
					c-5.379,2.387-13.719,1.432-16.347,0.118V453.177z"/>
				<path fill-rule="evenodd" clip-rule="evenodd" fill="#080301" d="M596.278,483.675c15.782,0,18.856-51.39,7.932-64.942
					c-5.275-6.549-18.332-8.018-22.511-3.152c-12.406,3.967-12.623,50.515-6.058,62.657
					C578.952,484.358,590.274,483.675,596.278,483.675z"/>
			</g>
			<g>
				<path fill-rule="evenodd" clip-rule="evenodd" fill="#0E3C64" d="M286.051,468.582c7.894-1.883,18.886-6.351,20.32,0.035
					c1.705,7.591,3.81,25.584,6.017,43.063c0.475,3.766-4.356,5.72-5.557,6.086c-5.376,1.625-9.994,2.131-15.945,2.935
					l-4.855-52.084C286.029,468.603,286.043,468.587,286.051,468.582z"/>
				<path fill-rule="evenodd" clip-rule="evenodd" fill="#003663" d="M262.083,468.582c-9.97-2.377-17.892-7.922-19.632-0.094
					c-1.821,8.195-3.816,26.152-5.922,42.924c-0.538,4.296,3.936,6.144,5.384,6.52c5.161,1.339,9.609,1.998,15.336,2.77
					l4.854-52.084C262.105,468.603,262.089,468.582,262.083,468.582z"/>
				<path fill-rule="evenodd" clip-rule="evenodd" fill="#0E3C64" d="M254.313,519.685l-0.26,0.608
					c12.28,1.556,27.385,1.581,39.703,0.083c-0.115-0.249-0.224-0.479-0.331-0.691H254.313z"/>
				<rect x="267.434" y="450.349" fill-rule="evenodd" clip-rule="evenodd" fill="#B88F6D" width="12.923" height="13.385"/>
				<path fill-rule="evenodd" clip-rule="evenodd" fill="#003E6E" d="M249.379,519.558c2.723-7.855-3.493-44.626-6.928-51.389
					c1.954-6.94,19.745-6.236,24.586-10.182c1.045,0.917,12.094,0.866,13.155-0.067c3.583,2.919,22.748,2.958,25.96,9.897
					c-3.655,7.748-10.36,44.64-7.458,51.705C286.467,521.925,261.96,522.097,249.379,519.558z"/>
				<path fill-rule="evenodd" clip-rule="evenodd" fill="#B88F6D" d="M265.888,450.228h16.346v8.419
					c-5.379,2.388-13.718,1.432-16.346,0.119V450.228z"/>
				<path fill-rule="evenodd" clip-rule="evenodd" fill="#5A3C29" d="M274.131,458.069c15.783,0,25.081-28.733,14.157-42.286
					c-5.273-6.549-18.333-8.019-22.51-3.152C247.118,418.597,256.221,458.069,274.131,458.069z"/>
				<path fill-rule="evenodd" clip-rule="evenodd" fill="#003663" d="M283.971,457.924c1.577,1.055,3.77,2.488,3.77,2.488
					c-6.48,6.718-22.78,4.617-27.514,0.318l3.867-2.915C267.954,460.247,276.403,463.137,283.971,457.924z"/>
				<path fill-rule="evenodd" clip-rule="evenodd" fill="#E6E6E6" d="M265.741,456.575c2.556,3.05,14.649,3.03,16.689,0.284
					c0.16,0.13,0.777,0.552,1.541,1.064c-7.567,5.213-16.017,2.323-19.877-0.108L265.741,456.575z"/>
			</g>
			<g>
				<path fill-rule="evenodd" clip-rule="evenodd" fill="#B5B7B8" d="M365.548,468.582c7.89-1.883,18.887-6.351,20.319,0.035
					c1.703,7.591,3.808,25.584,6.017,43.063c0.474,3.766-4.356,5.72-5.559,6.086c-5.377,1.625-9.995,2.131-15.945,2.935
					l-4.853-52.084C365.524,468.603,365.539,468.587,365.548,468.582z"/>
				<path fill-rule="evenodd" clip-rule="evenodd" fill="#B5B7B8" d="M341.578,468.582c-9.969-2.377-17.892-7.922-19.633-0.094
					c-1.818,8.195-3.815,26.152-5.921,42.924c-0.541,4.296,3.936,6.144,5.385,6.52c5.159,1.339,9.609,1.998,15.334,2.77
					l4.855-52.084C341.6,468.603,341.584,468.582,341.578,468.582z"/>
				<path fill-rule="evenodd" clip-rule="evenodd" fill="#0E3C64" d="M333.808,519.685l-0.258,0.608
					c12.279,1.556,27.385,1.581,39.7,0.083c-0.113-0.249-0.223-0.479-0.331-0.691H333.808z"/>
				<rect x="346.928" y="450.349" fill-rule="evenodd" clip-rule="evenodd" fill="#B88F6D" width="12.924" height="13.385"/>
				<path fill-rule="evenodd" clip-rule="evenodd" fill="#D5D6D6" d="M328.874,519.558c2.723-7.855-3.493-44.626-6.929-51.389
					c1.955-6.94,19.744-6.236,24.588-10.182c1.044,0.917,12.09,0.866,13.153-0.067c3.584,2.919,22.749,2.958,25.961,9.897
					c-3.655,7.748-10.36,44.64-7.458,51.705C365.962,521.925,341.454,522.097,328.874,519.558z"/>
				<path fill-rule="evenodd" clip-rule="evenodd" fill="#B88F6D" d="M345.383,450.228h16.346v8.419
					c-5.379,2.388-13.719,1.432-16.346,0.119V450.228z"/>
				<path fill-rule="evenodd" clip-rule="evenodd" fill="#CD880A" d="M359.852,480.726c15.782,0,18.857-51.39,7.931-64.942
					c-5.275-6.549-18.331-8.019-22.511-3.152c-12.405,3.966-12.623,50.516-6.058,62.656
					C342.525,481.409,353.848,480.726,359.852,480.726z"/>
			</g>
			<g>
				<path fill-rule="evenodd" clip-rule="evenodd" fill="#0A0607" d="M445.042,468.582c7.893-1.883,18.886-6.351,20.319,0.035
					c1.705,7.591,3.81,25.584,6.017,43.063c0.475,3.766-4.355,5.72-5.558,6.086c-5.376,1.625-9.993,2.131-15.944,2.935
					l-4.855-52.084C445.02,468.603,445.032,468.587,445.042,468.582z"/>
				<path fill-rule="evenodd" clip-rule="evenodd" fill="#0A0607" d="M421.073,468.582c-9.971-2.377-17.892-7.922-19.632-0.094
					c-1.819,8.195-3.815,26.152-5.921,42.924c-0.541,4.296,3.934,6.144,5.383,6.52c5.162,1.339,9.609,1.998,15.336,2.77
					l4.854-52.084C421.096,468.603,421.079,468.582,421.073,468.582z"/>
				<path fill-rule="evenodd" clip-rule="evenodd" fill="#0E3C64" d="M413.303,519.685l-0.256,0.608
					c12.276,1.556,27.382,1.581,39.697,0.083c-0.11-0.249-0.222-0.479-0.328-0.691H413.303z"/>
				<rect x="426.425" y="450.349" fill-rule="evenodd" clip-rule="evenodd" fill="#B88F6D" width="12.923" height="13.385"/>
				<path fill-rule="evenodd" clip-rule="evenodd" fill="#894967" d="M408.368,519.558c2.725-7.855-3.491-44.626-6.927-51.389
					c1.954-6.94,19.744-6.236,24.585-10.182c1.045,0.917,12.095,0.866,13.154-0.067c3.584,2.919,22.75,2.958,25.959,9.897
					c-3.652,7.748-10.354,44.64-7.457,51.705C445.457,521.925,420.95,522.097,408.368,519.558z"/>
				<path fill-rule="evenodd" clip-rule="evenodd" fill="#B88F6D" d="M424.877,450.228h16.348v8.419
					c-5.379,2.388-13.722,1.432-16.348,0.119V450.228z"/>
				<path fill-rule="evenodd" clip-rule="evenodd" fill="#080301" d="M433.122,458.069c15.782,0,25.083-28.733,14.156-42.286
					c-5.275-6.549-18.33-8.019-22.511-3.152C406.107,418.597,415.213,458.069,433.122,458.069z"/>
				<path fill-rule="evenodd" clip-rule="evenodd" fill="#7C405D" d="M442.96,457.924c1.578,1.055,3.771,2.488,3.771,2.488
					c-6.481,6.718-22.779,4.617-27.515,0.318l3.868-2.915C426.944,460.247,435.395,463.137,442.96,457.924z"/>
				<path fill-rule="evenodd" clip-rule="evenodd" fill="#E6E6E6" d="M424.731,456.575c2.556,3.05,14.648,3.03,16.688,0.284
					c0.159,0.13,0.778,0.552,1.54,1.064c-7.565,5.213-16.016,2.323-19.876-0.108L424.731,456.575z"/>
			</g>
			<g>
				<path fill-rule="evenodd" clip-rule="evenodd" fill="#0A0607" d="M531.063,468.582c7.893-1.883,18.888-6.351,20.32,0.035
					c1.704,7.591,3.808,25.584,6.017,43.063c0.475,3.766-4.356,5.72-5.558,6.086c-5.376,1.625-9.991,2.131-15.944,2.935
					l-4.855-52.084C531.041,468.603,531.056,468.587,531.063,468.582z"/>
				<path fill-rule="evenodd" clip-rule="evenodd" fill="#0A0607" d="M507.094,468.582c-9.969-2.377-17.892-7.922-19.631-0.094
					c-1.822,8.195-3.816,26.152-5.924,42.924c-0.538,4.296,3.937,6.144,5.385,6.52c5.162,1.339,9.611,1.998,15.337,2.77
					l4.853-52.084C507.117,468.603,507.1,468.582,507.094,468.582z"/>
				<path fill-rule="evenodd" clip-rule="evenodd" fill="#0E3C64" d="M499.324,519.685l-0.26,0.608
					c12.28,1.556,27.388,1.581,39.703,0.083c-0.114-0.249-0.224-0.479-0.331-0.691H499.324z"/>
				<rect x="512.445" y="450.349" fill-rule="evenodd" clip-rule="evenodd" fill="#B88F6D" width="12.925" height="13.385"/>
				<path fill-rule="evenodd" clip-rule="evenodd" fill="#282729" d="M494.391,519.558c2.725-7.855-3.493-44.626-6.928-51.389
					c1.954-6.94,19.745-6.236,24.587-10.182c1.044,0.917,12.092,0.866,13.152-0.067c3.584,2.919,22.75,2.958,25.961,9.897
					c-3.655,7.748-10.358,44.64-7.457,51.705C531.48,521.925,506.972,522.097,494.391,519.558z"/>
				<path fill-rule="evenodd" clip-rule="evenodd" fill="#B88F6D" d="M510.899,450.228h16.346v8.419
					c-5.379,2.388-13.719,1.432-16.346,0.119V450.228z"/>
				<path fill-rule="evenodd" clip-rule="evenodd" fill="#CD880A" d="M519.146,458.069c15.779,0,25.08-28.733,14.156-42.286
					c-5.277-6.549-18.334-8.019-22.511-3.152C492.128,418.597,501.233,458.069,519.146,458.069z"/>
				<path fill-rule="evenodd" clip-rule="evenodd" fill="#565B5F" d="M528.981,457.924c1.578,1.055,3.771,2.488,3.771,2.488
					c-6.482,6.718-22.78,4.617-27.514,0.318l3.867-2.915C512.966,460.247,521.415,463.137,528.981,457.924z"/>
				<path fill-rule="evenodd" clip-rule="evenodd" fill="#E6E6E6" d="M510.753,456.575c2.558,3.05,14.649,3.03,16.688,0.284
					c0.159,0.13,0.776,0.552,1.54,1.064c-7.566,5.213-16.016,2.323-19.875-0.108L510.753,456.575z"/>
			</g>
		</g>
	</g>
</g>
</svg>
