<?xml version="1.0" encoding="utf-8"?>
<!-- Generator: Adobe Illustrator 16.0.0, SVG Export Plug-In . SVG Version: 6.00 Build 0)  -->
<!DOCTYPE svg PUBLIC "-//W3C//DTD SVG 1.1//EN" "http://www.w3.org/Graphics/SVG/1.1/DTD/svg11.dtd">
<svg version="1.1" xmlns="http://www.w3.org/2000/svg" xmlns:xlink="http://www.w3.org/1999/xlink" x="0px" y="0px" width="170px"
	 height="65px" viewBox="0 0 170 65" enable-background="new 0 0 170 65" xml:space="preserve">
<g id="cdr_x5F_object">
	<g>
		<path fill-rule="evenodd" clip-rule="evenodd" fill="#518BC9" d="M66.133,44.84h13.621V21.782c0-3.061,3.049-5.545,6.811-5.545
			c3.76,0,6.809,2.484,6.809,5.545V44.84h13.621V21.782c0-3.061,3.049-5.545,6.809-5.545c3.762,0,6.811,2.484,6.811,5.545V44.84
			h13.621V18.183c0-7.198-9.149-13.035-20.432-13.035c-5.231,0-10.005,1.256-13.619,3.321c-3.614-2.065-8.388-3.321-13.619-3.321
			c-11.282,0-20.432,5.837-20.432,13.035V44.84L66.133,44.84z"/>
		<path fill-rule="evenodd" clip-rule="evenodd" fill="#8DC63F" d="M142.988,4.883c12.356,0,22.377,9.264,22.377,20.688
			c0,11.424-10.021,20.688-22.377,20.688c-12.354,0-22.375-9.265-22.375-20.688C120.613,14.146,130.634,4.883,142.988,4.883
			L142.988,4.883z M142.988,16.88c4.836,0,8.758,3.892,8.758,8.691s-3.922,8.69-8.758,8.69c-4.834,0-8.754-3.891-8.754-8.69
			S138.154,16.88,142.988,16.88L142.988,16.88z"/>
		<path fill-rule="evenodd" clip-rule="evenodd" fill="#2B3990" d="M134.234,44.614V18.183c0-3.358-1.993-6.422-5.266-8.733
			c-5.093,3.793-8.355,9.605-8.355,16.122C120.613,34.122,126.227,41.464,134.234,44.614L134.234,44.614z"/>
		<polygon fill-rule="evenodd" clip-rule="evenodd" fill="#FAA61A" points="31.889,17.6 31.889,44.84 16.324,44.84 16.324,17.6 
			3.871,17.6 3.871,5.926 52.514,5.926 52.514,17.6 31.889,17.6 		"/>
		<path fill-rule="evenodd" clip-rule="evenodd" fill="#F15A29" d="M38.894,5.926h13.62v23.057c0,3.062,3.049,5.544,6.81,5.544
			c3.76,0,6.809-2.482,6.809-5.544V5.926h13.62v26.655c0,7.198-9.148,13.037-20.429,13.037c-11.282,0-20.43-5.839-20.43-13.037
			V5.926L38.894,5.926z"/>
		<polygon fill-rule="evenodd" clip-rule="evenodd" fill="#BE1E2D" points="38.894,5.926 52.514,5.926 52.514,17.6 38.894,17.6 
			38.894,5.926 		"/>
		<path fill-rule="evenodd" clip-rule="evenodd" fill="#662D91" d="M66.133,28.982c0-3.6,0-7.2,0-10.799
			c0-5.638,5.612-10.439,13.466-12.258h0.154v15.856c0,3.6,0,7.199,0,10.799c0,5.639-5.61,10.44-13.463,12.259h-0.157V28.982
			L66.133,28.982z"/>
		<path fill-rule="evenodd" clip-rule="evenodd" fill="#808285" d="M1.511,57.581c0-1.931,1.222-3.153,3.239-3.153
			c0.889,0,1.419,0.179,1.829,0.368l-0.316,0.862c-0.521-0.153-0.82-0.239-1.496-0.248c-1.163-0.008-2.06,0.633-2.06,2.085
			c0,1.471,0.94,2.171,2.223,2.171c0.581,0,0.974-0.067,1.409-0.195l0.257,0.896c-0.513,0.188-1.009,0.3-1.812,0.3
			C2.647,60.667,1.511,59.496,1.511,57.581L1.511,57.581z"/>
		<polygon fill-rule="evenodd" clip-rule="evenodd" fill="#808285" points="7.616,54.522 11.368,54.522 11.368,55.444 8.786,55.444 
			8.786,57.095 11.179,57.095 11.179,57.966 8.786,57.966 8.786,59.641 11.563,59.641 11.563,60.564 7.616,60.564 7.616,54.522 		
			"/>
		<polygon fill-rule="evenodd" clip-rule="evenodd" fill="#808285" points="12.703,54.522 14.096,54.522 16.754,59.086 
			16.78,59.086 16.746,58.377 16.746,54.522 17.907,54.522 17.907,60.564 16.48,60.564 13.874,56.094 13.839,56.094 13.874,56.83 
			13.874,60.564 12.703,60.564 12.703,54.522 		"/>
		<polygon fill-rule="evenodd" clip-rule="evenodd" fill="#808285" points="20.757,55.454 18.791,55.454 18.791,54.522 
			23.885,54.522 23.885,55.454 21.928,55.454 21.928,60.564 20.757,60.564 20.757,55.454 		"/>
		<polygon fill-rule="evenodd" clip-rule="evenodd" fill="#808285" points="24.768,54.522 28.52,54.522 28.52,55.444 25.938,55.444 
			25.938,57.095 28.332,57.095 28.332,57.966 25.938,57.966 25.938,59.641 28.716,59.641 28.716,60.564 24.768,60.564 
			24.768,54.522 		"/>
		<path fill-rule="evenodd" clip-rule="evenodd" fill="#808285" d="M31.675,57.505c0.889,0,1.368-0.334,1.368-1.043
			c0-0.734-0.333-1.018-1.163-1.018h-0.846v2.061H31.675L31.675,57.505z M32.804,59.309l-0.77-0.975
			c-0.12,0.018-0.273,0.025-0.41,0.025h-0.589v2.205h-1.18v-6.042h2.213c1.283,0,2.188,0.598,2.188,1.897
			c0,0.684-0.324,1.298-1.033,1.641l0.684,0.838c0.359,0.418,0.726,0.709,1.35,0.879L35,60.676
			C33.992,60.599,33.402,60.043,32.804,59.309L32.804,59.309z"/>
		<polygon fill-rule="evenodd" clip-rule="evenodd" fill="#808285" points="38.08,54.522 42.055,54.522 42.055,55.444 
			39.251,55.444 39.251,57.249 41.866,57.249 41.866,58.12 39.251,58.12 39.251,60.564 38.08,60.564 38.08,54.522 		"/>
		<path fill-rule="evenodd" clip-rule="evenodd" fill="#808285" d="M47.911,57.539c0-1.248-0.631-2.18-1.957-2.18
			c-1.385,0-1.991,0.932-1.991,2.163c0,1.204,0.59,2.213,1.931,2.213C47.33,59.735,47.911,58.778,47.911,57.539L47.911,57.539z
			 M42.783,57.53c0-1.897,1.248-3.103,3.23-3.103c2.103,0,3.085,1.334,3.085,3.12c0,1.897-1.163,3.119-3.23,3.119
			C43.843,60.667,42.783,59.437,42.783,57.53L42.783,57.53z"/>
		<path fill-rule="evenodd" clip-rule="evenodd" fill="#808285" d="M52.076,57.505c0.89,0,1.368-0.334,1.368-1.043
			c0-0.734-0.333-1.018-1.162-1.018h-0.847v2.061H52.076L52.076,57.505z M53.205,59.309l-0.769-0.975
			c-0.12,0.018-0.273,0.025-0.411,0.025h-0.59v2.205h-1.179v-6.042h2.213c1.282,0,2.188,0.598,2.188,1.897
			c0,0.684-0.324,1.298-1.034,1.641l0.684,0.838c0.358,0.418,0.727,0.709,1.351,0.879l-0.256,0.898
			C54.393,60.599,53.803,60.043,53.205,59.309L53.205,59.309z"/>
		<path fill-rule="evenodd" clip-rule="evenodd" d="M58.089,57.581c0-1.931,1.223-3.153,3.239-3.153
			c0.889,0,1.419,0.179,1.829,0.368l-0.316,0.862c-0.521-0.153-0.821-0.239-1.496-0.248c-1.162-0.008-2.06,0.633-2.06,2.085
			c0,1.471,0.94,2.171,2.222,2.171c0.581,0,0.975-0.067,1.41-0.195l0.257,0.896c-0.513,0.188-1.009,0.3-1.812,0.3
			C59.225,60.667,58.089,59.496,58.089,57.581L58.089,57.581z"/>
		<path fill-rule="evenodd" clip-rule="evenodd" d="M66.015,57.505c0.888,0,1.367-0.334,1.367-1.043
			c0-0.734-0.334-1.018-1.163-1.018h-0.846v2.061H66.015L66.015,57.505z M67.143,59.309l-0.771-0.975
			c-0.119,0.018-0.273,0.025-0.41,0.025h-0.589v2.205h-1.18v-6.042h2.213c1.283,0,2.188,0.598,2.188,1.897
			c0,0.684-0.325,1.298-1.034,1.641l0.685,0.838c0.357,0.418,0.726,0.709,1.35,0.879l-0.256,0.898
			C68.33,60.599,67.74,60.043,67.143,59.309L67.143,59.309z"/>
		<polygon fill-rule="evenodd" clip-rule="evenodd" points="70.332,54.522 74.084,54.522 74.084,55.444 71.504,55.444 
			71.504,57.095 73.896,57.095 73.896,57.966 71.504,57.966 71.504,59.641 74.28,59.641 74.28,60.564 70.332,60.564 70.332,54.522 
					"/>
		<path fill-rule="evenodd" clip-rule="evenodd" d="M78.411,57.743l-0.735-2.478l-0.837,2.478H78.411L78.411,57.743z M76.976,54.522
			h1.504l2.095,6.042h-1.222l-0.658-1.957h-2.172l-0.751,1.957h-1.181L76.976,54.522L76.976,54.522z"/>
		<polygon fill-rule="evenodd" clip-rule="evenodd" points="82.303,55.454 80.337,55.454 80.337,54.522 85.431,54.522 
			85.431,55.454 83.474,55.454 83.474,60.564 82.303,60.564 82.303,55.454 		"/>
		<polygon fill-rule="evenodd" clip-rule="evenodd" points="86.313,54.522 87.483,54.522 87.483,60.564 86.313,60.564 
			86.313,54.522 		"/>
		<polygon fill-rule="evenodd" clip-rule="evenodd" points="88.332,54.522 89.571,54.522 91.229,59.684 93.151,54.522 
			94.332,54.522 91.972,60.564 90.434,60.564 88.332,54.522 		"/>
		<polygon fill-rule="evenodd" clip-rule="evenodd" points="95.044,54.522 98.795,54.522 98.795,55.444 96.214,55.444 
			96.214,57.095 98.607,57.095 98.607,57.966 96.214,57.966 96.214,59.641 98.992,59.641 98.992,60.564 95.044,60.564 
			95.044,54.522 		"/>
		<polygon fill-rule="evenodd" clip-rule="evenodd" fill="#808285" points="103.517,55.454 101.551,55.454 101.551,54.522 
			106.645,54.522 106.645,55.454 104.687,55.454 104.687,60.564 103.517,60.564 103.517,55.454 		"/>
		<polygon fill-rule="evenodd" clip-rule="evenodd" fill="#808285" points="107.526,54.522 111.278,54.522 111.278,55.444 
			108.697,55.444 108.697,57.095 111.091,57.095 111.091,57.966 108.697,57.966 108.697,59.641 111.476,59.641 111.476,60.564 
			107.526,60.564 107.526,54.522 		"/>
		<path fill-rule="evenodd" clip-rule="evenodd" fill="#808285" d="M112.179,57.581c0-1.931,1.223-3.153,3.238-3.153
			c0.89,0,1.42,0.179,1.83,0.368l-0.317,0.862c-0.521-0.153-0.82-0.239-1.496-0.248c-1.161-0.008-2.06,0.633-2.06,2.085
			c0,1.471,0.94,2.171,2.224,2.171c0.581,0,0.974-0.067,1.409-0.195l0.257,0.896c-0.513,0.188-1.009,0.3-1.813,0.3
			C113.315,60.667,112.179,59.496,112.179,57.581L112.179,57.581z"/>
		<polygon fill-rule="evenodd" clip-rule="evenodd" fill="#808285" points="118.283,54.522 119.454,54.522 119.454,57.077 
			122.301,57.077 122.301,54.522 123.473,54.522 123.473,60.564 122.301,60.564 122.301,57.983 119.454,57.983 119.454,60.564 
			118.283,60.564 118.283,54.522 		"/>
		<polygon fill-rule="evenodd" clip-rule="evenodd" fill="#808285" points="125.021,54.522 126.414,54.522 129.073,59.086 
			129.099,59.086 129.063,58.377 129.063,54.522 130.227,54.522 130.227,60.564 128.8,60.564 126.191,56.094 126.158,56.094 
			126.191,56.83 126.191,60.564 125.021,60.564 125.021,54.522 		"/>
		<path fill-rule="evenodd" clip-rule="evenodd" fill="#808285" d="M136.52,57.539c0-1.248-0.633-2.18-1.957-2.18
			c-1.384,0-1.992,0.932-1.992,2.163c0,1.204,0.591,2.213,1.932,2.213C135.938,59.735,136.52,58.778,136.52,57.539L136.52,57.539z
			 M131.393,57.53c0-1.897,1.247-3.103,3.229-3.103c2.104,0,3.086,1.334,3.086,3.12c0,1.897-1.163,3.119-3.231,3.119
			C132.451,60.667,131.393,59.437,131.393,57.53L131.393,57.53z"/>
		<polygon fill-rule="evenodd" clip-rule="evenodd" fill="#808285" points="138.863,54.522 140.035,54.522 140.035,59.624 
			142.659,59.624 142.659,60.564 138.863,60.564 138.863,54.522 		"/>
		<path fill-rule="evenodd" clip-rule="evenodd" fill="#808285" d="M147.969,57.539c0-1.248-0.633-2.18-1.958-2.18
			c-1.384,0-1.991,0.932-1.991,2.163c0,1.204,0.59,2.213,1.933,2.213C147.387,59.735,147.969,58.778,147.969,57.539L147.969,57.539z
			 M142.841,57.53c0-1.897,1.247-3.103,3.23-3.103c2.103,0,3.085,1.334,3.085,3.12c0,1.897-1.162,3.119-3.229,3.119
			C143.9,60.667,142.841,59.437,142.841,57.53L142.841,57.53z"/>
		<path fill-rule="evenodd" clip-rule="evenodd" fill="#808285" d="M149.938,57.581c0-2.076,1.154-3.145,3.273-3.145
			c0.881,0,1.342,0.162,1.786,0.351l-0.316,0.871c-0.504-0.145-0.82-0.248-1.488-0.248c-1.145,0-2.068,0.591-2.068,2.085
			c0.002,1.515,1.001,2.171,2.206,2.171c0.256,0,0.444-0.025,0.606-0.051v-2.034h1.172v2.744c-0.616,0.23-1.181,0.334-1.916,0.334
			C151.193,60.659,149.938,59.599,149.938,57.581L149.938,57.581z"/>
		<polygon fill-rule="evenodd" clip-rule="evenodd" fill="#808285" points="156.358,54.522 157.53,54.522 157.53,60.564 
			156.358,60.564 156.358,54.522 		"/>
		<polygon fill-rule="evenodd" clip-rule="evenodd" fill="#808285" points="159.078,54.522 162.829,54.522 162.829,55.444 
			160.248,55.444 160.248,57.095 162.641,57.095 162.641,57.966 160.248,57.966 160.248,59.641 163.025,59.641 163.025,60.564 
			159.078,60.564 159.078,54.522 		"/>
		<path fill-rule="evenodd" clip-rule="evenodd" fill="#808285" d="M163.687,60.205l0.343-0.889
			c0.496,0.213,0.914,0.377,1.546,0.377c0.701,0,1.197-0.273,1.197-0.795c0-1.188-2.905-0.795-2.905-2.821
			c0-1.085,0.999-1.649,2.025-1.649c0.854,0,1.332,0.179,1.734,0.419l-0.333,0.862c-0.428-0.188-0.805-0.307-1.367-0.307
			c-0.53,0-0.924,0.248-0.924,0.684c0,1.018,2.949,0.881,2.949,2.76c0,1.258-1.154,1.821-2.368,1.821
			C164.679,60.667,164.097,60.437,163.687,60.205L163.687,60.205z"/>
	</g>
</g>
<g id="MasterLayer_1">
</g>
</svg>
